<?xml version="1.0" encoding="UTF-8" standalone="no"?>
<svg
   viewBox="0 0 300 345"
   version="1.1"
   id="svg53"
   xml:space="preserve"
   xmlns:xlink="http://www.w3.org/1999/xlink"
   xmlns="http://www.w3.org/2000/svg"
   xmlns:svg="http://www.w3.org/2000/svg"><defs
     id="defs7"><linearGradient
       id="linearGradient32492"><stop
         style="stop-color:#3400ae;stop-opacity:1;"
         offset="0.33932585"
         id="stop32488" /><stop
         style="stop-color:#4e4be1;stop-opacity:0;"
         offset="1"
         id="stop32490" /></linearGradient><linearGradient
       id="linearGradient32486"><stop
         style="stop-color:#3400ae;stop-opacity:1;"
         offset="0.33932585"
         id="stop32482" /><stop
         style="stop-color:#4e4be1;stop-opacity:0;"
         offset="1"
         id="stop32484" /></linearGradient><linearGradient
       id="linearGradient32480"><stop
         style="stop-color:#3400ae;stop-opacity:1;"
         offset="0.33932585"
         id="stop32476" /><stop
         style="stop-color:#4e4be1;stop-opacity:0;"
         offset="1"
         id="stop32478" /></linearGradient><linearGradient
       id="linearGradient32474"><stop
         style="stop-color:#3400ae;stop-opacity:1;"
         offset="0.05895692"
         id="stop32470" /><stop
         style="stop-color:#4e4be1;stop-opacity:0;"
         offset="1"
         id="stop32472" /></linearGradient><linearGradient
       id="linearGradient20875"><stop
         style="stop-color:#17d1f6;stop-opacity:1;"
         offset="0"
         id="stop20873" /><stop
         style="stop-color:#1042de;stop-opacity:1;"
         offset="1"
         id="stop20871" /></linearGradient><linearGradient
       id="linearGradient2826"><stop
         style="stop-color:#3400ae;stop-opacity:1;"
         offset="0.33932585"
         id="stop2822" /><stop
         style="stop-color:#4e4be1;stop-opacity:0;"
         offset="1"
         id="stop2824" /></linearGradient><linearGradient
       id="linearGradient2814"><stop
         style="stop-color:#3400ae;stop-opacity:1;"
         offset="0"
         id="stop2810" /><stop
         style="stop-color:#4e4be1;stop-opacity:0;"
         offset="1"
         id="stop2812" /></linearGradient><linearGradient
       id="linearGradient1326"><stop
         style="stop-color:#39f4ff;stop-opacity:1;"
         offset="0.36853933"
         id="stop1322" /><stop
         style="stop-color:#39f4ff;stop-opacity:0;"
         offset="1"
         id="stop1324" /></linearGradient><linearGradient
       id="linearGradient1188"><stop
         style="stop-color:#8c00f7;stop-opacity:1;"
         offset="0"
         id="stop1186" /><stop
         style="stop-color:#8c00f7;stop-opacity:0;"
         offset="0.59183669"
         id="stop1184" /></linearGradient><linearGradient
       id="linearGradient4525"><stop
         style="stop-color:#1ce0fc;stop-opacity:1.0"
         offset="0"
         id="stop4521" /><stop
         style="stop-color:#1ce0fc;stop-opacity:0.47120419"
         offset="1"
         id="stop4523" /></linearGradient><linearGradient
       id="linearGradient4517"><stop
         style="stop-color:#1fe9ff;stop-opacity:1.0"
         offset="0"
         id="stop4513" /><stop
         style="stop-color:#1fe9ff;stop-opacity:0.41884816"
         offset="1"
         id="stop4515" /></linearGradient><linearGradient
       id="linearGradient2713"><stop
         style="stop-color:#0111b6;stop-opacity:1.0"
         offset="0"
         id="stop2709" /><stop
         style="stop-color:#0fdef4;stop-opacity:1.0"
         offset="0.26685393"
         id="stop928" /><stop
         style="stop-color:#0fdef4;stop-opacity:1.0"
         offset="0.5"
         id="stop3131" /><stop
         style="stop-color:#0fdef4;stop-opacity:1.0"
         offset="0.66760308"
         id="stop924" /><stop
         style="stop-color:#0123c0;stop-opacity:1.0"
         offset="1"
         id="stop2711" /></linearGradient><linearGradient
       id="A"
       x1="150"
       y1="356.11"
       x2="150"
       y2="161.16"
       gradientUnits="userSpaceOnUse"><stop
         offset="0"
         stop-color="#995b3c"
         id="stop2"
         style="stop-color:#160bbe;stop-opacity:1;" /><stop
         offset="0.26596364"
         stop-color="#51291b"
         id="stop4"
         style="stop-color:#0a6ff8;stop-opacity:1;" /></linearGradient><linearGradient
       xlink:href="#linearGradient2713"
       id="linearGradient2715"
       x1="-1.6174366"
       y1="204.63475"
       x2="301.61744"
       y2="204.63475"
       gradientUnits="userSpaceOnUse"
       gradientTransform="translate(-2.4204247e-6)" /><linearGradient
       xlink:href="#linearGradient4517"
       id="linearGradient4519"
       x1="110.62765"
       y1="172.95575"
       x2="35.369549"
       y2="127.5012"
       gradientUnits="userSpaceOnUse" /><linearGradient
       xlink:href="#linearGradient4525"
       id="linearGradient4527"
       x1="116.55972"
       y1="195.69321"
       x2="29.545454"
       y2="237.73866"
       gradientUnits="userSpaceOnUse" /><linearGradient
       xlink:href="#linearGradient4525"
       id="linearGradient20291"
       gradientUnits="userSpaceOnUse"
       x1="116.55972"
       y1="195.69321"
       x2="29.545454"
       y2="237.73866"
       gradientTransform="matrix(1.1356108,0,0,1.3950333,-17.567765,-72.533188)" /><linearGradient
       xlink:href="#linearGradient1188"
       id="linearGradient1190"
       x1="151.96814"
       y1="229.36925"
       x2="153.76767"
       y2="285.61636"
       gradientUnits="userSpaceOnUse"
       gradientTransform="matrix(1,0,0,1.0761879,0,-17.141385)" /><radialGradient
       xlink:href="#linearGradient1326"
       id="radialGradient2096"
       gradientUnits="userSpaceOnUse"
       gradientTransform="matrix(1,0,0,0.73173524,5.1187807,53.101372)"
       cx="120.93164"
       cy="314.55049"
       fx="120.93164"
       fy="314.55049"
       r="22.097658" /><linearGradient
       xlink:href="#linearGradient2814"
       id="linearGradient2816"
       x1="116.96779"
       y1="343.05051"
       x2="121.81499"
       y2="315.30081"
       gradientUnits="userSpaceOnUse" /><linearGradient
       xlink:href="#linearGradient32492"
       id="linearGradient2820"
       gradientUnits="userSpaceOnUse"
       x1="116.96779"
       y1="343.05051"
       x2="118.41456"
       y2="318.00238"
       gradientTransform="matrix(0.66903663,0,0,1,-13.371098,-0.80433878)" /><linearGradient
       xlink:href="#linearGradient2826"
       id="linearGradient2830"
       gradientUnits="userSpaceOnUse"
       gradientTransform="matrix(0.66903663,0,0,1,-53.610402,-3.7902942)"
       x1="116.96779"
       y1="343.05051"
       x2="119.05214"
       y2="321.69928" /><linearGradient
       xlink:href="#linearGradient32480"
       id="linearGradient2847"
       gradientUnits="userSpaceOnUse"
       gradientTransform="matrix(-0.66903663,0,0,1,311.69612,-0.80433878)"
       x1="116.96779"
       y1="343.05051"
       x2="118.41456"
       y2="318.00238" /><linearGradient
       xlink:href="#linearGradient32474"
       id="linearGradient2849"
       gradientUnits="userSpaceOnUse"
       x1="116.96779"
       y1="343.05051"
       x2="121.81499"
       y2="315.30081"
       gradientTransform="matrix(-1,0,0,1,298.32502,0)" /><linearGradient
       xlink:href="#linearGradient32486"
       id="linearGradient2851"
       gradientUnits="userSpaceOnUse"
       gradientTransform="matrix(-0.66903663,0,0,1,351.93542,-3.7902942)"
       x1="116.96779"
       y1="343.05051"
       x2="119.05214"
       y2="321.69928" /><linearGradient
       xlink:href="#linearGradient20875"
       id="linearGradient20877"
       x1="148.44464"
       y1="257.13455"
       x2="150.98247"
       y2="307.7536"
       gradientUnits="userSpaceOnUse" /><radialGradient
       xlink:href="#linearGradient1326"
       id="radialGradient37432"
       gradientUnits="userSpaceOnUse"
       gradientTransform="matrix(1,0,0,0.73173524,5.1187807,53.101372)"
       cx="120.93164"
       cy="314.55049"
       fx="120.93164"
       fy="314.55049"
       r="22.097658" /><linearGradient
       xlink:href="#linearGradient4517"
       id="linearGradient7746"
       gradientUnits="userSpaceOnUse"
       x1="110.62765"
       y1="172.95575"
       x2="35.369549"
       y2="127.5012" /><linearGradient
       xlink:href="#linearGradient4517"
       id="linearGradient7753"
       gradientUnits="userSpaceOnUse"
       x1="110.62765"
       y1="172.95575"
       x2="35.369549"
       y2="127.5012" /><linearGradient
       xlink:href="#linearGradient4525"
       id="linearGradient7755"
       gradientUnits="userSpaceOnUse"
       gradientTransform="matrix(1.1356108,0,0,1.3950333,-17.567765,-72.533188)"
       x1="116.55972"
       y1="195.69321"
       x2="29.545454"
       y2="237.73866" /></defs><path
     d="M 263.62,345 H 36.38 A 36.38,36.38 0 0 1 6.9999999e-7,308.62 V 259.14 H 300 v 49.48 A 36.38,36.38 0 0 1 263.62,345 Z"
     fill="url(#A)"
     id="path9"
     style="fill:url(#A)" /><path
     id="path13"
     style="fill:url(#linearGradient2715);fill-opacity:1;stroke-width:0.840729"
     d="M 139.05664 110.88867 C 87.108778 110.88867 2.8010866 137.31883 1.6054688 174.01562 L 0 223.31055 L 0 280.59375 C 4.607739 290.90881 18.598086 298.38086 34.771484 298.38086 L 262.01172 298.38086 C 282.10382 298.38086 299.55434 286.86458 299.8125 272.66602 L 300 262.34961 L 300 165.45898 C 287.72637 133.27455 205.53828 110.88867 157.72656 110.88867 L 139.05664 110.88867 z " /><g
     class="UnoptimicedTransforms"
     id="g18821"
     transform="matrix(-1,0,0,1,300,0)"><path
       id="path18811"
       d="m 134.31034,197.52074 c -23.00683,-20.06301 -42.060298,29.44551 -128.6028469,-1.16887 -19.5250101,-6.90696 61.0807689,2.7328 73.6185109,-25.69082 12.537737,-28.42362 13.062852,-49.23509 32.011936,-40.87659 18.94909,8.35849 46.38621,88.1542 22.9724,67.73628 z"
       style="fill:url(#linearGradient4519);fill-opacity:1;fill-rule:evenodd;stroke-width:0.940175" /><path
       id="path18813"
       d="m 129.54545,194.584 c 0,30.20536 -29.27888,41.33939 -56.005316,41.33939 -26.726444,0 -50.612806,45.63921 -42.07016,17.31542 14.472179,-47.98361 20.723565,-72.55703 38.068771,-61.03271 23.50834,15.61915 60.006705,-27.82747 60.006705,2.3779 z"
       style="fill:url(#linearGradient4527);fill-rule:evenodd;fill-opacity:1" /><path
       id="path18815"
       d="M 26.13637,207.95454 2.8409127,230.11365 C -0.9013671,218.83154 21.226242,206.51714 2.5568214,200.00001 Z"
       style="fill:#1ce0fc;fill-opacity:0.949782;stroke-width:25;stroke-linejoin:bevel;paint-order:stroke fill markers;stop-color:#000000" /><path
       id="path18817"
       d="M 56.818185,211.36363 42.045457,234.6591 C 38.303184,218.97376 35.998965,214.32724 17.329546,209.09091 Z"
       style="fill:#1ce0fc;stroke-width:25;stroke-linejoin:bevel;paint-order:stroke fill markers;stop-color:#000000;fill-opacity:0.94978166" /><path
       id="path18819"
       d="m 92.045459,151.13636 -7.386364,15.34092 C 80.916822,150.79194 71.226239,154.09997 52.55682,148.86364 Z"
       style="fill:#1ce0fc;stroke-width:25;stroke-linejoin:bevel;paint-order:stroke fill markers;stop-color:#000000" /></g><path
     id="rect6881"
     style="fill:#0e44cc;fill-opacity:1;stroke-width:9.266;stroke-linecap:square;stroke-linejoin:round;stop-color:#000000;stop-opacity:1"
     class="UnoptimicedTransforms"
     d="m 0,232.41406 v 48.17969 c 7.2473637,6.09106 19.575226,17.78711 34.771484,17.78711 h 36.994141 l 49.919925,-17.89844 c -18.77807,-4.52563 -0.30608,-35.03314 -19.39592,-28.29895 -7.632824,2.69257 -47.001132,35.882 -62.775077,13.23526 C 29.153924,250.54392 23.255315,227.85412 0,232.41406 Z m 300,0.0234 c -27.62145,-5.9799 -31.00906,33.13317 -51.89082,36.6367 -18.81157,3.1562 -40.27219,-17.59717 -54.95844,-15.94058 -12.52223,1.4125 -1.13826,25.59018 -14.83629,27.3488 l 49.91993,17.89844 h 33.77734 c 20.09208,0 37.54262,-11.5163 37.80078,-25.71484 L 300,262.36328 Z" /><g
     id="g2707"><path
       id="path349"
       d="m 154.16806,85.995407 a 28.927094,29.730627 0 0 0 28.92709,29.730623 28.927094,29.730627 0 0 0 28.9271,-29.730623 28.927094,29.730627 0 0 0 -28.9271,-29.730627 28.927094,29.730627 0 0 0 -28.92709,29.730627 z"
       style="fill:#277e37;fill-opacity:1.0;fill-rule:evenodd;stroke-width:0.977509" /><path
       id="path351"
       d="m 156.87099,73.224609 c 34.5993,26.954301 45.34822,16.45097 50.75691,1.068029 1.47951,3.428239 2.2493,7.118433 2.26332,10.849786 -8e-5,15.321766 -12.47351,27.742616 -27.86065,27.743226 -15.38789,4.7e-4 -27.86251,-12.42071 -27.8626,-27.743226 4.1e-4,-4.123257 0.92382,-8.194578 2.70302,-11.917815 z"
       style="fill:#155826;fill-opacity:0.489407;stroke-width:4.84219;stroke-linecap:round;stroke-linejoin:round;stop-color:#000000;stop-opacity:1.0" /><path
       id="path353"
       d="m 173.65076,66.173592 a 12.052956,8.8388348 0 0 0 12.05296,8.838834 12.052956,8.8388348 0 0 0 12.05296,-8.838834 12.052956,8.8388348 0 0 0 -12.05296,-8.838835 12.052956,8.8388348 0 0 0 -12.05296,8.838835 z"
       style="fill:#59b738;fill-opacity:1.0;fill-rule:evenodd;stroke-width:0.807573" /></g><g
     id="g4735"
     class="UnoptimicedTransforms"><ellipse
       style="fill:#622cc7;fill-opacity:1.0;fill-rule:evenodd;stroke-width:0.977509"
       id="path2471"
       cx="116.90485"
       cy="85.995407"
       rx="28.927094"
       ry="29.730627" /><path
       id="rect3077"
       style="opacity:1;fill:#3e2090;fill-opacity:1.0;stroke-width:4.84219;stroke-linecap:round;stroke-linejoin:round;stop-color:#000000;stop-opacity:1.0"
       d="m 143.12901,73.224609 c -34.5993,26.954301 -45.34822,16.45097 -50.756912,1.068029 -1.479505,3.428239 -2.249298,7.118433 -2.263321,10.849786 8.3e-5,15.321766 12.473513,27.742616 27.860653,27.743226 15.38789,4.7e-4 27.86251,-12.42071 27.8626,-27.743226 -4.1e-4,-4.123257 -0.92382,-8.194578 -2.70302,-11.917815 z" /><ellipse
       style="fill:#924bd7;fill-opacity:1.0;fill-rule:evenodd;stroke-width:0.807573"
       id="path3707"
       cx="114.29628"
       cy="66.173592"
       rx="12.052956"
       ry="8.8388348" /></g><path
     id="rect3185"
     style="fill:url(#linearGradient20877);fill-opacity:1;stroke-width:7.37318;stroke-linecap:round;stroke-linejoin:round;stop-color:#000000;stop-opacity:1"
     d="m 127.76172,224.98828 c -0.93913,2.33701 -1.92708,4.57385 -2.90039,6.83984 C 93.680469,293.0428 57.712772,311.57874 0,276.57031 v 3.97657 c 7.7585346,7.69208 19.738058,17.83398 34.771484,17.83398 H 262.01172 c 20.34016,0 36.89381,-11.5178 35.64258,-21.09766 -57.18575,33.30765 -91.98691,12.91959 -123.625,-45.50586 -0.96583,-2.24972 -1.94675,-4.46939 -2.87891,-6.78906 z" /><path
     id="path55589"
     style="color:#000000;fill:#160bbe;fill-opacity:1;stroke-linecap:square;stroke-linejoin:round"
     d="m 189.28711,178.52344 c -2.24284,1.15299 -4.48568,2.30599 -6.72852,3.45898 4.54093,10.38484 13.09469,18.75498 23.57934,23.09123 6.51167,3.24398 13.80765,4.04342 20.64288,6.17729 6.8278,2.87456 13.92141,5.79195 19.51807,10.75499 16.14717,18.95042 23.08838,43.87706 24.89728,68.29452 0.96415,6.56514 12.52667,0.76375 7.01887,-4.47113 -6.36612,-20.45748 -8.28506,-42.95783 -21.17248,-60.81816 -2.02975,-3.79744 -9.74437,-9.23109 -6.20085,-13.16525 4.593,0.32847 9.5257,-1.51996 13.88028,-0.33818 5.33974,2.73082 10.89275,5.11249 16.09761,8.06415 9.14966,6.58545 17.27903,15.70929 18.99487,27.23236 0.38557,1.63235 0.0958,-3.59976 0.18559,-4.97441 0,-4.2499 0,-8.49979 0,-12.74968 -3.89866,-6.20951 -9.41879,-11.19483 -15.26367,-15.53125 -2.06627,-7.11258 6.74743,-7.43403 11.45171,-8.81011 3.99408,0.15329 4.16519,-2.60181 3.81196,-5.71315 0.77173,-3.50085 -0.81668,-3.72902 -3.81712,-2.13633 -22.61003,6.23512 -46.51055,9.51775 -69.87073,6.13777 -14.52867,-2.11349 -30.18471,-8.90047 -36.34685,-23.18395 -0.22608,-0.43989 -0.45216,-0.87979 -0.67824,-1.31969 z" /><path
     id="path55591"
     d="m 188.60173,163.77398 c 17.95724,-23.16944 48.66532,-18.46164 76.84646,-19.1385"
     style="fill:none;fill-opacity:1;stroke:#160bbe;stroke-width:8.366;stroke-linecap:square;stroke-linejoin:round;stroke-dasharray:none;stroke-opacity:1;stop-color:#000000" /><path
     id="path31842"
     style="fill:#16caf4;fill-opacity:0.926027;stroke-width:1.75092;stroke-linecap:round;stroke-linejoin:round;stop-color:#000000"
     class="UnoptimicedTransforms"
     d="m 216.79102,279.25781 19.21289,5.40821 c 29.54259,22.26626 -30.24805,20.73967 -26.22071,20.79687 z m -133.582036,0 7.007813,26.20508 c 4.027346,-0.0572 -55.763294,1.46939 -26.220703,-20.79687 z"
     transform="matrix(-1,0,0,0.82640164,300,48.478697)" /><path
     id="rect32546"
     style="fill:#1ce1fc;fill-opacity:0.745205;stroke-width:7;stroke-linecap:round;stroke-linejoin:round;stop-color:#000000"
     class="UnoptimicedTransforms"
     d="m 136.5,244.56445 c -25.025,13.34084 -24.47635,42.83727 -48.34375,27.29883 l -0.568359,22.75195 c 41.897459,-9.3387 54.763889,46.01738 59.150389,11.37449 1.65076,-19.44291 -4.71958,-40.52089 -10.23828,-61.42527 z m 10.23828,61.42527 c 13.9134,33.40598 20.79042,-25.15285 59.15039,-11.37449 l -0.56836,-22.75195 c -23.86739,15.53844 -23.31874,-13.95799 -48.34375,-27.29883 z"
     transform="matrix(1.0192308,0,0,1,-1.6843815,0)" /><path
     id="rect6269"
     style="fill:url(#linearGradient1190);fill-opacity:1;stroke-width:9.66851;stroke-linecap:square;stroke-linejoin:round;stop-color:#000000;stop-opacity:1"
     d="m 127.76172,224.98828 c -0.93913,2.3101 -1.92708,4.52119 -2.90039,6.76108 -16.08462,31.2139 -61.216626,63.83397 -82.173331,71.12926 4.806845,6.7233 32.055212,-2.4293 46.441104,-17.28243 16.955347,-17.50603 48.095997,-28.71813 60.055717,-15.58404 9.96341,-10.75357 49.5582,-6.09355 64.27489,14.43687 16.64818,23.22493 60.83753,24.92482 60.83753,15.53734 -27.62244,6.89468 -80.14771,-28.55713 -100.26794,-68.28719 -0.96583,-2.22382 -1.94675,-4.41793 -2.87891,-6.71089 z" /><path
     class="UnoptimicedTransforms"
     id="path5984"
     d="m 92.902344,277.11719 c -0.956037,0.87169 -1.915944,1.72689 -2.886719,2.5332 -1.150923,0.95594 -2.31371,1.86706 -3.486328,2.73047 -0.955142,0.70328 -1.922403,1.35462 -2.892578,1.99609 v 14.00391 h 9.265625 z M 41.048828,293.2207 v 5.16016 h 9.265625 v -4.27148 c -0.939391,-0.0224 -1.874642,-0.0341 -2.828125,-0.0996 -1.447992,-0.0995 -2.913158,-0.24775 -4.394531,-0.44727 -0.673456,-0.0907 -1.362455,-0.23031 -2.042969,-0.3418 z"
     style="color:#000000;fill:#0d0773;stroke-linecap:square;stroke-linejoin:round;fill-opacity:1"
     transform="matrix(-1,0,0,1,300,0)" /><path
     id="path992"
     style="fill:url(#linearGradient7753);fill-opacity:1;fill-rule:evenodd;stroke-width:0.940175"
     d="m 134.31034,197.52074 c -23.00683,-20.06301 -42.060298,29.44551 -128.6028469,-1.16887 -19.5250101,-6.90696 61.0807689,2.7328 73.6185109,-25.69082 12.537737,-28.42362 13.062852,-49.23509 32.011936,-40.87659 18.94909,8.35849 46.38621,88.1542 22.9724,67.73628 z" /><path
     id="path3958"
     style="fill:url(#linearGradient7755);fill-opacity:1;fill-rule:evenodd;stroke-width:1.25866"
     d="m 129.54545,194.584 c 0,30.20536 -29.27888,41.33939 -56.005316,41.33939 -26.726444,0 -50.612806,45.63921 -42.07016,17.31542 14.472179,-47.98361 20.723565,-72.55703 38.068771,-61.03271 23.50834,15.61915 60.006705,-27.82747 60.006705,2.3779 z" /><path
     id="path10351"
     style="fill:#1ce0fc;fill-opacity:0.949782;stroke-width:25;stroke-linejoin:bevel;paint-order:stroke fill markers;stop-color:#000000"
     d="M 26.13637,207.95454 2.8409127,230.11365 C -0.9013671,218.83154 21.226242,206.51714 2.5568214,200.00001 Z" /><path
     id="path10349"
     style="fill:#1ce0fc;fill-opacity:0.949782;stroke-width:25;stroke-linejoin:bevel;paint-order:stroke fill markers;stop-color:#000000"
     d="M 56.818185,211.36363 42.045457,234.6591 C 38.303184,218.97376 35.998965,214.32724 17.329546,209.09091 Z" /><path
     id="rect9759"
     style="fill:#1ce0fc;stroke-width:25;stroke-linejoin:bevel;paint-order:stroke fill markers;stop-color:#000000"
     d="m 92.045459,151.13636 -7.386364,15.34092 C 80.916822,150.79194 71.226239,154.09997 52.55682,148.86364 Z" /><path
     id="path5836"
     style="color:#000000;fill:#0d0773;stroke-linecap:square;stroke-linejoin:round;fill-opacity:1"
     d="m 92.902344,277.11719 c -0.956037,0.87169 -1.915944,1.72689 -2.886719,2.5332 -1.150923,0.95594 -2.31371,1.86706 -3.486328,2.73047 -0.955142,0.70328 -1.922403,1.35462 -2.892578,1.99609 v 14.00391 h 9.265625 z M 41.048828,293.2207 v 5.16016 h 9.265625 v -4.27148 c -0.939391,-0.0224 -1.874642,-0.0341 -2.828125,-0.0996 -1.447992,-0.0995 -2.913158,-0.24775 -4.394531,-0.44727 -0.673456,-0.0907 -1.362455,-0.23031 -2.042969,-0.3418 z"
     class="UnoptimicedTransforms" /><path
     id="path7687"
     style="color:#000000;fill:#160bbe;fill-opacity:1;stroke-linecap:square;stroke-linejoin:round"
     d="m 110.71289,178.52344 c -3.6379,8.44538 -10.36312,15.39517 -18.801976,19.12143 -18.28407,8.19529 -39.054826,7.54508 -58.542211,5.29258 C 22.074205,201.46237 10.854342,199.19412 0,195.71094 v 7.91015 c 4.8033795,2.40911 11.956627,1.16926 15.015788,5.90411 2.522301,5.46998 -5.5712254,7.15543 -8.008324,10.98415 C 4.3062618,223.8531 -0.53806599,226.94956 0,231.70609 v 16.03219 c 1.4495678,-10.70755 8.1992013,-19.79555 16.640358,-26.19329 4.651368,-3.93188 10.589123,-5.79986 15.888892,-8.68976 7.828883,-2.92929 19.73797,-1.58675 16.824471,3.72559 -4.20185,5.87073 -9.124088,11.33128 -12.107453,18.0173 -8.818016,17.20504 -10.171933,36.92125 -16.782372,54.86035 0.517331,5.50919 10.856059,4.73854 8.569136,-1.69653 2.059067,-23.8083 9.231592,-48.04617 25.21471,-66.32519 6.676608,-5.10182 14.504035,-8.8131 22.502378,-11.27698 15.829716,-2.67195 32.27148,-10.48636 39.41291,-25.68999 1.94742,-2.1301 0.69742,-3.23383 -1.64098,-3.98818 z" /><path
     style="fill:none;fill-opacity:1;stroke:#160bbe;stroke-width:8.366;stroke-linecap:square;stroke-linejoin:round;stroke-dasharray:none;stroke-opacity:1;stop-color:#000000"
     d="M 111.39827,163.77398 C 93.441032,140.60454 62.732954,145.31234 34.55181,144.63548"
     id="path7622" /><path
     class="UnoptimicedTransforms"
     id="path37429"
     d="m 103.95276,267.09942 v 7.40153 c 0,13.81514 9.85589,24.93774 22.09766,24.93774 12.24178,0 22.09766,-11.1226 22.09766,-24.93774 v -7.40153 z"
     style="fill:url(#radialGradient2096);fill-opacity:1;stroke:none;stroke-width:2.17421;stroke-linecap:round;stroke-linejoin:round;paint-order:stroke fill markers;stop-color:#000000"
     transform="matrix(-1,0,0,1,290.29616,2)" /><path
     id="rect6090"
     style="fill:#0d0773;fill-opacity:1;stroke-width:8.87152;stroke-linecap:square;stroke-linejoin:round;stop-color:#000000;stop-opacity:1"
     d="M 127.76172 224.98828 C 126.82259 227.32529 125.83464 229.56213 124.86133 231.82812 C 123.56409 234.37488 122.24468 236.73253 120.92969 239.13086 C 133.31691 255.15058 143.43218 272.53356 150 292.04492 C 156.3321 273.46824 165.87697 255.96342 178.39062 239.44727 C 176.93206 236.94132 175.47287 234.44315 174.0293 231.77734 C 173.06347 229.52762 172.08255 227.30795 171.15039 224.98828 L 127.76172 224.98828 z " /><path
     id="path5335"
     style="color:#000000;fill:#0d0773;fill-opacity:1;stroke-width:0.965008;stroke-linecap:square;stroke-linejoin:round"
     d="m 145.11523,298.38086 h 9.26563 v -49.55221 -4.31427 h -9.26563 v 4.31427 z" /><path
     id="rect37652"
     style="fill:#5bffdf;fill-opacity:0.816438;stroke:none;stroke-width:7;stroke-linecap:round;stroke-linejoin:round;stop-color:#000000"
     class="UnoptimicedTransforms"
     d="M 2.4121094,271.0625 C 0.74821471,278.78934 -0.56824686,286.54823 0,294.48096 c -0.07639864,12.52339 -1.0409953,26.29806 7.871429,36.42278 3.67737,6.43389 9.841466,8.49899 16.626338,6.8687 7.384859,-0.51985 14.769718,-1.0397 22.154577,-1.55955 -5.480975,-8.03411 -15.26814,-12.9431 -23.484686,-18.19819 -8.548294,-4.53538 -20.6909594,-7.05431 -20.7556463,-19.16808 -1.54451088,-9.17223 -1.080511,-18.58811 9.77e-5,-27.78412 z m 295.1757806,0 c 1.03066,12.55593 2.91155,26.66482 -3.91955,37.94777 -8.38049,6.17278 -19.32811,8.83871 -27.55299,15.73135 -2.89163,2.518 -19.17843,12.10508 -8.47388,11.77353 8.81612,0.6206 17.63225,1.2412 26.44837,1.8618 12.20081,-7.78387 17.04081,-22.65597 15.91016,-36.52192 -0.0223,-9.42504 0.58827,-18.90846 -1.91209,-28.10495 -0.16667,-0.89586 -0.33335,-1.79172 -0.50002,-2.68758 z" /><path
     id="path3883"
     style="color:#000000;fill:#060151;fill-opacity:1;stroke-width:0.97881;stroke-linecap:round;stroke-linejoin:round"
     d="m 125.5293,222.57812 c -11.63781,6.17335 -15.60411,21.70796 -25.533084,30.66879 C 85.601603,270.40405 65.341526,284.15206 42.691779,286.5413 24.526772,288.09384 11.073078,273.60816 1.1987498,260.30793 -1.2670267,257.72143 0.56276116,267.21213 0,269.97606 c 0.49411295,5.06401 -1.7921771,11.37154 3.3322714,14.7328 11.5127746,12.71176 29.9219596,16.30369 46.1064106,12.15707 14.831303,-2.68643 29.863608,-6.8135 41.582341,-16.83081 16.609867,-13.46613 29.331437,-31.13117 40.357887,-49.28707 1.59572,-3.81983 -1.90263,-8.16945 -5.84961,-8.16993 z m 48.9414,0 c -14.37877,4.56331 2.30075,19.24315 6.2061,26.52598 13.09103,18.41812 28.69394,37.3265 51.44283,43.54775 18.44026,4.22711 39.4825,9.63516 57.10506,-0.1439 5.93016,-4.2778 12.31791,-10.12191 10.77531,-17.99939 -0.379,-4.5892 0.004,-9.21138 -0.0371,-13.8152 -9.88514,16.31689 -28.73835,28.51781 -48.34624,24.77984 -27.40465,-4.89876 -48.50222,-25.4973 -63.57759,-47.74273 -4.5021,-4.81766 -6.19075,-13.91873 -13.56836,-15.15235 z" /><path
     id="path7902"
     style="fill:#060151;fill-opacity:1;stroke-width:0.840729"
     d="m 150,104.45898 c -9.52785,2.99449 -18.61648,8.03239 -28.9041,7.3932 C 87.007382,115.66036 52.58089,124.45892 23.47769,143.1675 11.531023,150.96884 0.22967845,163.3956 1.4550752,178.63336 0.87317583,199.74358 -0.28155379,220.84447 0,241.96875 0.95134018,229.37 0.55114255,216.60168 2.565673,204.13473 c 7.713522,-22.0314 26.831568,-37.4078 44.952679,-50.91286 12.93173,-9.50126 27.739146,-18.73863 44.516494,-17.16742 11.346844,-0.50567 19.295134,8.75847 21.491004,19.15187 1.44189,7.49634 2.68081,13.89709 9.83732,7.15019 8.87894,-5.14944 17.75789,-10.29887 26.63683,-15.44831 11.16276,6.47396 22.32552,12.94792 33.48828,19.42188 2.87043,-10.63535 4.83828,-25.17516 17.31979,-28.41761 15.78555,-4.51182 32.15665,1.63845 45.17017,10.55751 20.63969,13.12614 42.18943,28.01442 53.34683,50.51376 1.40793,2.9584 0.3446,-7.32151 0.67493,-10.13571 0,-7.9207 0,-15.84139 0,-23.76209 -8.65646,-18.54719 -29.084,-27.32241 -46.81873,-34.98737 -27.12979,-10.79594 -56.11528,-16.40732 -85.02741,-19.22212 -6.05129,-2.13916 -12.10257,-4.27831 -18.15386,-6.41747 z" /><g
     id="g4753"><path
       id="path4739"
       d="m 154.16806,85.995407 a 28.927094,29.730627 0 0 0 28.92709,29.730623 28.927094,29.730627 0 0 0 28.9271,-29.730623 28.927094,29.730627 0 0 0 -28.9271,-29.730627 28.927094,29.730627 0 0 0 -28.92709,29.730627 z"
       style="fill:#622cc7;fill-opacity:1.0;fill-rule:evenodd;stroke-width:0.977509" /><path
       id="path4741"
       d="m 156.87099,73.224609 c 34.5993,26.954301 45.34822,16.45097 50.75691,1.068029 1.47951,3.428239 2.2493,7.118433 2.26332,10.849786 -8e-5,15.321766 -12.47351,27.742616 -27.86065,27.743226 -15.38789,4.7e-4 -27.86251,-12.42071 -27.8626,-27.743226 4.1e-4,-4.123257 0.92382,-8.194578 2.70302,-11.917815 z"
       style="fill:#3e2090;fill-opacity:1.0;stroke-width:4.84219;stroke-linecap:round;stroke-linejoin:round;stop-color:#000000;stop-opacity:1.0" /><path
       id="path4743"
       d="m 175.65076,66.173592 a 12.052956,8.8388348 0 0 0 12.05296,8.838834 12.052956,8.8388348 0 0 0 12.05296,-8.838834 12.052956,8.8388348 0 0 0 -12.05296,-8.838835 12.052956,8.8388348 0 0 0 -12.05296,8.838835 z"
       style="fill:#924bd7;fill-opacity:1.0;fill-rule:evenodd;stroke-width:0.807573" /></g><path
     id="path9167"
     style="color:#000000;fill:#151d2f;fill-opacity:1;stroke:none;stroke-width:2.519;stroke-linecap:round;stroke-linejoin:round;stroke-dasharray:none;stroke-opacity:1;paint-order:fill markers stroke"
     class="UnoptimicedTransforms"
     d="m 124.84766,21.115234 c -3.49361,0.406004 -5.31705,4.630709 -4.56036,7.775726 1.64285,3.544399 6.93378,3.614311 8.06943,7.569113 3.52936,8.488219 5.13537,17.713315 4.9753,26.891489 -0.0683,3.927333 6.22812,3.334818 6.01758,-0.363281 0.21659,-10.599691 -1.96688,-21.177288 -6.1359,-30.91203 -1.44042,-3.901229 -2.55853,-8.713273 -6.65629,-10.672548 -0.54109,-0.214795 -1.12694,-0.322201 -1.70976,-0.288469 z m 50.30468,0 c -3.6021,0.06007 -5.63323,3.722129 -6.82042,6.670344 -2.31055,6.490341 -5.13587,12.845964 -6.32524,19.677739 -1.00205,5.301697 -1.51903,10.727168 -1.28907,16.119357 0.514,3.633277 6.61582,3.104795 5.94672,-0.724448 -0.0866,-9.510441 1.65716,-19.116582 5.62342,-27.784387 1.93125,-2.799061 6.31251,-3.107304 7.52127,-6.495039 0.48321,-3.049379 -1.25236,-7.131887 -4.65668,-7.463566 z" /><ellipse
     style="fill:#151d2f;fill-opacity:1;fill-rule:evenodd"
     id="path2052"
     cx="150"
     cy="102.79894"
     rx="51.425949"
     ry="45.801235" /><path
     id="path7317"
     style="fill:#232f39;fill-opacity:1;fill-rule:evenodd;stroke-width:0.496667"
     d="m 181.39026,86.335345 c -1.42006,12.310953 -16.14938,17.600845 -26.40999,16.374675 -10.61716,-1.26879 -24.06991,-10.605178 -22.64985,-22.916131 1.42006,-12.310952 1.9861,-23.13875 16.18911,-21.470518 14.20301,1.668234 34.29079,15.701019 32.87073,28.011974 z" /><path
     id="ellipse4755"
     style="fill:#2e5862;fill-rule:evenodd;stroke-width:0.323226;fill-opacity:1"
     d="m 172.81852,80.571952 c -0.92416,8.011852 -10.50986,11.454455 -17.18736,10.656482 -6.90955,-0.825713 -15.66447,-6.901748 -14.74031,-14.913598 0.92416,-8.01185 1.29253,-15.058476 10.53572,-13.972807 9.24318,1.08567 22.31611,10.218072 21.39195,18.229923 z" /><path
     id="rect1098"
     style="opacity:1;fill:#151d2f;fill-opacity:1;stroke-width:6.266;stroke-linecap:round;stroke-linejoin:round;stop-color:#000000;stroke:#0c092e;stroke-opacity:1;stroke-dasharray:none;stop-opacity:1"
     d="m 149.36328,118.92188 c -17.26325,-0.34609 -32.92473,13.2707 -36.34059,29.95465 -1.61997,7.26095 -0.85768,14.74595 -0.93318,22.11671 0.97327,19.22914 5.15458,38.36269 12.55142,56.14464 3.45735,8.18794 9.75735,16.33823 19.08799,17.75456 8.8628,1.66784 19.144,-0.28312 24.89437,-7.77632 7.87099,-10.13402 10.84473,-22.97869 14.11294,-35.14072 3.3997,-13.99099 4.91496,-28.42667 4.51556,-42.80797 0.61234,-15.04328 -7.94064,-30.16482 -21.6534,-36.66503 -5.00521,-2.5354 -10.64475,-3.65716 -16.23511,-3.58052 z" /><path
     id="path6138"
     style="opacity:1;fill:#232f39;fill-opacity:1;stroke:none;stroke-width:3.97746;stroke-linecap:round;stroke-linejoin:round;stroke-dasharray:none;stroke-opacity:1;stop-color:#000000;stop-opacity:1"
     d="m 149.46606,125.95561 c -12.02037,-0.27166 -22.71861,10.21609 -23.54701,22.05712 -0.97551,16.39066 1.90201,33.05159 8.51895,48.09267 2.39904,5.15985 7.08105,9.79578 13.05444,10.04858 5.80758,0.7448 12.27449,-1.45412 15.31492,-6.71051 4.6894,-7.09086 6.49143,-15.56149 8.50796,-23.69188 1.96551,-9.41187 2.7164,-19.12213 1.96697,-28.70803 -1.39225,-10.62282 -10.27345,-20.09292 -21.15572,-20.97967 -0.88395,-0.085 -1.77259,-0.12044 -2.66051,-0.10828 z" /><ellipse
     style="fill:#2e5862;fill-opacity:1;fill-rule:evenodd"
     id="path7246"
     cx="150.66196"
     cy="148.25136"
     rx="18.079435"
     ry="16.472374" /><path
     id="path2841"
     d="m 208.70475,310.60178 c -21.64782,15.30343 -41.16102,12.46266 -59.54224,0 v 31.91955 h 59.54224 z"
     style="fill:url(#linearGradient2849);fill-opacity:1;stroke-width:1.7121;stroke-linecap:round;stroke-linejoin:round;paint-order:stroke fill markers;stop-color:#000000" /><g
     id="g2835"
     class="UnoptimicedTransforms"><path
       id="path2818"
       style="fill:url(#linearGradient2820);fill-opacity:1;stroke-width:1.40041;stroke-linecap:round;stroke-linejoin:round;paint-order:stroke fill markers;stop-color:#000000"
       d="m 46.588145,309.79744 c 14.483185,15.30343 27.538231,12.46266 39.83594,0 v 31.91955 h -39.83594 z" /><path
       id="rect2154"
       style="fill:url(#linearGradient2816);stroke-width:1.7121;stroke-linecap:round;stroke-linejoin:round;paint-order:stroke fill markers;stop-color:#000000;fill-opacity:1"
       d="m 89.62027,310.60178 c 21.64782,15.30343 41.16102,12.46266 59.54224,0 v 31.91955 H 89.62027 Z" /><path
       id="path2828"
       style="fill:url(#linearGradient2830);fill-opacity:1;stroke-width:1.40041;stroke-linecap:round;stroke-linejoin:round;paint-order:stroke fill markers;stop-color:#000000"
       d="M -0.76057643,307.94899 C 13.722608,323.25242 33.887072,319.27414 46.184781,306.81148 v 31.91955 L 11.60981,332.04818 Z" /></g><path
     id="path2839"
     d="m 251.73687,309.79744 c -14.48318,15.30343 -27.53823,12.46266 -39.83594,0 v 31.91955 h 39.83594 z"
     style="fill:url(#linearGradient2847);fill-opacity:1;stroke-width:1.40041;stroke-linecap:round;stroke-linejoin:round;paint-order:stroke fill markers;stop-color:#000000" /><path
     id="path2843"
     d="m 299.0856,307.94899 c -14.48319,15.30343 -34.64765,11.32515 -46.94536,-1.13751 v 31.91955 l 34.57497,-6.68285 z"
     style="fill:url(#linearGradient2851);fill-opacity:1;stroke-width:1.40041;stroke-linecap:round;stroke-linejoin:round;paint-order:stroke fill markers;stop-color:#000000" /><path
     id="path4152"
     style="color:#000000;fill:#0a0557;stroke-linecap:square;stroke-linejoin:round;fill-opacity:1"
     class="UnoptimicedTransforms"
     d="M 41.048828 298.38086 L 41.048828 328.97656 L 41.048828 333.60938 L 50.314453 333.60938 L 50.314453 328.97656 L 50.314453 298.38086 L 41.048828 298.38086 z M 83.636719 298.38086 L 83.636719 328.97656 L 83.636719 333.60938 L 92.902344 333.60938 L 92.902344 328.97656 L 92.902344 298.38086 L 83.636719 298.38086 z M 207.09766 298.38086 L 207.09766 328.97656 L 207.09766 333.60938 L 216.36328 333.60938 L 216.36328 328.97656 L 216.36328 298.38086 L 207.09766 298.38086 z M 249.68555 298.38086 L 249.68555 328.97656 L 249.68555 333.60938 L 258.95117 333.60938 L 258.95117 328.97656 L 258.95117 298.38086 L 249.68555 298.38086 z " /><path
     id="path347"
     style="fill:#0a0557;fill-opacity:1"
     class="UnoptimicedTransforms"
     d="m 0,294.61914 c -0.67110067,14.17798 -0.24521663,30.47012 11.360978,40.53331 10.034746,9.85804 24.849095,10.68039 38.073463,9.84496 72.638449,-0.0871 145.283869,0.19103 217.917939,-0.14312 20.12711,-1.52662 35.42798,-22.01497 32.64762,-41.73117 -0.0762,-3.81769 0.19798,-12.91364 -0.24859,-3.54325 -1.80159,16.2064 -15.97265,32.91864 -33.36482,30.99323 -6.47779,-2.54351 -10.77456,-20.67554 -17.02441,-7.41187 -7.18898,9.23559 -22.73745,10.89307 -29.33148,0.15312 -3.4108,-11.607 -11.24669,-9.79727 -16.83144,-1.23723 -9.64105,9.12475 -22.88706,18.76796 -36.8446,13.66615 -9.23382,-2.20317 -16.27394,-13.92008 -24.20128,-3.70417 -10.42591,6.44006 -24.81862,7.16151 -34.40962,-1.27063 -8.622117,-2.84818 -16.687682,-21.6457 -25.010354,-11.23931 -4.949384,9.39747 -18.117764,15.83332 -27.128807,8.04188 C 51.643883,322.65215 43.016998,312.20747 40.45843,324.33326 32.968651,336.17704 16.428855,329.22713 9.5891065,320.30147 3.3914401,313.30067 -0.03279814,303.95438 0,294.61914 Z"
     transform="matrix(1,0,0,0.98409996,0,5.4879867)" /><path
     id="path4150"
     style="color:#000000;fill:#0a0557;stroke-linecap:square;stroke-linejoin:round;fill-opacity:1"
     d="M 145.11523 298.38086 L 145.11523 328.97656 L 145.11523 333.60938 L 154.38086 333.60938 L 154.38086 328.97656 L 154.38086 298.38086 L 145.11523 298.38086 z " /><path
     id="rect1263"
     style="fill:url(#radialGradient37432);fill-opacity:1;stroke:none;stroke-width:2.17421;stroke-linecap:round;stroke-linejoin:round;paint-order:stroke fill markers;stop-color:#000000"
     d="m 103.95276,267.09942 v 7.40153 c 0,13.81514 9.85589,24.93774 22.09766,24.93774 12.24178,0 22.09766,-11.1226 22.09766,-24.93774 v -7.40153 z"
     class="UnoptimicedTransforms"
     transform="translate(-6,2)" /><g
     id="g31830"
     class="UnoptimicedTransforms"><path
       style="fill:none;fill-opacity:0.958904;stroke:#0d0773;stroke-width:7;stroke-linecap:round;stroke-linejoin:round;stroke-dasharray:none;stroke-opacity:1;stop-color:#000000"
       d="m 142.75711,255.93904 c -16.79709,14.29492 -32.49534,29.17411 -53.761491,31.55152"
       id="path31621" /><path
       style="fill:none;fill-opacity:0.958904;stroke:#0d0773;stroke-width:7;stroke-linecap:round;stroke-linejoin:round;stroke-dasharray:none;stroke-opacity:1;stop-color:#000000"
       d="m 147.87589,287.78923 c -10.49527,20.71235 -36.02543,7.6126 -58.547103,4.3026"
       id="path31824" /></g><g
     class="UnoptimicedTransforms"
     id="g31838"
     transform="matrix(-1,0,0,1,300,0)"><path
       id="path31834"
       d="m 142.75711,255.93904 c -16.79709,14.29492 -32.49534,29.17411 -53.761491,31.55152"
       style="fill:none;fill-opacity:0.958904;stroke:#0d0773;stroke-width:7;stroke-linecap:round;stroke-linejoin:round;stroke-dasharray:none;stroke-opacity:1;stop-color:#000000" /><path
       id="path31836"
       d="m 147.87589,287.78923 c -10.49527,20.71235 -36.02543,7.6126 -58.547103,4.3026"
       style="fill:none;fill-opacity:0.958904;stroke:#0d0773;stroke-width:7;stroke-linecap:round;stroke-linejoin:round;stroke-dasharray:none;stroke-opacity:1;stop-color:#000000" /></g></svg>
