<svg id="Layer_1" data-name="Layer 1" xmlns="http://www.w3.org/2000/svg" xmlns:xlink="http://www.w3.org/1999/xlink" viewBox="0 0 300 345"><defs><linearGradient id="linear-gradient" x1="150" y1="356.11" x2="150" y2="161.16" gradientUnits="userSpaceOnUse"><stop offset="0" stop-color="#9dc6ea"/><stop offset="1" stop-color="#416eb5"/></linearGradient><linearGradient id="linear-gradient-2" x1="150.09" y1="289.49" x2="150.09" y2="8.25" gradientUnits="userSpaceOnUse"><stop offset="0" stop-color="#662d91"/><stop offset="0.04" stop-color="#5f3597"/><stop offset="0.1" stop-color="#4d4da8"/><stop offset="0.17" stop-color="#2f72c3"/><stop offset="0.25" stop-color="#06a6e9"/><stop offset="0.27" stop-color="#00aeef"/><stop offset="0.33" stop-color="#38b7a9"/><stop offset="0.4" stop-color="#75c25d"/><stop offset="0.43" stop-color="#8dc63f"/><stop offset="0.47" stop-color="#aec630"/><stop offset="0.52" stop-color="#d9c71d"/><stop offset="0.57" stop-color="#f3c710"/><stop offset="0.59" stop-color="#fdc70c"/><stop offset="0.65" stop-color="#fcc30e"/><stop offset="0.71" stop-color="#fab814"/><stop offset="0.77" stop-color="#f7a41e"/><stop offset="0.82" stop-color="#f3892b"/><stop offset="0.88" stop-color="#ed683c"/><stop offset="1" stop-color="#cf1f3d"/></linearGradient></defs><path d="M263.62,345H36.38A36.38,36.38,0,0,1,0,308.62V259.14H300v49.48A36.38,36.38,0,0,1,263.62,345Z" fill="url(#linear-gradient)"/><rect y="45" width="300" height="253.39" rx="36.38" fill="#dae6f5"/><path d="M200.9,274c14.76-16.58,5.68-115.27-51-115.27S84.55,257.74,99,274,186.15,290.55,200.9,274Z" fill="#ecf7fe"/><path d="M127.65,258.41s2.7,17.13,22.61,17.13S172.35,257,172.35,257l-23.62-13.15Z" fill="#f38db6"/><path d="M127.87,255s0,22.09,22.13,22.09S172.13,255,172.13,255" fill="none" stroke="#15141a" stroke-linecap="round" stroke-miterlimit="10" stroke-width="12"/><path d="M185.24,250.05C163.62,265.65,150,239.57,150,239.57h0s-13.61,26.08-35.22,10.48" fill="none" stroke="#15141a" stroke-linecap="round" stroke-miterlimit="10" stroke-width="12"/><path d="M115.79,216.66c0,14.52,19.87,28.14,34.21,28.14s34.21-15.41,34.21-28.14S115.79,202.14,115.79,216.66Z" fill="#15141a"/><path d="M290.94,239.76a7.46,7.46,0,0,1-5,12.57v0a9.2,9.2,0,0,1-15.1,7.07,31.3,31.3,0,0,0,2.43,16s-2.87-7,0,.09,0,15.69-8.2,15.69-11-8.94-7.61-16.8a24.61,24.61,0,0,0,2.26-12.17c-.51.13-1,.28-1.54.41a69.33,69.33,0,0,1-10.87,1.83,21,21,0,0,0,1.73,8.81s0,0,0,.05a6,6,0,1,1-10.55-.62,19.49,19.49,0,0,0,1.39-8.09c-1.56-.08-3.08-.22-4.55-.44-.19.73-.4,1.48-.61,2.22a25.42,25.42,0,0,0,1.32,16.92l0,.08a7.38,7.38,0,0,1,.69,3.12,7.52,7.52,0,1,1-13.94-3.91,25.29,25.29,0,0,0,.81-16.19c-.64-2.37-1.25-4.73-1.6-6.67-14.34-7.85-22.77-24.33-27.64-44.11-8-32.66-.61-62.57,34.66-71.25s55.74,14.34,63.78,47C297.29,209.5,297.83,226.56,290.94,239.76ZM71.14,144.39c-35.27-8.69-55.74,14.34-63.78,47-4.47,18.11-5,35.17,1.89,48.37a7.46,7.46,0,0,0,5,12.57v0a9.18,9.18,0,0,0,2.62,6.43c-3.75,3.47-4.76,8.91-2.14,13S22.44,277,27,275.24a1.34,1.34,0,0,0-.07.18l.07-.19h0l-.12.28c-2.9,7.11,0,15.69,8.21,15.69s11-8.94,7.61-16.8a24.74,24.74,0,0,1-2.27-12.17c.52.13,1,.28,1.55.41a69.33,69.33,0,0,0,10.87,1.83,21.19,21.19,0,0,1-1.73,8.81s0,0,0,.05a6,6,0,1,0,10.54-.62,19.64,19.64,0,0,1-1.38-8.09c1.56-.08,3.08-.22,4.54-.44.2.73.41,1.48.62,2.22a25.42,25.42,0,0,1-1.32,16.92l0,.08a7.52,7.52,0,1,0,14.36,3.12,7.46,7.46,0,0,0-1.11-3.91,24.74,24.74,0,0,1-1.54-12.43A11.2,11.2,0,0,0,86,269c5.06-3.28,6.74-9.65,3.77-14.23a9,9,0,0,0-2.09-2.26c8.75-8.88,14.47-21.93,18.15-36.87C113.84,183,106.41,153.07,71.14,144.39ZM279,265.8a3.23,3.23,0,1,0,3.24,3.23A3.23,3.23,0,0,0,279,265.8Zm-62.77-.66c-3.52-2.2-8-1.4-10,1.78s-.77,7.55,2.74,9.75,8,1.4,10-1.78S219.77,267.34,216.26,265.14Zm-188.51-118A8.18,8.18,0,0,0,31.31,142a10.21,10.21,0,0,0,2.5.55c5.27.48,9.88-3,10.28-7.82s-3.55-9.09-8.82-9.57-9.89,3-10.29,7.82a8.82,8.82,0,0,0,0,.89,8.16,8.16,0,0,0-4.86,1.35c-3.59,2.35-4.79,6.92-2.68,10.21S24.15,149.44,27.75,147.09ZM62.76,0A40.07,40.07,0,0,0,22.68,40.08c0,22.13,17.94,30,40.08,30s40.07-7.9,40.07-30A40.07,40.07,0,0,0,62.76,0ZM237.24,0a40.07,40.07,0,0,0-40.07,40.08c0,22.13,17.94,30,40.07,30s40.08-7.9,40.08-30A40.07,40.07,0,0,0,237.24,0Z" fill="url(#linear-gradient-2)"/><circle cx="242.58" cy="189.94" r="36.45" fill="#15141a"/><circle cx="57.42" cy="189.94" r="36.45" fill="#15141a"/><circle cx="242.58" cy="200.06" r="36.45" fill="#fff"/><circle cx="57.42" cy="200.06" r="36.45" fill="#fff"/><path d="M89.18,194.77A13.21,13.21,0,0,1,70,176.86a23,23,0,1,0,19.19,17.91Zm-32,19.76a5.46,5.46,0,1,1,5.45-5.45A5.45,5.45,0,0,1,57.14,214.53Z" fill="#15141a"/><path d="M255.63,194.64a13.22,13.22,0,0,1-19.07-17.77,24.25,24.25,0,0,0-3.32-.24,23,23,0,1,0,22.39,18Zm-32.22,19.89a5.46,5.46,0,1,1,5.46-5.45A5.45,5.45,0,0,1,223.41,214.53Z" fill="#15141a"/><path d="M82.38,48.58c0,12.28-37.68,12.28-37.68,0s8.43-22.24,18.84-22.24S82.38,36.29,82.38,48.58Z" fill="#15141a"/><path d="M255.3,48.58c0,12.28-37.68,12.28-37.68,0s8.44-22.24,18.84-22.24S255.3,36.29,255.3,48.58Z" fill="#15141a"/></svg>