<?xml version="1.0" encoding="UTF-8" standalone="no"?>
<svg
   viewBox="0 0 300 345"
   version="1.1"
   id="svg60941"
   sodipodi:docname="autumnSquirrel.svg"
   xml:space="preserve"
   inkscape:version="1.4.2 (ebf0e940, 2025-05-08)"
   inkscape:export-filename="autumnSquirrel.svg"
   inkscape:export-xdpi="96"
   inkscape:export-ydpi="96"
   xmlns:inkscape="http://www.inkscape.org/namespaces/inkscape"
   xmlns:sodipodi="http://sodipodi.sourceforge.net/DTD/sodipodi-0.dtd"
   xmlns:xlink="http://www.w3.org/1999/xlink"
   xmlns="http://www.w3.org/2000/svg"
   xmlns:svg="http://www.w3.org/2000/svg"><sodipodi:namedview
     id="namedview60943"
     pagecolor="#505050"
     bordercolor="#ffffff"
     borderopacity="1"
     inkscape:showpageshadow="0"
     inkscape:pageopacity="0"
     inkscape:pagecheckerboard="1"
     inkscape:deskcolor="#505050"
     showgrid="false"
     inkscape:zoom="2.2593371"
     inkscape:cx="137.651"
     inkscape:cy="215.10735"
     inkscape:window-width="1366"
     inkscape:window-height="705"
     inkscape:window-x="-8"
     inkscape:window-y="-8"
     inkscape:window-maximized="1"
     inkscape:current-layer="svg60941"
     showguides="false" /><defs
     id="defs60891"><linearGradient
       id="linearGradient124"
       inkscape:collect="always"><stop
         style="stop-color:#b26052;stop-opacity:1;"
         offset="0"
         id="stop124" /><stop
         style="stop-color:#883124;stop-opacity:1;"
         offset="1"
         id="stop125" /></linearGradient><inkscape:path-effect
       effect="fillet_chamfer"
       id="path-effect123"
       is_visible="true"
       lpeversion="1"
       nodesatellites_param="F,0,0,1,0,0,0,1 @ F,0,0,1,0,0,0,1 @ F,0,0,1,0,5.7713994,0,1 @ F,0,0,1,0,0,0,1 @ F,0,0,1,0,0,0,1"
       radius="0"
       unit="px"
       method="auto"
       mode="F"
       chamfer_steps="1"
       flexible="false"
       use_knot_distance="true"
       apply_no_radius="true"
       apply_with_radius="true"
       only_selected="false"
       hide_knots="false" /><inkscape:path-effect
       effect="fillet_chamfer"
       id="path-effect121"
       is_visible="true"
       lpeversion="1"
       nodesatellites_param="F,0,0,1,0,0,0,1 @ F,0,0,1,0,4.0428146,0,1 @ F,0,0,1,0,0,0,1 @ F,0,0,1,0,9.5314977,0,1 @ F,0,0,1,0,0,0,1 @ F,0,0,1,0,6.6369164,0,1 @ F,0,0,1,0,0,0,1"
       radius="0"
       unit="px"
       method="auto"
       mode="F"
       chamfer_steps="1"
       flexible="false"
       use_knot_distance="true"
       apply_no_radius="true"
       apply_with_radius="true"
       only_selected="false"
       hide_knots="false" /><inkscape:path-effect
       effect="fillet_chamfer"
       id="path-effect82"
       is_visible="true"
       lpeversion="1"
       nodesatellites_param="F,0,0,1,0,0,0,1 @ F,0,0,1,0,0,0,1 @ F,0,0,1,0,5.7713994,0,1 @ F,0,0,1,0,0,0,1 @ F,0,0,1,0,0,0,1"
       radius="0"
       unit="px"
       method="auto"
       mode="F"
       chamfer_steps="1"
       flexible="false"
       use_knot_distance="true"
       apply_no_radius="true"
       apply_with_radius="true"
       only_selected="false"
       hide_knots="false" /><inkscape:path-effect
       effect="fillet_chamfer"
       id="path-effect80"
       is_visible="true"
       lpeversion="1"
       nodesatellites_param="F,0,0,1,0,0,0,1 @ F,0,0,1,0,4.0428146,0,1 @ F,0,0,1,0,0,0,1 @ F,0,0,1,0,9.5314977,0,1 @ F,0,0,1,0,0,0,1 @ F,0,0,1,0,6.6369164,0,1 @ F,0,0,1,0,0,0,1"
       radius="0"
       unit="px"
       method="auto"
       mode="F"
       chamfer_steps="1"
       flexible="false"
       use_knot_distance="true"
       apply_no_radius="true"
       apply_with_radius="true"
       only_selected="false"
       hide_knots="false" /><linearGradient
       id="linearGradient101"
       inkscape:collect="always"><stop
         style="stop-color:#e8b18d;stop-opacity:1;"
         offset="0"
         id="stop101" /><stop
         style="stop-color:#cc8165;stop-opacity:1;"
         offset="1"
         id="stop102" /></linearGradient><linearGradient
       id="linearGradient100"
       x1="150"
       y1="356.10999"
       x2="150"
       y2="161.16"
       gradientUnits="userSpaceOnUse"
       spreadMethod="pad"><stop
         offset="0"
         stop-color="#f49849"
         id="stop99"
         style="stop-color:#e8b18d;stop-opacity:1;" /><stop
         offset="0.69"
         stop-color="#d25927"
         id="stop100"
         style="stop-color:#883124;stop-opacity:1;" /></linearGradient><inkscape:path-effect
       effect="fillet_chamfer"
       id="path-effect14"
       is_visible="true"
       lpeversion="1"
       nodesatellites_param="F,0,0,1,0,0,0,1 @ F,0,0,1,0,4.0428146,0,1 @ F,0,0,1,0,0,0,1 @ F,0,0,1,0,9.5314977,0,1 @ F,0,0,1,0,0,0,1 @ F,0,0,1,0,6.6369164,0,1 @ F,0,0,1,0,0,0,1"
       radius="0"
       unit="px"
       method="auto"
       mode="F"
       chamfer_steps="1"
       flexible="false"
       use_knot_distance="true"
       apply_no_radius="true"
       apply_with_radius="true"
       only_selected="false"
       hide_knots="false" /><inkscape:path-effect
       effect="fillet_chamfer"
       id="path-effect13"
       is_visible="true"
       lpeversion="1"
       nodesatellites_param="F,0,0,1,0,0,0,1 @ F,0,0,1,0,0,0,1 @ F,0,0,1,0,5.7713994,0,1 @ F,0,0,1,0,0,0,1 @ F,0,0,1,0,0,0,1"
       radius="0"
       unit="px"
       method="auto"
       mode="F"
       chamfer_steps="1"
       flexible="false"
       use_knot_distance="true"
       apply_no_radius="true"
       apply_with_radius="true"
       only_selected="false"
       hide_knots="false" /><linearGradient
       id="A-1"
       x1="150"
       y1="356.10999"
       x2="150"
       y2="161.16"
       gradientUnits="userSpaceOnUse"
       xlink:href="#linearGradient100"><stop
         offset="0"
         stop-color="#f49849"
         id="stop1"
         style="stop-color:#b25f51;stop-opacity:1;" /><stop
         offset="0.69"
         stop-color="#d25927"
         id="stop2"
         style="stop-color:#883124;stop-opacity:1;" /></linearGradient><linearGradient
       inkscape:collect="always"
       xlink:href="#linearGradient101"
       id="linearGradient82"
       gradientUnits="userSpaceOnUse"
       x1="150.61502"
       y1="336.23914"
       x2="149.92383"
       y2="278.04431" /><linearGradient
       inkscape:collect="always"
       xlink:href="#linearGradient124"
       id="linearGradient125"
       x1="152.19041"
       y1="334.04791"
       x2="150.00772"
       y2="276.05566"
       gradientUnits="userSpaceOnUse" /></defs><path
     id="rect124"
     style="fill:url(#linearGradient125);stroke-width:12.5093;stroke-linejoin:round;paint-order:stroke fill markers"
     d="m 0,259.14062 v 49.47852 C 0,328.71126 16.28874,345 36.380859,345 H 263.61914 C 283.71126,345 300,328.71126 300,308.61914 v -49.47852 z"
     sodipodi:nodetypes="csssscc" /><g
     id="g10"
     transform="matrix(-1.5035379,-0.20502255,0.20502255,-1.5035379,771.55071,241.73524)"><path
       style="fill:#e05316;fill-opacity:1;stroke:none;stroke-width:2.3;stroke-linejoin:round;stroke-dasharray:none;stroke-opacity:1;stop-color:#000000"
       d="m 409.68053,32.008353 c 2.36994,-0.122886 3.12167,1.120912 1.69717,3.020246 l -6.58058,8.774115 c -1.36307,1.817426 -0.78939,2.441717 1.44228,2.071259 4.3529,-0.722584 10.10459,-0.213466 16.26715,0.04432 2.28288,0.09549 3.05226,1.622511 1.71607,3.478322 l -3.92313,5.448794 17.08905,4.206534 c 3.21123,0.790457 3.43871,2.674034 0.48029,4.151999 -14.17432,7.08118 -27.94553,12.23307 -42.43896,3.19879 -1.6885,-1.0525 -2.70167,-0.45201 -2.37446,1.51126 l 1.47724,8.86342 c 0.41376,2.48258 -1.21203,3.9269 -3.58626,3.0925 -13.31066,-4.67786 -24.06257,-21.574134 -19.62514,-33.833539 4.63376,-12.801798 24.89983,-13.50467 38.35928,-14.02802 z"
       id="path2"
       sodipodi:nodetypes="cccccccccssssac" /><path
       style="fill:#c63500;fill-opacity:1;stroke:none;stroke-width:2.3;stroke-linejoin:round;stroke-dasharray:none;stroke-opacity:1;stop-color:#000000"
       d="m 422.53037,63.804862 c -6.52176,5.88079 -26.15426,-9.265084 -35.11702,-3.927759 -3.0241,1.800852 0.20834,8.350299 -2.78461,8.559109 -7.55899,0.52736 -12.47386,-13.28047 -9.96628,-20.430889 2.31132,-6.590776 12.14148,-10.587001 18.93594,-8.969658 5.52722,1.315692 6.22973,9.66673 10.4646,13.454488 5.38098,4.812859 23.05661,7.176521 18.46737,11.314709 z"
       id="path7"
       sodipodi:nodetypes="ssaaaas" /><path
       style="color:#000000;fill:#7c1604;fill-opacity:1;stroke-linejoin:round;-inkscape-stroke:none"
       d="M 365.60111,34.648939 364,37.303829 c 9.57494,11.07222 43.21777,22.60477 44.21709,21.21411 -0.45282,0.77886 -32.42598,-12.0694 -42.61598,-23.869 z"
       id="path9"
       sodipodi:nodetypes="cccc" /><path
       style="color:#000000;fill:#7c1604;fill-opacity:1;stroke-width:1.6117;stroke-linejoin:round;-inkscape-stroke:none"
       d="m 378.85739,45.568538 2.73246,2.43668 c 4.59568,-2.942252 10.53837,-3.599374 16.02891,-5.023433 -6.42266,0.377521 -12.93601,0.494747 -18.76137,2.586753 z"
       id="path10"
       sodipodi:nodetypes="cccc" /></g><g
     id="g17"><path
       style="fill:#9e4a3d;fill-opacity:1;stroke-width:11.4;stroke-linejoin:round;paint-order:stroke fill markers"
       d="M 17.58794,157.53769 13.296701,82.679404 a 1.4156542,1.4156542 157.42063 0 1 2.467387,-1.026032 l 3.833902,4.276276 c -3.472464,-34.389509 -0.07117,-44.408407 2.619328,-56.947425 1.104038,-5.145352 4.776772,-6.477105 8.72313,-2.993753 10.000526,8.827213 19.964893,17.705048 24.58719,34.061781 L 54.504434,46.066457 c -0.26749,-3.655695 1.812187,-4.716701 4.326915,-2.052531 14.428291,15.285716 21.106031,37.725787 29.862118,58.247384 z"
       id="path11"
       sodipodi:nodetypes="cccccccc"
       inkscape:path-effect="#path-effect121"
       inkscape:original-d="M 17.58794,157.53769 13.065327,78.643216 19.59799,85.929648 C 15.326462,43.626619 21.456182,38.200744 23.869347,19.59799 35.898336,31.015362 49.805851,39.802797 55.527638,60.050251 L 54.020101,39.447236 c 17.860498,15.120139 24.998141,40.138298 34.673366,62.814074 z" /><path
       style="fill:#833124;fill-opacity:1;stroke-width:11.4;stroke-linejoin:round;paint-order:stroke fill markers"
       d="M 85.545768,96.80749 77.749192,91.826344 66.920614,70.60233 66.704042,88.57777 77.965763,105.68692 Z"
       id="path12" /><path
       style="fill:#833124;fill-opacity:1;stroke-width:10.2038;stroke-linejoin:round;paint-order:stroke fill markers"
       d="M 18.791583,156.38388 C 12.805068,98.911019 22.665953,72.590089 34.104219,47.23046 34.682534,44.837156 31.452437,35.892245 32.678958,37.838576 l 13.89685,21.439289 C 60.465007,70.37784 72.121291,84.806372 79.003593,101.06196 Z"
       id="path13"
       sodipodi:nodetypes="cccccc" /><path
       style="fill:#b25f51;fill-opacity:1;stroke-width:11.4;stroke-linejoin:round;paint-order:stroke fill markers"
       d="m 15.095931,163.03605 c 4.430182,-31.19826 3.514944,-62.39651 15.095931,-93.594768 l 4.316876,-13.87429 a 3.090706,3.090706 169.11313 0 1 5.351154,-1.029198 L 50.31977,67.428491 c 17.608225,10.92869 23.982715,28.276657 32.70785,44.281399 z"
       id="path14"
       sodipodi:nodetypes="cccccc"
       inkscape:path-effect="#path-effect123"
       inkscape:original-d="m 15.095931,163.03605 c 4.430182,-31.19826 3.514944,-62.39651 15.095931,-93.594768 l 6.031521,-19.385101 14.096387,17.37231 c 17.608225,10.92869 23.982715,28.276657 32.70785,44.281399 z" /><path
       style="fill:#832718;fill-opacity:0.459119;stroke-width:11.4;stroke-linejoin:round;paint-order:stroke fill markers"
       d="M 46.335079,97.382199 46.073298,86.649215 44.080652,76.951672 41.210772,61.22245 c 2.892595,2.11318 6.732786,10.532474 9.559086,12.705921 9.762267,7.507262 18.593138,15.861247 22.790351,28.427649 l -7.591623,10.47121 z"
       id="path15"
       sodipodi:nodetypes="ccccsccc" /><path
       style="fill:#883124;fill-opacity:1;stroke-width:11.4;stroke-linejoin:round;paint-order:stroke fill markers"
       d="m 42.211055,127.88945 c -1.160088,-0.23202 -1.101841,-39.071535 6.281408,-38.442214 7.994231,0.6814 17.839195,22.864324 17.839195,22.864324 z"
       id="path16"
       sodipodi:nodetypes="cscc" /><path
       style="fill:#833124;fill-opacity:1;stroke-width:11.4;stroke-linejoin:round;paint-order:stroke fill markers"
       d="m 16.739131,147.39131 c 0,0 -1.083628,-27.73793 1.304347,-41.30435 2.458983,-13.969821 13.26087,-40.434786 13.26087,-40.434786 0,0 -6.902087,27.110252 -9.347826,40.869566 -2.40352,13.5218 -5.217391,40.86957 -5.217391,40.86957 z"
       id="path17"
       sodipodi:nodetypes="cacac" /></g><g
     id="g26"
     transform="matrix(-1,0,0,1,300,0)"><path
       id="path18"
       d="M 17.58794,157.53769 13.296701,82.679404 a 1.4156542,1.4156542 0 0 1 2.467387,-1.026032 l 3.833902,4.276276 c -3.472464,-34.389509 -0.07117,-44.408407 2.619328,-56.947425 1.104038,-5.145352 4.776772,-6.477105 8.72313,-2.993753 10.000526,8.827213 19.964893,17.705048 24.58719,34.061781 L 54.504434,46.066457 c -0.26749,-3.655695 1.812187,-4.716701 4.326915,-2.052531 14.428291,15.285716 21.106031,37.725787 29.862118,58.247384 z"
       style="fill:#9e4a3d;fill-opacity:1;stroke-width:11.4;stroke-linejoin:round;paint-order:stroke fill markers" /><path
       id="path19"
       d="M 85.545768,96.80749 77.749192,91.826344 66.920614,70.60233 66.704042,88.57777 77.965763,105.68692 Z"
       style="opacity:1;fill:#833124;fill-opacity:1;stroke-width:11.4;stroke-linejoin:round;paint-order:stroke fill markers" /><path
       transform="matrix(0.78879038,0,0,1.015673,6.884058,-9.2074331)"
       id="path20"
       d="M 15.095931,163.03605 C 7.5064424,106.45006 20.007717,80.535292 34.508738,55.566992 35.241905,53.210619 31.146905,44.403738 32.701844,46.320035 L 50.31977,67.428491 c 17.608225,10.92869 32.385641,25.134573 41.110776,41.139319 z"
       style="fill:#833124;fill-opacity:1;stroke-width:11.4;stroke-linejoin:round;paint-order:stroke fill markers" /><path
       id="path21"
       d="m 15.095931,163.03605 c 4.430182,-31.19826 3.514944,-62.39651 15.095931,-93.594768 l 4.316876,-13.87429 a 3.090706,3.090706 0 0 1 5.351154,-1.029198 L 50.31977,67.428491 c 17.608225,10.92869 23.982715,28.276657 32.70785,44.281399 z"
       style="fill:#b25f51;fill-opacity:1;stroke-width:11.4;stroke-linejoin:round;paint-order:stroke fill markers" /><path
       id="path23"
       d="M 46.335079,97.382199 46.073298,86.649215 44.080652,76.951672 41.210772,61.22245 c 2.892595,2.11318 6.732786,10.532474 9.559086,12.705921 9.762267,7.507262 18.593138,15.861247 22.790351,28.427649 l -7.591623,10.47121 z"
       style="opacity:1;fill:#832718;fill-opacity:0.459119;stroke-width:11.4;stroke-linejoin:round;paint-order:stroke fill markers" /><path
       id="path25"
       d="m 42.211055,127.88945 c -1.160088,-0.23202 -1.101841,-39.071535 6.281408,-38.442214 7.994231,0.6814 17.839195,22.864324 17.839195,22.864324 z"
       style="fill:#883124;fill-opacity:1;stroke-width:11.4;stroke-linejoin:round;paint-order:stroke fill markers" /><path
       id="path26"
       d="m 16.739131,147.39131 c 0,0 -1.083628,-27.73793 1.304347,-41.30435 2.458983,-13.969821 13.26087,-40.434786 13.26087,-40.434786 0,0 -6.902087,27.110252 -9.347826,40.869566 -2.40352,13.5218 -5.217391,40.86957 -5.217391,40.86957 z"
       style="opacity:1;fill:#833124;fill-opacity:1;stroke-width:11.4;stroke-linejoin:round;paint-order:stroke fill markers" /></g><path
     id="rect123"
     style="fill:#b26052;stroke-width:11.4;stroke-linejoin:round;paint-order:stroke fill markers;fill-opacity:1"
     d="M 150 83.816406 C 57.42 83.816406 0 137.35727 0 220.19727 L 0 262 C 0 282.09212 16.28874 298.38086 36.380859 298.38086 L 263.61914 298.38086 C 283.71126 298.38086 300 282.09212 300 262 L 300 220.19727 C 300 137.35727 242.58 83.816406 150 83.816406 z " /><path
     id="path81"
     style="fill:#e8b18d;fill-opacity:1;stroke-width:11.4;stroke-linejoin:round;paint-order:stroke fill markers"
     d="m 61.417969,166.71484 c -32.299063,-2.7e-4 -58.4826922,26.18337 -58.4824221,58.48243 -5.366e-4,32.01891 25.7471741,58.08526 57.7636721,58.47851 -2.331127,4.47616 -3.020982,9.26557 -3.398438,15.27734 8.7658,0.0341 17.531075,0.19402 26.296875,-3.71484 0,0 0.648947,0.87633 1.597656,2.31445 -4.097768,3.59482 4.042574,4.27317 1.516552,9.43975 -0.72757,1.48813 0.119492,2.86167 1.769532,3.01172 5.21118,0.47389 -1.167364,4.42365 3.844776,2.90791 0.44869,2.43249 0.334402,4.67125 -0.736328,6.36133 -4.38353,6.91916 -24.39453,2.94922 -24.394532,2.94922 l -10.953124,-4.44727 c -2.269732,4.8332 -3.754935,9.6668 -2.802735,14.5 -11.073147,-7.32205 -19.439896,1.78448 -26.757812,11.4082 3.159011,0.87372 6.421607,1.31653 9.699218,1.31641 H 263.61914 c 3.27761,1.2e-4 6.54021,-0.44269 9.69922,-1.31641 -7.31792,-9.62372 -15.68467,-18.73025 -26.75781,-11.4082 0.9522,-4.8332 -0.53301,-9.6668 -2.80274,-14.5 l -10.95312,4.44727 c 0,0 -20.011,3.96994 -24.39453,-2.94922 -1.07073,-1.69008 -1.18502,-3.92884 -0.73633,-6.36133 7.56642,-3.67735 6.25328,-6.05924 7.13086,-15.35938 0.94871,-1.43812 1.59765,-2.31445 1.59765,-2.31445 8.7658,3.90886 17.53108,3.74895 26.29688,3.71484 -0.37746,-6.01179 -1.06731,-10.80119 -3.39844,-15.27734 32.0165,-0.39325 57.76421,-26.4596 57.76367,-58.47851 2.7e-4,-32.29906 -26.18336,-58.48269 -58.48242,-58.48243 -21.85617,2.6e-4 -41.88822,12.18778 -51.93555,31.59766 -12.21563,-3.35699 -24.30846,-10.33116 -37.14153,-10.14866 -12.46464,0.17725 -23.68859,7.47429 -35.78034,10.87913 -9.90615,-19.8124 -30.155723,-32.32766 -52.306641,-32.32813 z"
     sodipodi:nodetypes="ccccccsscsccccccccccsccccccccacc" /><circle
     style="fill:#d79575;fill-opacity:1;stroke:none;stroke-width:11.4;stroke-linejoin:round;paint-order:stroke fill markers"
     id="circle81"
     cx="61.417328"
     cy="217.19684"
     r="47.244095" /><path
     id="path82"
     style="fill:url(#linearGradient82);fill-opacity:1"
     d="m 57.337891,298.38086 c -0.01273,0.18953 -0.02506,0.38027 -0.03711,0.57226 4.937576,0.0192 9.87507,0.0783 14.8125,-0.57226 z m 26.9375,0 c -3.693854,3.41624 -1.86972,-2.80464 -4.204454,1.97069 -0.72757,1.48813 -0.525801,8.27283 2.110092,10.84461 2.454866,2.39516 5.133003,3.23169 10.145143,1.71595 0.44869,2.43249 0.334402,4.67125 -0.736328,6.36133 -4.38353,6.91916 -24.394529,2.94922 -24.394532,2.94922 l -10.953124,-4.44727 c -2.269732,4.8332 -3.754935,9.6668 -2.802735,14.5 -11.073106,-7.32202 -19.439916,1.78452 -26.757812,11.4082 3.159011,0.87372 6.421607,1.31653 9.699218,1.31641 H 263.61914 c 3.27761,1.2e-4 6.54021,-0.44269 9.69922,-1.31641 -7.3179,-9.62368 -15.68471,-18.73022 -26.75781,-11.4082 0.9522,-4.8332 -0.53301,-9.6668 -2.80274,-14.5 l -10.95312,4.44727 c 0,0 -20.011,3.96994 -24.39453,-2.94922 -1.07073,-1.69008 -1.18502,-3.92884 -0.73633,-6.36133 3.02531,0.91489 11.87425,-1.98695 10.44386,-4.91259 -2.33474,-4.77533 1.30077,-6.20242 -2.39308,-9.61866 z m 143.611329,0 c 4.93743,0.6506 9.87492,0.59148 14.8125,0.57226 -0.0121,-0.19199 -0.0244,-0.38273 -0.0371,-0.57226 z"
     sodipodi:nodetypes="cccccsacsccccccccccscscccccc" /><g
     id="g84"><circle
       style="fill:#ffffff;fill-opacity:1;stroke:none;stroke-width:11.4;stroke-linejoin:round;paint-order:stroke fill markers"
       id="circle82"
       cx="61.417328"
       cy="225.19684"
       r="47.244095" /><path
       id="path83"
       style="fill:#3b3433;fill-opacity:1;stroke:none;stroke-width:9.69;stroke-linejoin:round;paint-order:stroke fill markers"
       d="m 65.105469,178.09766 a 40.157482,40.157482 0 0 0 -36.759766,40.01172 40.157482,40.157482 0 0 0 40.158203,40.1582 40.157482,40.157482 0 0 0 40.013674,-36.75781 47.244095,47.244095 0 0 0 -43.412111,-43.41211 z" /><path
       id="path84"
       style="fill:#ffffff;fill-opacity:1;stroke:none;stroke-width:4.2935;stroke-linejoin:round;paint-order:stroke fill markers"
       d="m 85.123047,184.33203 a 17.79319,17.79319 0 0 0 -12.048828,16.83985 17.79319,17.79319 0 0 0 17.794922,17.79296 17.79319,17.79319 0 0 0 15.341799,-8.7832 47.244095,47.244095 0 0 0 -21.087893,-25.84961 z" /><circle
       style="fill:#ffffff;fill-opacity:1;stroke:none;stroke-width:2.51687;stroke-linejoin:round;paint-order:stroke fill markers"
       id="circle84"
       cx="39.329147"
       cy="246.50999"
       r="10.430464" /></g><path
     id="path85"
     d="m 191.33858,217.19684 a 47.244095,47.244095 0 0 0 47.24409,47.24409 47.244095,47.244095 0 0 0 47.2441,-47.24409 47.244095,47.244095 0 0 0 -47.2441,-47.2441 47.244095,47.244095 0 0 0 -47.24409,47.2441 z"
     style="fill:#d79575;fill-opacity:1;stroke:none;stroke-width:11.4;stroke-linejoin:round;paint-order:stroke fill markers" /><path
     id="path86"
     d="m 191.33858,225.19684 a 47.244095,47.244095 0 0 0 47.24409,47.24409 47.244095,47.244095 0 0 0 47.2441,-47.24409 47.244095,47.244095 0 0 0 -47.2441,-47.2441 47.244095,47.244095 0 0 0 -47.24409,47.2441 z"
     style="fill:#ffffff;fill-opacity:1;stroke:none;stroke-width:11.4;stroke-linejoin:round;paint-order:stroke fill markers" /><path
     id="path87"
     d="m 234.89453,178.09766 a 40.157482,40.157482 0 0 1 36.75977,40.01172 40.157482,40.157482 0 0 1 -40.15821,40.1582 40.157482,40.157482 0 0 1 -40.01367,-36.75781 47.244095,47.244095 0 0 1 43.41211,-43.41211 z"
     style="fill:#3b3433;fill-opacity:1;stroke:none;stroke-width:9.69;stroke-linejoin:round;paint-order:stroke fill markers" /><path
     id="path88"
     style="fill:#ffffff;fill-opacity:1;stroke:none;stroke-width:4.5423;stroke-linejoin:round;paint-order:stroke fill markers"
     d="m 246.99219,181.0625 c -5.28143,3.48385 -8.45944,9.38786 -8.45899,15.71484 3e-5,10.39632 8.4279,18.82419 18.82422,18.82422 5.06473,-1.9e-4 9.91571,-2.04126 13.45703,-5.66211 -1.13635,-14.52233 -11.30741,-24.06639 -23.82226,-28.87695 z"
     sodipodi:nodetypes="ccccc" /><path
     id="path89"
     style="fill:#ffffff;fill-opacity:1;stroke:none;stroke-width:2.63045;stroke-linejoin:round;paint-order:stroke fill markers"
     d="m 208.78516,239.27148 c -3.31214,-2.6e-4 -6.44476,1.50532 -8.51368,4.0918 4.39374,6.43081 10.20825,11.66899 17.76172,12.58008 1.0801,-1.73126 1.65259,-3.73092 1.65235,-5.77148 -4.3e-4,-6.01994 -4.88045,-10.89997 -10.90039,-10.9004 z"
     sodipodi:nodetypes="scccs" /><path
     id="path90"
     style="fill:#da9879;fill-opacity:1;stroke-width:11.4;stroke-linejoin:round;paint-order:stroke fill markers"
     d="m 68.96289,138.59375 c -1.983864,-0.072 -3.824097,0.0971 -5.394531,0.60157 -6.967473,2.23807 -14.368736,12.17321 -18.736328,18.92773 -2.256951,3.49039 -0.80614,5.0604 2.931641,3.24219 10.557397,-5.13556 20.861,-10.03315 36.40625,-4.83203 3.512993,-0.14095 5.903389,-1.54517 7.439453,-3.91016 2.096535,-3.22792 -0.72994,-8.00969 -4.34375,-9.42578 -5.109217,-2.00208 -12.351141,-4.38754 -18.302735,-4.60352 z m 162.07422,0 c -5.9516,0.21598 -13.19352,2.60144 -18.30274,4.60352 -3.61381,1.41609 -6.44028,6.19786 -4.34375,9.42578 1.53607,2.365 3.92646,3.76921 7.43946,3.91016 15.54524,-5.20111 25.84885,-0.30353 36.40625,4.83203 3.73778,1.81821 5.18859,0.2482 2.93164,-3.24219 -4.3676,-6.75452 -11.76886,-16.68966 -18.73633,-18.92773 -1.57044,-0.50445 -3.41067,-0.67356 -5.39453,-0.60157 z" /><g
     id="g93"
     transform="matrix(0.77288788,0,0,0.77288788,-289.75002,-51.161881)"><path
       d="m 568.98,410.85 -27.24,12.1 c 0.74,12.47 6.2,23.38 27.24,23.38 20.86,0 26.4,-10.65 27.22,-23 z"
       fill="#808285"
       id="path91" /><path
       d="m 568.98,407.78 -22.17,14.9 c 0.6,10.15 5,18.4 22.17,18.4 17,0 21.48,-8 22.15,-18.12 z"
       fill="#ffffff"
       id="path92" /><path
       d="m 568.98,403.76 v 39.22"
       stroke="#808285"
       stroke-width="5"
       id="path93"
       style="fill:none;stroke-miterlimit:10" /></g><path
     style="baseline-shift:baseline;display:inline;overflow:visible;vector-effect:none;fill:#414042;stroke-linecap:butt;enable-background:accumulate;stop-color:#000000"
     d="m 147.04268,240.71243 c 0,0.3798 -0.008,15.38608 -0.0238,15.75148 -0.41294,9.56249 -6.12213,14.21817 -11.5211,15.23382 -2.80264,0.52723 -5.45342,-0.007 -7.30665,-1.35743 -1.85322,-1.3501 -3.14453,-3.47482 -3.14453,-7.18359 -2.4e-4,-1.63302 -1.32401,-2.95679 -2.95703,-2.95703 -1.63302,2.4e-4 -2.95679,1.32401 -2.95703,2.95703 0,5.24522 2.19615,9.50243 5.57617,11.96484 3.38003,2.46241 7.70779,3.17408 11.88282,2.38868 5.23182,-0.98421 10.32824,-4.45069 13.4082,-10.02539 3.07985,5.57347 8.17698,9.03981 13.4082,10.02539 4.17492,0.78656 8.50243,0.0756 11.88281,-2.38672 3.38039,-2.46236 5.57813,-6.71993 5.57813,-11.9668 -2.4e-4,-1.63379 -1.3252,-2.95788 -2.95899,-2.95703 -1.63302,2.4e-4 -2.95679,1.32401 -2.95703,2.95703 0,3.71109 -1.29167,5.83588 -3.14453,7.18555 -1.85285,1.34966 -4.50194,1.88352 -7.30469,1.35547 -5.34301,-1.00664 -10.99121,-5.57899 -11.50844,-14.93759 -0.0254,-0.45973 -0.0384,-15.56474 -0.0384,-16.04771 z"
     id="path94"
     sodipodi:nodetypes="cssccccsscsscccssscc" /><path
     id="path95"
     style="fill:#cf6351;fill-opacity:1;stroke-width:9.91879;stroke-linejoin:round;paint-order:stroke fill markers"
     d="m 149.89841,222.27131 c -6.19386,-0.1865 -12.38778,0.84291 -18.58163,3.3852 -2.21542,0.90932 -3.23113,2.25454 -3.21525,3.69678 -0.002,0.13758 0.009,0.27755 0.033,0.41737 0.19759,1.3604 1.2796,2.77485 3.10975,3.96991 5.20744,3.40039 9.39587,7.51486 13.29834,11.82894 0.77863,0.86077 1.66266,1.49438 2.5933,1.91572 0.26788,0.12268 0.53967,0.23176 0.81535,0.31736 0.15587,0.0484 0.31261,0.0904 0.47031,0.12694 0.003,8.2e-4 0.008,8.8e-4 0.0112,0.002 0.16132,0.037 0.32299,0.0677 0.4857,0.0923 0.15909,0.0242 0.31916,0.0416 0.4791,0.0539 0.003,2.3e-4 0.006,0.002 0.009,0.002 0.14973,0.0112 0.30044,0.0165 0.45053,0.0173 0.10127,7e-4 0.20207,-0.004 0.30328,-0.008 0.0689,-0.003 0.13772,-0.005 0.20658,-0.01 0.15026,-0.0109 0.301,-0.0268 0.45053,-0.048 0.11016,-0.0157 0.22005,-0.0363 0.32966,-0.0577 0.06,-0.0117 0.12041,-0.0213 0.18021,-0.0347 0.0791,-0.0178 0.15653,-0.0409 0.23515,-0.0615 0.0758,-0.0198 0.15098,-0.039 0.22637,-0.0615 0.26975,-0.0812 0.53528,-0.18342 0.79777,-0.30004 0.0584,-0.0257 0.1178,-0.0477 0.17582,-0.075 0.002,-8.7e-4 0.005,-0.003 0.007,-0.004 0.0141,-0.007 0.0277,-0.0163 0.0417,-0.023 0.87526,-0.42103 1.70504,-1.03023 2.44166,-1.84455 3.90246,-4.31408 8.09309,-8.42854 13.30053,-11.82894 1.83016,-1.19507 2.91217,-2.60951 3.10976,-3.9699 0.0235,-0.13982 0.0348,-0.27979 0.033,-0.41738 0.0159,-1.44225 -0.99982,-2.78747 -3.21524,-3.69679 -6.19386,-2.54227 -12.38778,-3.57168 -18.58163,-3.38519 z" /><path
     style="fill:#e4b292;fill-opacity:1;stroke-width:11.4;stroke-linejoin:round;paint-order:stroke fill markers"
     d="m 130.88925,199.69533 c -2.55545,-4.54128 -6.11377,-8.33039 -12.71595,-9.83662 -0.95128,3.95853 -2.91812,7.91706 -6.41155,11.87559 z"
     id="path96"
     sodipodi:nodetypes="cccc" /><path
     style="fill:#e8b18d;fill-opacity:1;stroke-width:11.4;stroke-linejoin:round;paint-order:stroke fill markers"
     d="m 205.5358,285.20365 6.18426,17.82523 5.82048,6.18427 5.82049,1.09134 7.2756,-9.45829 9.0945,-0.72756 -4.72914,-12.36852 z"
     id="path97" /><path
     style="fill:#e8b18d;fill-opacity:1;stroke-width:11.4;stroke-linejoin:round;paint-order:stroke fill markers"
     d="m 87.126083,287.4738 -6.903053,11.65849 1.38061,7.20986 9.05067,0.4602 21.47616,-11.81189 z"
     id="path100" /><path
     style="fill:#e8b18d;fill-opacity:1;stroke-width:11.4;stroke-linejoin:round;paint-order:stroke fill markers"
     d="m 116.06182,205.34015 -2.72795,-13.14376 5.20791,-5.95188 9.91981,2.47995 7.19186,-6.69588 6.94387,1.73597 5.95189,13.39175 z"
     id="path102" /><path
     style="fill:#e8b18d;fill-opacity:1;stroke-width:11.4;stroke-linejoin:round;paint-order:stroke fill markers"
     d="m 28.761546,264.87097 -6.137401,7.34081 -8.905249,0.12035 -1.564435,-7.82218 -6.7391072,-1.32375 -2.6475063,-7.10014 7.9425185,-8.06286 7.100131,0.24069 z"
     id="path104" /><path
     style="fill:#e8b18d;fill-opacity:1;stroke-width:11.4;stroke-linejoin:round;paint-order:stroke fill markers"
     d="m 281.83908,250.30969 6.97979,6.1374 2.88819,7.94252 -4.81365,4.33228 -14.80197,-4.33228 z"
     id="path106" /><path
     style="fill:#e8b18d;fill-opacity:1;stroke-width:11.4;stroke-linejoin:round;paint-order:stroke fill markers"
     d="m 173.47717,199.64576 4.70446,-11.17311 4.41044,-3.38133 5.14551,2.49924 3.52835,13.0843 z"
     id="path108" /><path
     id="rect1"
     style="fill:#8d4437;stroke-width:49.2;paint-order:stroke fill markers;fill-opacity:1"
     d="M 137.33984 179.92383 A 10.586441 10.586441 0 0 0 132.57617 181.01172 A 11.77918 11.77918 0 0 0 128.7793 184.01172 A 16.310177 16.310177 0 0 0 127.74609 185.38477 A 19.422591 19.422591 0 0 0 125.70117 184.39844 A 12.414367 12.414367 0 0 0 123.05469 183.67188 A 9.8806784 9.8806784 0 0 0 120.13281 183.61523 A 8.9067258 8.9067258 0 0 0 114.94531 186.2832 A 10.776997 10.776997 0 0 0 112.24219 191.00586 A 12.929573 12.929573 0 0 0 111.97461 196.12891 A 19.422591 19.422591 0 0 0 113.2793 200.74414 A 25.887377 25.887377 0 0 0 115.45312 204.82422 A 24.306469 24.306469 0 0 0 118.27734 208.39453 A 44.208978 44.208978 0 0 1 115.72266 199.99609 C 115.21451 197.22244 115.17084 194.42029 116.07422 192.23242 A 7.0576274 7.0576274 0 0 1 118.05859 189.50781 A 4.5380544 4.5380544 0 0 1 120.71094 188.33789 A 6.8741291 6.8741291 0 0 1 123.8457 188.95117 A 18.349831 18.349831 0 0 1 127.15625 190.87109 L 129.64648 192.62109 L 130.8457 189.89062 A 13.988218 13.988218 0 0 1 132.47656 187.06641 A 8.1727325 8.1727325 0 0 1 134.68555 185.07617 A 6.9799935 6.9799935 0 0 1 137.44531 184.1582 A 5.1661833 5.1661833 0 0 1 138.80664 184.1582 A 5.2720477 5.2720477 0 0 1 140.12109 184.61133 C 141.87844 185.49354 143.39453 187.54066 144.54492 189.72852 A 43.178564 43.178564 0 0 1 147.45312 196.93359 L 147.4668 196.96875 A 25.329825 25.329825 0 0 0 146.70508 188.9375 A 16.938306 16.938306 0 0 0 145.14453 184.99219 A 10.452346 10.452346 0 0 0 142.125 181.46289 A 8.2927122 8.2927122 0 0 0 139.86719 180.32031 A 8.391519 8.391519 0 0 0 137.33984 179.92383 z M 184.05469 183.45703 A 8.3560207 8.3560207 0 0 0 178.55078 185.41016 A 11.24368 11.24368 0 0 0 175.42383 189.76172 A 17.371428 17.371428 0 0 0 174.1875 194.56641 A 17.939865 17.939865 0 0 0 174.06055 196.98438 A 14.06881 14.06881 0 0 0 174.25195 199.38281 L 174.26172 199.37695 L 176.01562 195.05859 A 27.284966 27.284966 0 0 1 178.12891 191.20898 A 10.16365 10.16365 0 0 1 180.79492 188.38086 A 5.7923708 5.7923708 0 0 1 182.32812 187.63281 A 5.3887807 5.3887807 0 0 1 183.94531 187.41406 A 2.7739715 2.7739715 0 0 1 185.25586 187.7207 A 3.3651457 3.3651457 0 0 1 186.40039 188.65625 A 11.834854 11.834854 0 0 1 188.18945 192.21094 L 190.18555 198.80078 A 11.68706 11.68706 0 0 0 191.11914 201.0293 L 191.4375 196.31445 A 25.346596 25.346596 0 0 0 191.22656 191.47852 A 12.119072 12.119072 0 0 0 189.46875 186.47656 A 7.0088255 7.0088255 0 0 0 187.19336 184.30078 A 6.599551 6.599551 0 0 0 184.05469 183.45703 z M 12.644531 247.42188 A 19.023513 19.023513 0 0 0 9.3378906 248.74805 A 20.260815 20.260815 0 0 0 6.2734375 250.66992 A 15.201135 15.201135 0 0 0 3.5898438 253.29492 A 10.11936 10.11936 0 0 0 1.7753906 256.87695 A 8.4346412 8.4346412 0 0 0 1.7714844 261.13477 A 6.9708691 6.9708691 0 0 0 4.2539062 264.9668 A 7.7331353 7.7331353 0 0 0 6.2597656 266.06641 A 9.7161322 9.7161322 0 0 0 8.3398438 266.60352 A 15.201135 15.201135 0 0 0 10.111328 266.73047 A 12.765197 12.765197 0 0 0 10.277344 268.06641 A 9.219002 9.219002 0 0 0 11.685547 271.58203 A 8.2855021 8.2855021 0 0 0 14.496094 274.17383 A 6.5676414 6.5676414 0 0 0 16.365234 274.89062 A 6.49031 6.49031 0 0 0 18.34375 274.99414 A 8.1805524 8.1805524 0 0 0 21.769531 273.77539 A 13.256803 13.256803 0 0 0 24.365234 271.70508 A 19.824445 19.824445 0 0 0 28.009766 266.54883 L 27.986328 266.56836 A 33.793801 33.793801 0 0 1 23.207031 270.32617 C 21.573904 271.3633 19.745575 272.16179 18.208984 272.07617 A 4.1261801 4.1261801 0 0 1 17.142578 271.87109 A 4.043325 4.043325 0 0 1 16.216797 271.3418 A 5.4629077 5.4629077 0 0 1 14.701172 269.64258 A 6.3964076 6.3964076 0 0 1 13.976562 267.43164 A 10.94791 10.94791 0 0 1 13.970703 264.88086 L 14.21875 262.55859 L 11.847656 262.77734 A 14.361537 14.361537 0 0 1 8.8515625 262.79102 A 5.3800527 5.3800527 0 0 1 6.4863281 261.98633 A 3.5517186 3.5517186 0 0 1 5.140625 260.1582 A 5.5236681 5.5236681 0 0 1 4.8554688 257.53711 C 5.0944068 255.70001 6.215312 253.81386 7.640625 252.12891 A 34.600257 34.600257 0 0 1 12.644531 247.42188 z M 282.98828 250.82812 L 282.98828 250.83789 L 285.97266 254.41992 A 27.284966 27.284966 0 0 1 288.37109 258.09766 A 10.16365 10.16365 0 0 1 289.61133 261.78125 A 5.7923708 5.7923708 0 0 1 289.54883 263.48633 A 5.3887807 5.3887807 0 0 1 288.98047 265.01562 A 2.7739715 2.7739715 0 0 1 288.09375 266.02734 A 3.3651457 3.3651457 0 0 1 286.72852 266.5957 A 11.834854 11.834854 0 0 1 282.75 266.49805 L 275.99609 265.1582 A 11.68706 11.68706 0 0 0 273.5918 264.92969 L 277.59961 267.43164 A 25.346596 25.346596 0 0 0 281.96484 269.52344 A 12.119072 12.119072 0 0 0 287.20703 270.33008 A 7.0088255 7.0088255 0 0 0 290.19727 269.34766 A 6.599551 6.599551 0 0 0 292.41992 266.97656 A 8.3560207 8.3560207 0 0 0 293.28906 261.20117 A 11.24368 11.24368 0 0 0 290.92383 256.39258 A 17.371428 17.371428 0 0 0 287.26953 253.03906 A 17.939865 17.939865 0 0 0 285.19336 251.78711 A 14.06881 14.06881 0 0 0 282.98828 250.82812 z M 66.185547 277.6582 L 66.177734 277.66016 A 22.999266 17.638154 0 0 0 62.917969 279.3457 A 30.817716 23.634129 0 0 0 60.083984 281.41406 A 28.444257 21.813921 0 0 0 55.224609 286.40625 A 18.410583 14.11909 0 0 0 52.884766 292.89062 A 14.53859 11.149655 0 0 0 53.630859 296.53125 A 14.724744 11.292417 0 0 0 56.042969 299.81445 A 10.806212 8.2872917 0 0 0 60.339844 302.21875 A 11.606672 8.9011652 0 0 0 65.451172 302.73438 A 19.843966 15.218352 0 0 0 73.636719 300.51367 A 41.828696 32.078458 0 0 0 77.529297 298.49414 A 12.07666 11.664933 7.2797945 0 0 77.248047 299.77734 A 9.5367763 9.2116407 7.2797945 0 0 77.351562 302.82227 A 9.6588864 9.329588 7.2797945 0 0 78.578125 305.71289 A 7.0884746 6.8468085 7.2797945 0 0 81.121094 308.04102 A 7.6135467 7.3539796 7.2797945 0 0 84.392578 308.88867 A 13.016906 12.573124 7.2797945 0 0 89.951172 307.75 A 27.438074 26.502634 7.2797945 0 0 94.484375 305.33008 L 98.574219 302.50781 A 12.143821 11.729804 7.2797945 0 0 96.013672 302.88281 L 93.566406 303.48633 C 91.968143 303.89756 90.40507 304.35533 88.878906 304.65625 A 12.711632 12.278257 7.2797945 0 1 84.621094 304.98438 A 3.7060327 3.5796837 7.2797945 0 1 83.121094 304.47461 A 3.0039013 2.90149 7.2797945 0 1 82.101562 303.4707 A 5.6842116 5.490421 7.2797945 0 1 81.386719 301.92578 A 6.2214948 6.0093867 7.2797945 0 1 81.203125 300.16016 A 10.916617 10.544439 7.2797945 0 1 82.275391 296.27148 A 29.306355 28.307219 7.2797945 0 1 83.066406 294.74609 L 85.664062 292.89844 A 18.512968 14.197608 0 0 0 84.009766 293.18164 A 29.306355 28.307219 7.2797945 0 1 84.591797 292.32227 L 87.496094 288.39844 L 87.490234 288.39844 A 15.086666 14.57232 7.2797945 0 0 85.193359 289.50977 A 20.21528 19.526084 7.2797945 0 0 83.132812 290.96875 A 18.658379 18.022262 7.2797945 0 0 79.619141 294.43164 L 78.28125 294.8418 C 75.943819 295.58067 73.665734 296.36946 71.416016 296.96484 A 19.378582 14.861449 0 0 1 65.042969 298.01367 A 5.6497593 4.3328045 0 0 1 62.675781 297.63086 A 4.5793766 3.5119273 0 0 1 60.939453 296.58203 A 8.6654462 6.6455371 0 0 1 59.560547 294.83594 A 9.4845218 7.2736867 0 0 1 58.939453 292.74609 A 16.642125 12.762858 0 0 1 59.8125 287.91211 A 44.676845 34.262705 0 0 1 62.550781 282.81445 L 66.185547 277.6582 z M 234.45898 278.01562 A 45.131661 45.131661 0 0 1 239.56445 285.35352 C 240.92834 287.87526 241.8546 290.5821 241.64844 292.99023 A 7.261905 7.261905 0 0 1 240.57617 296.25195 A 4.5728432 4.5728432 0 0 1 238.36133 298.21875 A 7.0174449 7.0174449 0 0 1 235.12891 298.5957 A 17.845592 17.845592 0 0 1 231.32031 297.76953 L 228.35352 296.83594 L 228.04492 299.86719 A 14.7467 14.7467 0 0 1 227.3457 303.11328 A 8.3116458 8.3116458 0 0 1 225.82617 305.73242 A 7.1109149 7.1109149 0 0 1 223.4375 307.48438 A 5.5866339 5.5866339 0 0 1 222.11523 307.91016 A 5.0689535 5.0689535 0 0 1 220.70703 307.87305 C 218.72494 307.5825 216.62056 306.0695 214.8125 304.30273 A 44.355141 44.355141 0 0 1 209.74219 298.22461 A 22.885786 22.885786 0 0 0 211.05078 302.10156 A 23.727016 23.727016 0 0 0 212.99219 305.78125 A 17.256012 17.256012 0 0 0 215.73633 309.11914 A 10.655587 10.655587 0 0 0 219.76953 311.59766 A 8.628006 8.628006 0 0 0 222.32422 312.00586 A 8.7789961 8.7789961 0 0 0 224.89844 311.59961 A 10.785007 10.785007 0 0 0 229.18359 309.04883 A 11.877888 11.877888 0 0 0 231.91992 304.95508 A 16.616101 16.616101 0 0 0 232.49219 303.30273 A 19.413013 19.413013 0 0 0 234.79102 303.61523 A 11.122938 11.122938 0 0 0 240.41406 302.66406 A 9.0953563 9.0953563 0 0 0 244.57617 298.40039 A 10.993518 10.993518 0 0 0 245.69727 293.01562 A 13.179279 13.179279 0 0 0 244.35742 287.96289 A 19.786894 19.786894 0 0 0 241.64844 283.89648 A 26.372938 26.372938 0 0 0 238.26562 280.61914 A 25.165017 25.165017 0 0 0 234.45898 278.01562 z " /><path
     id="path110"
     style="fill:#a2493b;fill-opacity:1;stroke-width:9.91879;stroke-linejoin:round;paint-order:stroke fill markers"
     d="m 149.72266,222.27539 c -2.18895,-0.0578 -4.37746,0.0899 -6.56641,0.34961 2.18876,-0.19211 4.37765,-0.39234 6.56641,-0.34961 z m 0.4082,0 c 2.17181,-0.0405 4.3438,0.15682 6.51562,0.34766 -2.17163,-0.25794 -4.344,-0.40237 -6.51562,-0.34766 z m -21.8418,6.00781 c -0.13052,0.34669 -0.19151,0.70576 -0.1875,1.07032 -0.002,0.13758 0.009,0.27814 0.0332,0.41796 0.19759,1.3604 1.27922,2.77369 3.10937,3.96875 5.20744,3.40039 9.39636,7.516 13.29883,11.83008 0.77863,0.86077 1.66311,1.49272 2.59375,1.91407 0.26788,0.12268 0.53877,0.23275 0.81445,0.31835 0.15587,0.0484 0.313,0.0904 0.47071,0.12696 h 0.002 c 9.4e-4,1.4e-4 0.005,0.002 0.006,0.002 h 0.002 0.002 c 0.16132,0.037 0.32167,0.0672 0.48438,0.0918 0.15909,0.0242 0.32053,0.0424 0.48047,0.0547 h 0.002 0.002 l 0.002,0.002 h 0.002 c 0.14973,0.0112 0.30108,0.0168 0.45117,0.0176 0.10127,7e-4 0.20153,-0.004 0.30274,-0.008 0.0689,-0.003 0.13817,-0.007 0.20703,-0.0117 0.15026,-0.0109 0.30164,-0.0257 0.45117,-0.0469 0.11016,-0.0157 0.21851,-0.0372 0.32812,-0.0586 0.06,-0.0117 0.12185,-0.0198 0.18164,-0.0332 0.0791,-0.0178 0.15576,-0.0419 0.23438,-0.0625 0.0758,-0.0198 0.15117,-0.038 0.22656,-0.0605 0.26975,-0.0812 0.53439,-0.18417 0.79688,-0.30079 0.0584,-0.0257 0.11776,-0.0469 0.17578,-0.0742 l 0.002,-0.002 h 0.002 c 0.001,-7.6e-4 0.003,-0.001 0.004,-0.002 0.0141,-0.007 0.027,-0.0167 0.041,-0.0234 0.87526,-0.42103 1.70478,-1.03138 2.4414,-1.8457 3.90246,-4.31408 8.09334,-8.42773 13.30078,-11.82813 1.83016,-1.19507 2.91374,-2.61031 3.11133,-3.9707 0.0235,-0.13982 0.0331,-0.27842 0.0312,-0.41601 0.004,-0.36468 -0.0569,-0.72353 -0.1875,-1.07032 -0.39615,0.8564 -1.40912,1.71811 -2.95508,2.46485 -5.20744,2.51531 -9.39832,5.55883 -13.30078,8.75 -0.73662,0.60236 -1.56614,1.05379 -2.4414,1.36523 -0.014,0.005 -0.0269,0.0126 -0.041,0.0176 -0.002,0.001 -0.006,0.001 -0.008,0.002 -0.058,0.0202 -0.11738,0.0357 -0.17578,0.0547 -0.26249,0.0863 -0.52713,0.16256 -0.79688,0.22266 -0.0754,0.0166 -0.15076,0.0303 -0.22656,0.0449 -0.0786,0.0153 -0.15527,0.0337 -0.23438,0.0469 -0.0598,0.01 -0.12164,0.0164 -0.18164,0.0254 -0.10961,0.0159 -0.21796,0.0314 -0.32812,0.043 -0.14953,0.0157 -0.30091,0.0272 -0.45117,0.0352 -0.0689,0.003 -0.13813,0.006 -0.20703,0.008 -0.10121,0.003 -0.20147,0.006 -0.30274,0.006 -0.15009,-6e-4 -0.30144,-0.006 -0.45117,-0.0137 h -0.002 c -0.001,-2.3e-4 -0.004,8e-5 -0.006,0 -0.15994,-0.009 -0.32138,-0.0231 -0.48047,-0.041 -0.16271,-0.0182 -0.32306,-0.041 -0.48438,-0.0684 -0.003,-3.5e-4 -0.009,6.1e-4 -0.0117,0 -0.15771,-0.027 -0.31484,-0.058 -0.47071,-0.0937 -0.27568,-0.0633 -0.54657,-0.14562 -0.81445,-0.23632 -0.93064,-0.31167 -1.81512,-0.7793 -2.59375,-1.41602 -3.90247,-3.19118 -8.09139,-6.2347 -13.29883,-8.75 -1.54609,-0.7468 -2.559,-1.61031 -2.95508,-2.4668 z" /><path
     id="path111"
     style="fill:#510500;fill-opacity:0.176101;stroke-width:4.43656;stroke-linejoin:round;stroke-opacity:0.68435;stop-color:#000000"
     d="m 150,83.816406 c -34.13801,0 -63.494516,7.280699 -86.955078,20.625004 0.336836,2.46022 0.912627,5.09986 1.78125,7.95898 0.673911,2.21822 2.070375,4.57415 3.861328,6.72266 -9.876891,5.10712 -20.118782,9.37447 -28.019531,10.42187 l 1.919922,4 c 7.774114,-1.03597 18.274247,-6.05826 28.322265,-12.05664 2.403154,2.27728 5.174435,4.08721 7.783203,4.86719 21.683711,6.483 43.367001,0.29228 65.050781,-5.02344 3.2699,-0.8016 3.50005,-2.66655 0.50391,-4.20312 l -14.28711,-7.32813 c -2.15056,-1.1029 -2.34037,-4.10396 -0.34571,-5.46875 l 26.36329,-18.037108 c 0.85799,-0.587054 1.03926,-1.5827 0.7207,-2.382813 -2.21216,-0.06313 -4.44505,-0.0957 -6.69922,-0.0957 z" /><g
     id="g116"
     transform="matrix(1.4311477,0,0,1.4311477,-18.548778,-193.54456)"><path
       style="opacity:1;fill:#f7a11a;fill-opacity:1;stroke-width:3.1;stroke-linejoin:round;stroke-opacity:0.68435;stop-color:#000000"
       d="m 107.11711,170.84481 c -13.735953,4.19301 -26.090944,10.75309 -33.550202,25.70618 -0.69948,1.4022 -1.682798,1.39785 -2.281114,-0.0506 l -4.814786,-11.65613 c -1.345284,-3.25681 -3.214301,-3.13366 -4.660549,0.0753 -3.225322,7.15637 -7.320639,13.66031 -3.553125,26.06129 1.205175,3.9669 5.71928,8.56327 9.689996,9.75044 15.151275,4.52993 30.302178,0.20461 45.4535,-3.50969 2.28481,-0.56011 2.44501,-1.86341 0.35149,-2.93707 l -9.98265,-5.11957 c -1.50268,-0.77064 -1.63516,-2.86768 -0.24141,-3.82131 l 18.42065,-12.60376 c 1.10665,-0.75719 0.60376,-2.4878 -0.73635,-2.534 l -18.19133,-0.62709 c -1.38144,-0.0476 -2.22445,-1.53846 -1.55321,-2.7468 l 7.55225,-13.59512 c 1.07396,-1.93328 0.21196,-3.03769 -1.90316,-2.39203 z"
       id="path112" /><path
       style="opacity:1;fill:#f16700;fill-opacity:0.387255;stroke:none;stroke-width:1.5;stroke-linejoin:round;stroke-dasharray:none;stroke-opacity:1;stop-color:#000000"
       d="m 59.77071,209.91244 c -1.159423,-4.34457 0.586898,-11.18854 4.861732,-12.5833 3.016644,-0.98425 4.84456,5.40132 8.007559,5.14771 8.213479,-0.65856 14.639368,-19.78238 18.302993,-16.58708 2.09032,1.82311 -4.357872,5.7936 0.571969,9.43748 4.081017,3.01647 16.682097,-4.57659 18.874957,0 1.56507,3.26637 -18.188395,5.55582 -19.160942,13.44126 -0.323586,2.62365 10.687672,2.02579 9.437482,5.43369 -1.640377,4.47152 -19.144847,5.37765 -28.884411,5.43371 -5.595106,0.0322 -10.683124,-4.7464 -12.011339,-9.72347 z"
       id="path113"
       sodipodi:nodetypes="aasssssssa" /><path
       style="color:#000000;fill:#9d3d05;stroke-linejoin:round"
       d="m 41.376953,222.96094 1.341797,2.79492 c 14.509816,-1.93356 42.60498,-23.73955 41.990234,-25.33789 0.402912,0.80582 -27.876652,20.49406 -43.332031,22.54297 z"
       id="path114"
       sodipodi:nodetypes="cccc" /><path
       style="color:#000000;fill:#9d3d05;stroke-linejoin:round"
       d="m 72.044922,209.78516 -1.205054,1.67606 c 6.989137,0.8471 13.645333,-0.63639 20.421849,-1.27763 -6.405598,0.12096 -12.811197,0.98414 -19.216795,-0.39843 z"
       id="path115"
       sodipodi:nodetypes="cccc" /><path
       style="color:#000000;fill:#9d3d05;stroke-linejoin:round"
       d="m 76.174681,207.16808 1.985475,-1.10363 c -0.785837,-3.29331 0.04224,-6.90941 0.328565,-10.41715 -1.089831,3.84026 -2.350695,7.68052 -2.31404,11.52078 z"
       id="path116"
       sodipodi:nodetypes="cccc" /></g><path
     id="path117"
     style="fill:#510500;fill-opacity:0.176471;stroke:none;stroke-width:2.3;stroke-linejoin:round;stroke-dasharray:none;stroke-opacity:1;stop-color:#000000"
     d="m 216.35742,94.859375 c -5.8709,1.074252 -11.1749,3.929653 -16.66015,6.191405 -19.67285,8.11176 -36.99254,21.27807 -54.57032,33.125 l -2.08984,0.30274 c 19.0093,2.06263 38.17563,15.43557 56.91211,-2.18555 l 3.35156,10.89062 c 15.38962,-10.15468 30.86698,-20.26683 25.23242,-40.43359 0.52415,-0.64067 1.03585,-1.29699 1.53321,-1.96875 -4.38766,-2.173255 -8.95862,-4.149487 -13.70899,-5.921875 z" /><g
     id="g120"
     transform="rotate(-8.2254989,-2036.7821,419.75935)"><path
       style="fill:#e02816;fill-opacity:1;stroke:none;stroke-width:2.3;stroke-linejoin:round;stroke-dasharray:none;stroke-opacity:1;stop-color:#000000"
       d="m 162,445.31963 h 2.11077 c 19.09189,-9.21021 38.11866,-19.76367 58.74967,-24.9774 8.56385,-2.1642 16.91534,-5.68796 26.38458,-2.46256 8.72462,27.11952 -10.11223,35.86473 -28.84714,44.67789 l -1.75897,-11.25742 C 197.57413,466.05937 180.51865,450.08069 162,445.31963 Z"
       id="path118"
       sodipodi:nodetypes="ccacccc" /><path
       style="fill:#c61910;fill-opacity:1;stroke:none;stroke-width:2.06438;stroke-linejoin:round;stroke-dasharray:none;stroke-opacity:1;stop-color:#000000"
       d="m 244.48477,426.68885 c -8.83636,-5.02632 -20.01814,6.30317 -29.93088,10.10119 -10.26985,3.93484 -41.59818,4.31171 -37.21135,6.51689 27.35069,13.74871 40.29514,3.24772 46.51419,5.21352 2.18999,0.69224 -1.89079,6.12202 0.80894,6.84274 8.97046,2.39478 15.37175,-9.91767 19.01015,-16.94393 1.87158,-3.61428 4.77998,-9.47161 0.80895,-11.73041 z"
       id="path119"
       sodipodi:nodetypes="asssaaa" /><path
       style="color:#000000;fill:#7c1604;fill-opacity:1;stroke-width:0.9416;stroke-linejoin:round;-inkscape-stroke:none"
       d="M 257.96302,396.35523 264.24231,393 c 4.63596,33.59297 -38.00845,49.5246 -41.28224,45.99053 2.90424,1.95779 40.80704,-17.48676 35.00295,-42.6353 z"
       id="path120"
       sodipodi:nodetypes="cccc" /></g></svg>
