<?xml version="1.0" encoding="UTF-8" standalone="no"?>
<!-- Created with Inkscape (http://www.inkscape.org/) -->

<svg
   width="300"
   height="345"
   viewBox="0 0 79.374998 91.28125"
   version="1.1"
   id="svg1"
   xmlns:inkscape="http://www.inkscape.org/namespaces/inkscape"
   xmlns:sodipodi="http://sodipodi.sourceforge.net/DTD/sodipodi-0.dtd"
   xmlns:xlink="http://www.w3.org/1999/xlink"
   xmlns="http://www.w3.org/2000/svg"
   xmlns:svg="http://www.w3.org/2000/svg">
  <sodipodi:namedview
     id="namedview1"
     pagecolor="#505050"
     bordercolor="#ffffff"
     borderopacity="1"
     inkscape:showpageshadow="0"
     inkscape:pageopacity="0"
     inkscape:pagecheckerboard="1"
     inkscape:deskcolor="#505050"
     inkscape:document-units="px">
    <inkscape:page
       x="0"
       y="0"
       width="79.375"
       height="91.28125"
       id="page2"
       margin="0"
       bleed="0" />
  </sodipodi:namedview>
  <defs
     id="defs1">
    <linearGradient
       id="linear-gradient-2"
       x1="150"
       y1="362.47"
       x2="150"
       y2="159.46001"
       gradientUnits="userSpaceOnUse">
      <stop
         offset="0.09"
         stop-color="#f6a9cb"
         id="stop3-4" />
      <stop
         offset="0.32"
         stop-color="#c62c6b"
         id="stop4-8" />
    </linearGradient>
    <linearGradient
       inkscape:collect="always"
       xlink:href="#linear-gradient-8"
       id="linearGradient239"
       gradientUnits="userSpaceOnUse"
       gradientTransform="matrix(1.1538454,0,0,1.1538454,-23.07607,-53.076674)"
       x1="150"
       y1="381.25"
       x2="150"
       y2="186.28999" />
    <linearGradient
       id="linear-gradient-8"
       x1="150"
       y1="381.25"
       x2="150"
       y2="186.28999"
       gradientUnits="userSpaceOnUse"
       gradientTransform="matrix(1.1602514,0,0,1.1602514,-24.036961,-55.286737)">
      <stop
         offset="0.1"
         stop-color="#c88b4b"
         id="stop1-3" />
      <stop
         offset="0.3"
         stop-color="#af6d2f"
         id="stop2-9" />
    </linearGradient>
    <linearGradient
       inkscape:collect="always"
       xlink:href="#linear-gradient-2"
       id="linearGradient237"
       gradientUnits="userSpaceOnUse"
       x1="150"
       y1="362.47"
       x2="150"
       y2="159.46001"
       gradientTransform="translate(336.39852,-12.506669)" />
    <linearGradient
       inkscape:collect="always"
       xlink:href="#linear-gradient-8"
       id="linearGradient241"
       gradientUnits="userSpaceOnUse"
       gradientTransform="matrix(1.1538454,0,0,1.1538454,-23.07607,-90.679929)"
       x1="150"
       y1="381.25"
       x2="150"
       y2="186.28999" />
  </defs>
  <g
     inkscape:label="Layer 1"
     inkscape:groupmode="layer"
     id="layer1">
    <g
       id="g244"
       transform="scale(0.26458333)">
      <path
         id="path172"
         style="fill:url(#linearGradient239);stroke-width:1.15384"
         class="cls-1"
         d="m 4.3923701e-4,245.93092 v 57.09304 C 8.9878566e-4,326.18871 18.766169,344.97437 41.930896,345 H 258.06954 c 23.16473,-0.0257 41.93,-18.81129 41.93046,-41.97604 v -12.19155 -16.22182 l -50.04782,-28.67967 z"
         sodipodi:nodetypes="ccccccccc" />
      <path
         id="path210"
         style="fill:#c88b4b;fill-opacity:1;stroke-width:1.15384"
         class="cls-3"
         d="M -6.2096506e-7,76.388945 4.3923701e-4,280.62788 c 0,23.24057 18.84051976299,42.07911 42.08107176299,42.07911 H 257.96648 C 278.81913,322.68409 296.69191,307.16093 300,287.24661 v -33.8259 l -16.15347,16.57494 v 10.63223 c -0.0191,14.31114 -11.61646,25.90657 -25.9276,25.92563 H 42.035931 C 27.742829,306.50906 16.1729,294.92104 16.153911,280.62788 V 79.93522 L 7.2339207,72.885663 C 4.3060667,70.571751 -8.3979667e-6,72.65712 -6.2096506e-7,76.388945 Z"
         sodipodi:nodetypes="csscccccccccsc" />
      <g
         id="g242"
         transform="translate(-336.41352,7.375)">
        <path
           class="cls-4"
           d="m 583.92852,312.22333 h -195.06 a 37.88,37.88 0 0 1 -37.88,-37.89 v -51.52 h 270.83 v 51.52 a 37.88,37.88 0 0 1 -37.89,37.89 z"
           id="path215"
           style="fill:url(#linearGradient237)" />
        <path
           class="cls-5"
           d="m 350.98852,153.54333 v 114 c 0,20.98682 17.01318,38 38,38 h 194.85 c 20.98682,0 38,-17.01318 38,-38 l -13.81484,-38.78268 z"
           id="path216"
           style="fill:#f6a9cb"
           sodipodi:nodetypes="csssscc" />
      </g>
      <g
         id="g161"
         transform="matrix(0.9944788,0.21091434,0,1.0735995,322.2844,34.793636)">
        <path
           class="cls-6"
           d="m -46.37115,180.52227 c 2.38125,19.63614 -22.34248,38.79186 -55.25138,42.78266 -32.90891,3.99081 -61.48982,-8.66045 -63.87587,-28.3363 l -1.38324,-11.40643 119.0385,-14.59678 z"
           id="path156"
           style="fill:#d62027" />
        <ellipse
           class="cls-7"
           cx="-127.73631"
           cy="161.97688"
           rx="59.970001"
           ry="35.830002"
           id="ellipse159"
           style="fill:#ef4041;fill-opacity:1"
           transform="rotate(-6.9144028)" />
        <path
           class="cls-6"
           d="m -136.70904,201.86293 a 73.73,73.73 0 0 0 25.03334,3.58238 5.89,5.89 0 0 0 5.70635,-6.60501 l -1.8672,-15.39719 a 5.89,5.89 0 0 0 -6.55624,-5.13809 l -34.62632,4.19908 a 5.9,5.9 0 0 0 -3.48244,9.9919 c 3.70943,3.84138 9.07699,7.06867 15.79251,9.36693 z"
           id="path159"
           style="fill:#d62027" />
        <path
           class="cls-6"
           d="M -57.35561,169.35342 C -58.3187,161.4116 -64.94364,154.378 -75.4443,149.93986 a 6.36,6.36 0 0 0 -7.10398,1.47595 l -21.99708,23.44869 a 6.31,6.31 0 0 0 -1.6621,5.06695 l 2.26568,18.68312 a 6.3,6.3 0 0 0 7.70391,5.38169 70.58,70.58 0 0 0 25.50301,-11.15131 c 9.47301,-6.86032 14.35558,-15.44052 13.37925,-23.49153 z"
           id="path160"
           style="fill:#d62027" />
        <path
           class="cls-6"
           d="m -138.01049,156.57463 c 6.98185,-4.83466 29.0407,-9.20646 37.24553,-11.39755 3.357537,-0.91987 8.822735,2.17248 7.362258,4.6889 -5.504831,9.48493 -12.683398,21.75545 -16.468108,22.86873 l -34.37434,5.91777 c -4.82113,0.81789 -8.48741,-4.2474 -6.20421,-8.57166 2.45056,-4.74455 6.66576,-9.37686 12.43887,-13.50619 z"
           id="path161"
           style="fill:#d62027"
           sodipodi:nodetypes="ccscccc" />
      </g>
      <path
         id="path167"
         style="fill:#e99dbf;fill-opacity:1;stroke:none;stroke-width:4.97239;stroke-linejoin:round"
         d="m 110.38983,171.30417 2.80474,70.15155 16.05734,13.86249 83.95576,-1.4218 -3.61858,-9.04936 c -3.80338,-5.23475 -4.59162,-5.83004 -9.02717,-10.60119 -11.12966,4.14762 -46.45814,7.76094 -58.90818,-16.51566 -2.84091,-5.53953 -3.43252,-14.51373 1.23282,-18.63585 4.96648,-4.3882 13.8719,3.21665 19.84937,1.141 -14.64048,-10.36245 -30.67586,-19.70258 -47.34457,-28.57767 -3.07471,-0.26124 -5.00153,-0.35351 -5.00153,-0.35351 z"
         sodipodi:nodetypes="ccccccsaccc" />
      <path
         class="cls-8"
         d="m 126.95065,289.45184 52.96079,35.05 c 2.3831,1.36318 4.18747,3.45497 5.10658,5.92 l 4.41328,10.45336 34.14843,-12.10336 c 2.17132,-1.39917 3.99655,-3.21662 5.35281,-5.33 l 26.5714,-34.61 -64.64064,-55.11 z"
         id="path223"
         style="fill:#e88c01;fill-opacity:1;stroke-width:1.03468"
         sodipodi:nodetypes="ccccccccc" />
      <path
         class="cls-10"
         d="m 122.86139,281.90605 56.14144,32.88471 a 12.526916,10.225169 0 0 1 5.25162,5.3102 l 8.69063,12.68772 30.92621,-14.18755 a 18.933148,15.454294 0 0 0 5.51234,-4.8035 l 28.75355,-32.26654 -67.87378,-48.2782 z"
         id="path225"
         style="fill:#f3b71c;stroke-width:1.12167" />
      <path
         style="fill:#e88c01;fill-opacity:1;stroke-width:10.8;stroke-linejoin:round;stroke-opacity:0.352941"
         d="m 195.03106,304.34783 49.68944,-4.96895 7.45341,-9.31677 -65.83851,-3.10559 z"
         id="path244" />
      <path
         style="fill:#8cbd40;fill-opacity:1;stroke-width:10.8089;stroke-linejoin:round;stroke-opacity:0.352941"
         d="m 17.70882,263.15045 c 0,0 -17.86159,22.52979 -13.4077,33.80645 5.33802,13.51517 24.30829,14.24742 37.30839,13.25743 6.41858,-0.4888 17.48832,-9.2802 17.48832,-9.2802 0,0 18.31344,12.31868 28.56424,13.25743 15.50468,1.41988 45.46961,-11.9317 45.46961,-11.9317 0,0 27.94522,15.1852 42.55489,13.25743 17.36102,-2.29081 46.05256,-28.50346 46.05256,-28.50346 L 44.52423,256.52174 Z"
         id="path242"
         sodipodi:nodetypes="caacacaccc" />
      <path
         style="fill:#70a041;fill-opacity:1;stroke-width:10.6695;stroke-linejoin:round;stroke-opacity:0.352941"
         d="m 22.93704,253.15045 c 0,0 -17.4039,22.52979 -13.06413,33.80645 5.20123,13.51517 23.47755,12.4825 36.35237,13.25743 5.39797,0.3249 15.79795,-3.69014 15.79795,-3.69014 0,0 19.06094,7.23679 29.07453,7.66737 14.76528,0.63491 43.68334,-7.58387 43.68334,-7.58387 0,0 27.76502,9.64558 42.08555,8.9096 16.1265,-0.82879 46.11472,-14.83886 46.11472,-14.83886 L 49.06531,246.52174 Z"
         id="path243"
         sodipodi:nodetypes="caacacaccc" />
      <g
         id="g241"
         transform="translate(0,-12)">
        <path
           style="fill:#7a9f4e;fill-opacity:1;stroke:none;stroke-width:4.97239;stroke-linejoin:round"
           d="m 237.43016,287.70541 c 9.19658,8.86433 21.14109,-52.4935 13.25008,-65.45192 -5.68517,-9.33604 -36.86054,-4.99284 -34.3977,0.71494 3.82311,-17.49146 -0.49893,-33.92587 -12.40605,-49.37597 -18.3707,-6.74666 -35.92058,-7.16818 -51.999,3.74893 0,0 -12.5783,-20.08317 -21.85111,-18.15852 -7.33682,1.52282 -10.14309,20.06113 -10.14309,20.06113 -21.83515,-2.03129 -32.992673,8.18425 -45.852311,16.44751 l 19.565962,81.43769 z"
           id="path66"
           sodipodi:nodetypes="cscccacccc" />
        <g
           id="g143"
           transform="matrix(0.9944788,0.19537065,0,0.9944788,215.73674,-36.783197)">
          <path
             class="cls-6"
             d="m -46.37115,180.52227 c 2.38125,19.63614 -22.34248,38.79186 -55.25138,42.78266 -32.90891,3.99081 -61.48982,-8.66045 -63.87587,-28.3363 l -1.38324,-11.40643 119.0385,-14.59678 z"
             id="path67"
             style="fill:#d62027" />
          <ellipse
             class="cls-7"
             cx="-127.73631"
             cy="161.97688"
             rx="59.970001"
             ry="35.830002"
             id="ellipse67"
             style="fill:#ef4041;fill-opacity:1"
             transform="rotate(-6.9144028)" />
          <path
             class="cls-6"
             d="m -136.70904,201.86293 a 73.73,73.73 0 0 0 25.03334,3.58238 5.89,5.89 0 0 0 5.70635,-6.60501 l -1.8672,-15.39719 a 5.89,5.89 0 0 0 -6.55624,-5.13809 l -34.62632,4.19908 a 5.9,5.9 0 0 0 -3.48244,9.9919 c 3.70943,3.84138 9.07699,7.06867 15.79251,9.36693 z"
             id="path68"
             style="fill:#d62027" />
          <path
             class="cls-6"
             d="M -57.35561,169.35342 C -58.3187,161.4116 -64.94364,154.378 -75.4443,149.93986 a 6.36,6.36 0 0 0 -7.10398,1.47595 l -21.99708,23.44869 a 6.31,6.31 0 0 0 -1.6621,5.06695 l 2.26568,18.68312 a 6.3,6.3 0 0 0 7.70391,5.38169 70.58,70.58 0 0 0 25.50301,-11.15131 c 9.47301,-6.86032 14.35558,-15.44052 13.37925,-23.49153 z"
             id="path69"
             style="fill:#d62027" />
          <path
             class="cls-6"
             d="m -138.01049,156.57463 c 6.98185,-4.83466 29.0407,-9.20646 37.24553,-11.39755 3.357537,-0.91987 8.822735,2.17248 7.362258,4.6889 -5.504831,9.48493 -12.683398,21.75545 -16.468108,22.86873 l -34.37434,5.91777 c -4.82113,0.81789 -8.48741,-4.2474 -6.20421,-8.57166 2.45056,-4.74455 6.66576,-9.37686 12.43887,-13.50619 z"
             id="path142"
             style="fill:#d62027"
             sodipodi:nodetypes="ccscccc" />
        </g>
        <path
           style="fill:#ebacca;fill-opacity:1;stroke:none;stroke-width:4.97239;stroke-linejoin:round"
           d="M 61.799945,107.06472 C 122.10383,136.90026 184.25144,165.38374 215.71647,216.36777 L 156.97538,241.64874 53.620806,152.42177 Z"
           id="path164"
           sodipodi:nodetypes="ccccc" />
        <path
           style="fill:#8cbd40;fill-opacity:1;stroke:none;stroke-width:4.97239;stroke-linejoin:round"
           d="m 11.981553,55.759207 c -9.9741553,-7.979324 49.336252,-27.7209 63.202439,-21.563187 9.990057,4.436397 9.695059,35.911465 3.717792,34.203675 16.853987,-6.04237 33.707966,-3.87129 50.561956,5.94846 9.05477,17.34969 11.73135,34.699395 2.97423,52.049075 0,0 21.53492,9.88912 20.81963,19.33251 -0.56595,7.47179 -18.58894,12.64049 -18.58894,12.64049 4.82444,21.39217 -3.87024,33.77159 -10.40982,47.58772 l -83.278514,-8.92269 z"
           id="path170"
           sodipodi:nodetypes="cscccacccc" />
        <path
           style="fill:#70a041;fill-opacity:1;stroke:none;stroke-width:4.97239;stroke-linejoin:round"
           d="m 1.6709572,49.422202 c 0,0 45.2460368,-8.646248 59.8372838,5.056672 5.589422,5.249133 3.371115,22.755021 3.371115,22.755021 0,0 42.722274,-5.63229 52.252274,9.27056 8.92043,13.949645 -12.64168,48.038395 -12.64168,48.038395 0,0 19.33896,-0.24246 23.5978,6.74223 3.45965,5.67398 2.73266,14.51873 0.53909,23.2345 -3.48032,13.82846 6.84282,14.0289 6.84282,14.0289 -6.41181,43.52615 -94.514423,-12.28782 -93.345328,-17.8795 C 43.003794,156.46259 1.6709572,49.422202 1.6709572,49.422202 Z"
           id="path174"
           sodipodi:nodetypes="cacacsscsc" />
        <path
           id="path191"
           style="fill:#600808;fill-opacity:0.0901961;stroke-width:1.15384"
           class="cls-2"
           d="M 27.311797,42.76328 C 25.476313,43.226276 7.9529434,53.086044 10.913762,39.81879 l 3.415705,197.99611 c 0.01902,18.7539 15.204096,33.96013 33.957955,34.00457 H 264.21752 c 18.77189,-0.0191 26.8069,-6.3473 26.82598,-25.11919 v -4.86362 l -59.30971,-56.09011 c -8.81682,1.65752 -16.60439,4.34446 -21.68429,9.73891 -19.81459,2.02926 -40.12214,7.51894 -57.87401,-4.89082 l -30.97645,-26.89949 -24.454085,-2.4454 c -4.914137,0 -11.814656,-52.6154 -11.286946,-79.358255 z"
           sodipodi:nodetypes="cccccccccccccc" />
        <path
           id="path239"
           style="fill:url(#linearGradient241);stroke-width:1.15384"
           class="cls-1"
           d="m 4.3923701e-4,208.32767 v 57.09304 C 8.9878566e-4,288.58546 18.766169,307.37112 41.930896,307.39675 H 258.06954 c 23.16473,-0.0257 41.93,-18.81129 41.93046,-41.97604 v -12.19155 a 18.140573,18.140573 0 0 0 -7.63873,-14.79161 l -42.40909,-30.10988 z" />
        <path
           id="path240"
           style="fill:#eab371;stroke-width:1.15384"
           class="cls-2"
           d="m 7.7332023,36.352714 c 0.2094757,1.923682 0.3481262,3.85812 0.3457367,5.805657 V 243.02367 c 0.019014,18.7539 15.204097,33.96013 33.957955,34.00457 H 257.96699 c 18.77189,-0.0191 33.98355,-15.23268 34.00262,-34.00457 v -4.86362 l -66.48634,-47.20472 c -8.81682,1.65751 -16.6044,4.34446 -21.6843,9.7389 -19.81459,2.02926 -40.12213,7.51894 -57.87401,-4.89082 l -30.97645,-26.89949 -24.454083,-2.4454 c -4.914137,0 -11.814656,-52.6154 -11.286946,-79.358255 z" />
        <path
           id="path241"
           style="fill:#c88b4b;fill-opacity:1;stroke-width:1.15384"
           class="cls-3"
           d="M -6.2096506e-7,38.78569 4.3923701e-4,243.02463 c 0,23.24057 18.84051976299,42.07911 42.08107176299,42.07911 H 257.96648 c 20.85265,-0.0229 38.1219,-15.21601 41.42999,-35.13033 0.55805,-3.35938 -1.68907,-7.7398 -4.46823,-9.71301 l -11.08171,-7.868 v 10.63223 c -0.0191,14.31114 -11.61646,25.90657 -25.9276,25.92563 H 42.035931 C 27.742829,268.90581 16.1729,257.31779 16.153911,243.02463 V 42.331965 L 7.2339207,35.282408 A 4.4652502,4.4652502 0 0 0 -6.2096506e-7,38.78569 Z"
           sodipodi:nodetypes="cssccccccccc" />
      </g>
      <path
         id="path211"
         style="fill:#e9a058;stroke-width:1.15384"
         class="cls-4"
         d="m 71.895303,69.986919 c -0.0058,0.008 -0.01164,0.0168 -0.01748,0.0253 L 45.143438,96.88644 c -1.22602,1.22483 -1.922117,2.88207 -1.938457,4.615 v 13.66049 c 2e-5,3.63868 2.949745,6.5884 6.588422,6.58842 h 9.531069 c 3.638677,2e-5 6.588402,2.94975 6.588422,6.58843 v 1.22562 c -0.01128,1.73111 -0.703427,3.38823 -1.926803,4.61306 l -27.24328,27.25493 c -1.224901,1.22461 -1.917281,2.88297 -1.926803,4.615 v 10.74115 c -0.026,3.67059 2.952757,6.65459 6.623384,6.63504 h 11.537509 c 1.732433,-0.009 3.391548,-0.7002 4.616945,-1.92486 l 9.402875,-9.40676 c 2.576469,-2.57171 6.748712,-2.57171 9.325181,0 l 5.710484,5.7707 c 2.575398,2.56963 2.575398,6.74195 0,9.31158 l -29.30799,29.308 c -1.222795,1.22601 -1.914797,2.88347 -1.926803,4.61499 v 15.00071 c 4.13e-4,3.68857 3.028746,6.65823 6.716617,6.58648 h 17.964716 c 1.734194,-0.008 3.394132,-0.70486 4.615003,-1.93651 l 50.493111,-50.48146 c 2.56963,-2.5754 6.74195,-2.5754 9.31158,0 l 2.12297,2.13463 c 2.57541,2.56964 2.57541,6.74195 0,9.31158 l -9.13871,9.14843 c -1.22608,1.22477 -1.91921,2.88396 -1.92874,4.61695 v 17.30821 c 2e-5,3.63943 2.95093,6.58947 6.59036,6.58842 h 19.9595 c 1.7322,-0.0115 3.39046,-0.70353 4.61695,-1.9268 l 26.72273,-26.7344 c 2.57624,-2.57042 6.74699,-2.57042 9.32323,0 2.56914,2.57602 2.56914,6.74528 0,9.3213 l -6.46022,6.46218 c -1.22456,1.225 -1.91746,2.88294 -1.92874,4.61499 v 8.85125 c -0.006,3.64133 2.9471,6.5948 6.58842,6.58843 h 13.63912 c 1.73273,-0.0107 3.39147,-0.70372 4.61695,-1.92875 l 23.60527,-23.60721 19.2622,-19.26026 -12.464,-8.84931 -0.0602,0.0603 c -2.56941,2.5741 -6.74023,2.5741 -9.30964,0 l -0.76334,-0.74973 c -0.18491,-0.18524 -0.3581,-0.38179 -0.5186,-0.58854 l -1.70732,-2.16959 c -1.35266,-1.72346 -1.75831,-4.00732 -1.08189,-6.09118 l -6.28347,-4.46156 c -8.81607,1.65754 -16.60281,4.34484 -21.68236,9.7389 -19.81459,2.02926 -40.12213,7.51894 -57.87401,-4.89082 0,0 -18.42026,-21.4814 -30.97645,-26.89949 -7.52163,-3.24564 -24.454082,-2.4454 -24.454082,-2.4454 -4.914136,0 -11.814655,-52.6154 -11.286945,-79.358251 z"
         sodipodi:nodetypes="cccccccscccccccccccccccccccccccccccccccccccccccccccccccccaccc" />
    </g>
  </g>
</svg>
