<?xml version="1.0" encoding="UTF-8" standalone="no"?>
<!-- Created with Inkscape (http://www.inkscape.org/) -->

<svg
   width="300"
   height="345"
   viewBox="0 0 79.374998 91.28125"
   version="1.1"
   id="svg1"
   inkscape:export-filename="baoBun.svg"
   inkscape:export-xdpi="96"
   inkscape:export-ydpi="96"
   sodipodi:docname="sandwich.svg"
   inkscape:version="1.4.2 (ebf0e940, 2025-05-08)"
   xmlns:inkscape="http://www.inkscape.org/namespaces/inkscape"
   xmlns:sodipodi="http://sodipodi.sourceforge.net/DTD/sodipodi-0.dtd"
   xmlns:xlink="http://www.w3.org/1999/xlink"
   xmlns="http://www.w3.org/2000/svg"
   xmlns:svg="http://www.w3.org/2000/svg">
  <sodipodi:namedview
     id="namedview1"
     pagecolor="#505050"
     bordercolor="#ffffff"
     borderopacity="1"
     inkscape:showpageshadow="0"
     inkscape:pageopacity="0"
     inkscape:pagecheckerboard="1"
     inkscape:deskcolor="#505050"
     inkscape:document-units="px"
     inkscape:zoom="1.6695652"
     inkscape:cx="150.03906"
     inkscape:cy="172.5"
     inkscape:current-layer="layer1">
    <inkscape:page
       x="0"
       y="0"
       width="79.375"
       height="91.28125"
       id="page2"
       margin="0"
       bleed="0" />
  </sodipodi:namedview>
  <defs
     id="defs1">
    <linearGradient
       id="linear-gradient-38"
       x1="150"
       y1="381.25"
       x2="150"
       y2="186.28999"
       gradientUnits="userSpaceOnUse">
      <stop
         offset="0.14"
         stop-color="#c88b4b"
         id="stop1-0" />
      <stop
         offset="0.25"
         stop-color="#af6d2f"
         id="stop2-2" />
    </linearGradient>
    <linearGradient
       inkscape:collect="always"
       xlink:href="#linear-gradient-2"
       id="linearGradient3"
       gradientUnits="userSpaceOnUse"
       x1="150"
       y1="362.47"
       x2="150"
       y2="159.46001" />
    <linearGradient
       id="linear-gradient-2"
       x1="150"
       y1="362.47"
       x2="150"
       y2="159.46001"
       gradientUnits="userSpaceOnUse">
      <stop
         offset="0.09"
         stop-color="#f6a9cb"
         id="stop3-4" />
      <stop
         offset="0.32"
         stop-color="#c62c6b"
         id="stop4-8" />
    </linearGradient>
    <linearGradient
       id="linear-gradient-3-3"
       x1="150"
       y1="300.14999"
       x2="150"
       y2="105.2"
       gradientUnits="userSpaceOnUse">
      <stop
         offset="0.1"
         stop-color="#c88b4b"
         id="stop8" />
      <stop
         offset="0.3"
         stop-color="#af6d2f"
         id="stop9" />
    </linearGradient>
  </defs>
  <g
     inkscape:label="Layer 1"
     inkscape:groupmode="layer"
     id="layer1">
    <g
       id="g30"
       transform="matrix(0.26458333,0,0,0.26458333,0.01485554,0)">
      <path
         class="cls-1"
         d="M 243.66,345 H 56.35 A 36.38,36.38 0 0 1 20,308.62 v -49.48 h 260 v 49.48 A 36.38,36.38 0 0 1 243.66,345 Z"
         id="path6-0"
         style="fill:url(#linear-gradient-38)" />
      <path
         class="cls-2"
         d="M 56.43,328.57 A 30.5,30.5 0 0 1 26,298.11 v -103.5 h 248 v 103.5 a 30.49,30.49 0 0 1 -30.46,30.46 z"
         id="path7-5"
         style="fill:#eab371" />
      <path
         class="cls-3"
         d="m 268,200.61 v 97.5 a 24.48,24.48 0 0 1 -24.46,24.46 H 56.43 A 24.49,24.49 0 0 1 32,298.11 v -97.5 h 236 m 12,-12 H 20 v 109.5 a 36.46,36.46 0 0 0 36.47,36.46 H 243.58 A 36.46,36.46 0 0 0 280,298.11 Z"
         id="path8-2"
         style="fill:#c88b4b;fill-opacity:0.5" />
      <path
         class="cls-4"
         d="M 247.53,324.73 H 52.47 A 37.88,37.88 0 0 1 14.59,286.84 v -51.52 h 270.83 v 51.52 a 37.88,37.88 0 0 1 -37.89,37.89 z"
         id="path9-2"
         style="fill:url(#linearGradient3)" />
      <path
         class="cls-5"
         d="m 14.59,166.05 v 114 a 38,38 0 0 0 38,38 h 194.85 a 38,38 0 0 0 38,-38 v -114 z"
         id="path10-7"
         style="fill:#f6a9cb" />
      <path
         class="cls-6"
         d="m 279.07,275.12 c 0,19.78 -26.85,35.82 -60,35.82 -33.15,0 -60,-16 -60,-35.82 V 263.63 L 279,263.47 Z"
         id="path11-3"
         style="fill:#d62027" />
      <ellipse
         class="cls-7"
         cx="219.10001"
         cy="263.47"
         rx="59.970001"
         ry="35.830002"
         id="ellipse11-79"
         style="fill:#ef4041;fill-opacity:0.5" />
      <path
         class="cls-6"
         d="m 186.82,285.43 a 73.73,73.73 0 0 0 24.42,6.57 5.89,5.89 0 0 0 6.46,-5.87 v -15.51 a 5.89,5.89 0 0 0 -5.89,-5.89 h -34.88 a 5.9,5.9 0 0 0 -4.66,9.5 c 3.22,4.26 8.16,8.11 14.55,11.2 z"
         id="path12-0"
         style="fill:#d62027" />
      <path
         class="cls-6"
         d="m 269.51,262.71 c 0,-8 -5.73,-15.78 -15.62,-21.45 a 6.36,6.36 0 0 0 -7.23,0.61 L 222,262.5 a 6.31,6.31 0 0 0 -2.26,4.83 v 18.82 a 6.3,6.3 0 0 0 7,6.27 70.58,70.58 0 0 0 26.66,-8 c 10.23,-5.67 16.11,-13.6 16.11,-21.71 z"
         id="path13-2"
         style="fill:#d62027" />
      <path
         class="cls-6"
         d="m 141.47,275.12 c 0,19.78 -26.85,35.82 -60,35.82 -33.15,0 -60,-16 -60,-35.82 v -11.49 l 119.94,-0.16 z"
         id="path14-3"
         style="fill:#d62027" />
      <ellipse
         class="cls-7"
         cx="81.5"
         cy="263.47"
         rx="59.970001"
         ry="35.830002"
         id="ellipse14-9"
         style="fill:#ef4041;fill-opacity:0.5" />
      <path
         class="cls-6"
         d="m 49.22,285.43 a 73.73,73.73 0 0 0 24.42,6.57 5.89,5.89 0 0 0 6.46,-5.87 v -15.51 a 5.89,5.89 0 0 0 -5.89,-5.89 H 39.33 a 5.9,5.9 0 0 0 -4.66,9.5 c 3.22,4.26 8.16,8.11 14.55,11.2 z"
         id="path15-9"
         style="fill:#d62027" />
      <path
         class="cls-6"
         d="m 131.91,262.71 c 0,-8 -5.74,-15.78 -15.62,-21.45 a 6.36,6.36 0 0 0 -7.23,0.61 L 84.42,262.5 a 6.31,6.31 0 0 0 -2.26,4.83 v 18.82 a 6.3,6.3 0 0 0 7,6.27 70.58,70.58 0 0 0 26.66,-8 c 10.18,-5.67 16.09,-13.6 16.09,-21.71 z"
         id="path16-7"
         style="fill:#d62027" />
      <path
         class="cls-8"
         d="m 85.64,285.34 49.47,35.05 a 11.3,11.3 0 0 1 4.77,5.92 l 7.75,14.69 28.27,-16.34 a 17.25,17.25 0 0 0 5,-5.33 l 24.82,-34.61 -60.38,-55.11 z"
         id="path17-0"
         style="fill:#dc6626" />
      <path
         class="cls-9"
         d="m 149.77,295.05 -4.45,-65.48 -59.68,55.77 49.47,35.05 a 11.3,11.3 0 0 1 4.77,5.92 l 7.75,14.69 4.75,-15.32 z"
         id="path18-3"
         style="fill:#f47e20" />
      <path
         class="cls-10"
         d="m 93.2,283.73 45.22,32.45 a 10.09,10.09 0 0 1 4.23,5.24 l 7,12.52 24.91,-14 A 15.25,15.25 0 0 0 179,315.2 l 23.16,-31.84 -54.67,-47.64 z"
         id="path19"
         style="fill:#f3b71c" />
      <path
         class="cls-11"
         d="m 145.1,316.32 a 27.43,27.43 0 0 1 6.76,-2 44.19,44.19 0 0 1 6.76,-0.59 37.66,37.66 0 0 1 6.77,0.51 24.7,24.7 0 0 1 6.76,2.05 24.39,24.39 0 0 1 -6.76,2.06 37.64,37.64 0 0 1 -6.77,0.5 44.18,44.18 0 0 1 -6.76,-0.58 27.9,27.9 0 0 1 -6.76,-1.95 z"
         id="path20-9"
         style="fill:#ffcf32" />
      <path
         class="cls-12"
         d="m 294,197.4 a 17.77,17.77 0 0 0 -3.31,-10.33 l -3.23,-4.52 a 4.53,4.53 0 0 1 0.26,-5.59 23.83,23.83 0 0 0 1.91,-28.66 l -9,-13.71 H 18.87 l -9,13.71 a 23.83,23.83 0 0 0 1.91,28.7 4.51,4.51 0 0 1 0.26,5.59 l -3.22,4.52 A 17.7,17.7 0 0 0 5.51,197.4 v 0.24 a 17.81,17.81 0 0 0 5.2,12.58 14.11,14.11 0 0 0 -4.13,10 v 7.23 a 14.14,14.14 0 0 0 3.42,9.14 l 5.73,6.68 -4.23,14.28 a 12.29,12.29 0 0 0 13.22,15.69 l 6.4,-0.76 3.63,10 A 18.43,18.43 0 0 0 64,290.21 l 11.28,-9.58 a 18.43,18.43 0 0 0 24.56,4.54 l 10.08,-6.35 17,18.62 a 12.55,12.55 0 0 0 18.33,0.23 l 3.54,-3.68 -3.54,-10.42 4.47,1.52 a 7.5,7.5 0 0 0 6.63,-0.9 l 7.91,-5.37 9.41,11.9 a 15.62,15.62 0 0 0 25.93,-2.11 l 1.49,-2.7 a 18.43,18.43 0 0 0 23.25,-5.28 l 11.28,9.58 a 18.42,18.42 0 0 0 29.24,-7.75 l 3.63,-10 6.4,0.76 a 12.29,12.29 0 0 0 13.22,-15.69 l -4.22,-14.28 5.72,-6.68 A 14.08,14.08 0 0 0 293,227.4 v -7.23 a 14.11,14.11 0 0 0 -4.13,-10 17.82,17.82 0 0 0 5.13,-12.53 z"
         id="path21-8"
         style="fill:#8cbd40" />
      <path
         class="cls-13"
         d="m 19.8,161.5 -6.91,3.79 a 4.54,4.54 0 0 0 0.13,8 l 5.12,2.57 a 4.55,4.55 0 0 1 2.48,4.35 l -0.76,11.55 a 4.56,4.56 0 0 1 -1.69,3.25 L 12,200 a 4.53,4.53 0 0 0 0.65,7.52 c 3.17,1.74 6.53,3.44 6.89,3.06 0.52,-0.54 1,8.17 1.21,12.84 a 4.52,4.52 0 0 1 -2.37,4.19 l -1.19,0.65 a 4.53,4.53 0 0 0 1.46,8.47 l 3.17,0.5 a 4.54,4.54 0 0 1 3.59,3 l 2.23,6.39 a 4.54,4.54 0 0 1 -0.51,4 l -6.34,9.5 a 4.54,4.54 0 0 0 5.45,6.74 l 12,-4.74 a 4.54,4.54 0 0 1 6.21,4.5 l -0.9,14.59 a 4.54,4.54 0 0 0 7.87,3.35 L 65.35,269.4 A 4.58,4.58 0 0 1 69,268 l 9.71,0.89 a 4.53,4.53 0 0 1 4.09,3.94 c 0.62,4.87 3.55,8.11 4.21,8.11 0.66,0 4.3,1.16 11.24,-10 a 4.13,4.13 0 0 1 4.12,-1.6 l 6,0.82 a 4.58,4.58 0 0 1 3,1.69 l 5,6.31 a 4.54,4.54 0 0 0 8,-3.7 l -0.19,-0.95 a 4.54,4.54 0 0 1 4.28,-5.43 l 15.75,-0.58 a 4.55,4.55 0 0 1 4.69,4.1 v 0 a 4.54,4.54 0 0 0 8.29,2.08 l 1.47,-2.2 a 4.53,4.53 0 0 1 3.77,-2 H 172 a 4.53,4.53 0 0 1 4.29,3.06 l 2.39,7 a 4.54,4.54 0 0 0 8.7,-0.37 l 1.57,-6.28 a 4.54,4.54 0 0 1 4.65,-3.43 l 6.69,0.36 a 4.55,4.55 0 0 1 4,2.77 l 1,2.29 a 4.54,4.54 0 0 0 8.55,-0.53 l 0.51,-1.78 a 4.54,4.54 0 0 1 4.37,-3.31 h 17.25 a 4.55,4.55 0 0 1 4,2.39 l 4,7.38 a 4.54,4.54 0 0 0 8.51,-1.61 l 0.86,-7.24 a 4.52,4.52 0 0 1 2.35,-3.46 l 8.84,-4.78 A 4.51,4.51 0 0 1 269,262 l 1,0.61 a 4.54,4.54 0 0 0 6.47,-5.86 l -0.86,-1.74 a 4.53,4.53 0 0 1 -0.27,-3.33 l 4,-13.13 a 4.53,4.53 0 0 1 3,-3 l 0.5,-0.16 a 4.54,4.54 0 0 0 0.61,-8.42 l -1.17,-0.56 a 4.55,4.55 0 0 1 -2.53,-4.66 l 1,-7.64 a 4.55,4.55 0 0 1 2.08,-3.27 l 1.41,-0.88 a 4.55,4.55 0 0 0 0.65,-7.2 l -2.69,-2.46 a 4.54,4.54 0 0 1 -1.43,-2.66 l -2.21,-14.36 a 4.58,4.58 0 0 1 1.54,-4.14 l 7.21,-6.16 a 4.53,4.53 0 0 0 -0.1,-7 l -1.55,-1.24 a 4.54,4.54 0 0 0 -5.86,0.14 l -14.3,12.67 A 4.56,4.56 0 0 0 264,181 v 56.12 a 4.55,4.55 0 0 1 -1.33,3.21 l -14.39,14.39 a 4.55,4.55 0 0 1 -3.21,1.33 H 70.53 a 4.48,4.48 0 0 1 -1.77,-0.36 L 42.41,244.47 a 4.48,4.48 0 0 1 -2.53,-2.72 l -6.44,-19 a 4.51,4.51 0 0 1 -0.24,-1.46 v -55.81 a 4.54,4.54 0 0 0 -4.54,-4.54 H 22 a 4.62,4.62 0 0 0 -2.2,0.56 z"
         id="path22-6"
         style="fill:#70a041" />
      <path
         class="cls-14"
         d="M 243.66,263.9 H 56.35 A 36.38,36.38 0 0 1 20,227.52 V 178 h 260 v 49.48 a 36.38,36.38 0 0 1 -36.34,36.42 z"
         id="path23-5"
         style="fill:url(#linear-gradient-3-3)" />
      <path
         class="cls-2"
         d="M 56.43,247.47 A 30.5,30.5 0 0 1 26,217 V 168.49 A 45,45 0 0 0 18.77,144 79.84,79.84 0 0 1 85.94,20.44 c 1.69,0 3.41,0 5.12,0.15 a 79.7,79.7 0 0 1 43.68,16.24 25.08,25.08 0 0 0 30.53,0 A 79.67,79.67 0 0 1 209,20.59 c 1.7,-0.1 3.43,-0.15 5.12,-0.15 a 80.17,80.17 0 0 1 67.12,123.56 45,45 0 0 0 -7.2,24.48 V 217 a 30.49,30.49 0 0 1 -30.46,30.46 z"
         id="path24-7"
         style="fill:#eab371" />
      <path
         class="cls-3"
         d="M 214.07,26.44 A 74.17,74.17 0 0 1 276.2,140.76 51,51 0 0 0 268,168.49 V 217 a 24.48,24.48 0 0 1 -24.46,24.46 H 56.43 A 24.49,24.49 0 0 1 32,217 V 168.49 A 51,51 0 0 0 23.85,140.76 73.84,73.84 0 0 1 85.93,26.44 v 0 c 1.58,0 3.19,0 4.77,0.14 a 73.72,73.72 0 0 1 40.4,15 31.08,31.08 0 0 0 37.81,0 73.72,73.72 0 0 1 40.4,-15 c 1.59,-0.09 3.19,-0.14 4.76,-0.14 m 0,-12 c -1.81,0 -3.64,0.05 -5.48,0.16 a 85.75,85.75 0 0 0 -47,17.46 19.08,19.08 0 0 1 -23.25,0 85.75,85.75 0 0 0 -47,-17.46 c -1.84,-0.11 -3.67,-0.16 -5.48,-0.16 -49.12,0 -88,40 -85.86,89.88 a 85.74,85.74 0 0 0 13.65,43 39.11,39.11 0 0 1 6.35,21.17 V 217 a 36.46,36.46 0 0 0 36.47,36.46 H 243.58 A 36.46,36.46 0 0 0 280,217 v -48.51 a 39.12,39.12 0 0 1 6.24,-21.22 85.83,85.83 0 0 0 13.65,-43 C 302,54.4 263.14,14.39 214.03,14.39 Z"
         id="path25-6"
         style="fill:#c88b4b;fill-opacity:1" />
      <path
         class="cls-15"
         d="m 253.81,156 h -1.43 a 5.34,5.34 0 0 0 -3.78,1.56 l -13.71,13.71 a 5.33,5.33 0 0 1 -7.55,0 l -0.62,-0.61 a 4.81,4.81 0 0 1 -0.42,-0.48 l -1.39,-1.76 a 5.34,5.34 0 0 1 0.43,-7.08 l 10.22,-10.23 a 5.34,5.34 0 0 0 1.56,-3.77 v -8.75 a 5.34,5.34 0 0 0 -5.34,-5.34 h -7.06 a 5.35,5.35 0 0 1 -5.3,-4.66 5.33,5.33 0 0 0 1.46,-3.65 v -8.7 a 5.35,5.35 0 0 0 -5.34,-5.35 h -9.39 a 5.35,5.35 0 0 0 -3.78,1.57 l -7.62,7.62 a 5.34,5.34 0 0 1 -7.56,0 l -4.63,-4.63 a 5.35,5.35 0 0 1 0,-7.55 l 23.77,-23.76 a 5.36,5.36 0 0 0 1.56,-3.78 V 68.18 a 5.34,5.34 0 0 0 -5.34,-5.34 h -14.61 a 5.34,5.34 0 0 0 -3.77,1.56 l -40.94,40.94 a 5.35,5.35 0 0 1 -7.55,0 L 134,103.61 a 5.36,5.36 0 0 1 0,-7.56 l 7.42,-7.41 a 5.34,5.34 0 0 0 1.56,-3.78 v -14 a 5.34,5.34 0 0 0 -5.34,-5.34 H 121.4 a 5.34,5.34 0 0 0 -3.77,1.56 L 96,88.75 a 5.35,5.35 0 0 1 -7.55,0 v 0 a 5.34,5.34 0 0 1 0,-7.56 L 93.63,76 A 5.3,5.3 0 0 0 95.2,72.23 V 65 A 5.34,5.34 0 0 0 89.86,59.66 H 78.79 A 5.3,5.3 0 0 0 75,61.26 L 55.87,80.4 v 0 l -28.06,28.05 a 5.34,5.34 0 0 0 -1.56,3.78 v 0.85 a 5.34,5.34 0 0 0 5.34,5.34 H 33 a 5.34,5.34 0 0 0 3.78,-1.56 l 13.71,-13.71 a 5.34,5.34 0 0 1 7.56,0 l 0.61,0.61 a 6.14,6.14 0 0 1 0.42,0.47 l 1.41,1.77 a 5.35,5.35 0 0 1 -0.42,7.08 L 49.84,123.3 a 5.34,5.34 0 0 0 -1.56,3.78 v 8.75 a 5.34,5.34 0 0 0 5.34,5.34 h 7.06 l 5.56,6.58 -1.72,10.43 a 5.34,5.34 0 0 0 5.34,5.34 h 9.39 A 5.34,5.34 0 0 0 83,162 l 7.62,-7.63 a 5.36,5.36 0 0 1 7.56,0 l 4.63,4.63 a 5.36,5.36 0 0 1 0,7.56 l -23.73,23.72 a 5.31,5.31 0 0 0 -1.57,3.78 v 12.17 a 5.35,5.35 0 0 0 5.34,5.35 h 14.61 a 5.37,5.37 0 0 0 3.78,-1.57 l 40.93,-40.93 a 5.33,5.33 0 0 1 7.55,0 l 1.73,1.72 a 5.34,5.34 0 0 1 0,7.56 l -7.45,7.41 a 5.31,5.31 0 0 0 -1.57,3.78 v 14 a 5.35,5.35 0 0 0 5.34,5.35 H 164 a 5.35,5.35 0 0 0 3.78,-1.57 l 21.67,-21.67 a 5.3421929,5.3421929 0 0 1 7.56,7.55 l -5.24,5.24 a 5.35,5.35 0 0 0 -1.57,3.78 v 7.14 a 5.35,5.35 0 0 0 5.35,5.34 h 11.06 a 5.38,5.38 0 0 0 3.78,-1.56 L 229.53,194 v 0 l 28.06,-28 a 5.34,5.34 0 0 0 1.56,-3.78 v -0.84 A 5.34,5.34 0 0 0 253.81,156 Z"
         id="path26-2"
         style="fill:#e9a058" />
      <ellipse
         class="cls-16"
         cx="157.88"
         cy="125.07"
         rx="10"
         ry="5.21"
         id="ellipse26"
         style="fill:#c67e41" />
      <path
         class="cls-17"
         d="m 155.84,92.47 4.66,32 a 2.61,2.61 0 0 1 -2.12,2.94 v 0 a 2.6,2.6 0 0 1 -3,-2 l -6.63,-31.67 z"
         id="path27-7"
         style="fill:#9a3e21" />
      <ellipse
         class="cls-18"
         cx="149.96001"
         cy="79.919998"
         rx="38.299999"
         ry="30.82"
         transform="rotate(-10.05,149.93181,79.885254)"
         id="ellipse27"
         style="fill:#6c9355" />
      <path
         class="cls-19"
         d="m 164.85,94.71 c -5.38,12 -18.42,13.71 -31,8.06 C 121.27,97.12 114.52,85 119.37,74.22 c 4.85,-10.78 15.85,-8 28.41,-2.34 12.56,5.66 22.46,10.87 17.07,22.83 z"
         id="path28-0"
         style="fill:#617c4d" />
      <ellipse
         class="cls-20"
         cx="167.94"
         cy="76.730003"
         rx="14.5"
         ry="19.01"
         transform="rotate(-10.05,167.86107,76.705502)"
         id="ellipse28"
         style="fill:#ce2235" />
      <path
         class="cls-21"
         d="m 164.62,58 a 12.92,12.92 0 0 0 -3.07,1 c 6.74,0.42 12.3,5.9 14.16,16.38 1.86,10.48 -1.71,17.47 -7.71,20.2 a 12,12 0 0 0 3.22,-0.13 c 7.87,-1.4 13.13,-9 11,-21.25 -2.13,-12.25 -9.36,-17.65 -17.6,-16.2 z"
         id="path29-3"
         style="fill:#8c141c" />
      <path
         class="cls-17"
         d="m 138.36,14.44 a 79.39,79.39 0 0 1 3.89,10.77 c 1.08,3.63 1.9,7.31 2.68,11 0.78,3.69 1.49,7.38 2.11,11.09 0.62,3.71 1.12,7.45 1.39,11.22 l -4.39,0.78 c -1,-3.64 -1.82,-7.32 -2.54,-11 -0.72,-3.68 -1.33,-7.4 -1.84,-11.13 -0.51,-3.73 -1,-7.47 -1.26,-11.25 a 81,81 0 0 1 -0.04,-11.48 z"
         id="path30-9"
         style="fill:#9a3e21" />
    </g>
  </g>
</svg>
