<?xml version="1.0" encoding="UTF-8"?><svg id="Layer_1" xmlns="http://www.w3.org/2000/svg" xmlns:xlink="http://www.w3.org/1999/xlink" viewBox="0 0 50 50.00006"><defs><style>.cls-1{fill:#11217f;}.cls-2{opacity:.49;}.cls-2,.cls-3,.cls-4{fill:#9ddcf8;}.cls-5{fill:#774b3c;}.cls-6{fill:#111ba3;}.cls-7{fill:#2195d7;}.cls-8{fill:url(#linear-gradient);}.cls-4{opacity:.29;}.cls-9{opacity:.42;}.cls-9,.cls-10{fill:#134fa7;}</style><linearGradient id="linear-gradient" x1="25.00099" y1="20.75076" x2="25.00099" y2="39.31299" gradientUnits="userSpaceOnUse"><stop offset="0" stop-color="#4db5e7"/><stop offset="1" stop-color="#134fa7"/></linearGradient></defs><g><path class="cls-5" d="M25.00024,43.84589c-1.12598,0-2.18457-.43945-2.98047-1.23535L7.38892,27.98065c-1.64258-1.64355-1.64258-4.31738,0-5.96094L22.01978,7.38983c.7959-.7959,1.85449-1.23438,2.98047-1.23438h0c1.12598,0,2.18359,.43848,2.97949,1.23438l14.63086,14.62988c1.64355,1.64355,1.64355,4.31738,0,5.96094l-14.63086,14.62988c-.7959,.7959-1.85352,1.23535-2.97949,1.23535Z"/><path class="cls-6" d="M25,7.15485c.82272,0,1.64545,.31384,2.27316,.94159l14.63043,14.63043c1.25543,1.25543,1.25543,3.29089,0,4.54633l-14.63043,14.63043c-.62772,.62769-1.45044,.94159-2.27316,.94159s-1.64546-.3139-2.27318-.94159l-14.63042-14.63043c-1.25543-1.25543-1.25543-3.29089,0-4.54633l14.63042-14.63043c.62772-.62775,1.45045-.94159,2.27318-.94159m0-2c-1.39291,0-2.70244,.54242-3.68738,1.52734L6.68219,21.31268c-.98492,.98492-1.52736,2.29443-1.52736,3.68738s.54243,2.70239,1.52737,3.68738l14.6304,14.63037c.98495,.98499,2.29449,1.5274,3.68739,1.5274s2.70245-.54242,3.68738-1.5274l14.63043-14.63043c.98492-.98492,1.52737-2.29443,1.52737-3.68732s-.54245-2.70245-1.52737-3.68744L28.68736,6.68225c-.98491-.98499-2.29445-1.5274-3.68736-1.5274h0Z"/></g><g><path class="cls-5" d="M25.00024,44.84589c-1.39258,0-2.70215-.54297-3.6875-1.52832L6.68188,28.68768c-2.03223-2.0332-2.03223-5.3418-.00098-7.375L21.31274,6.6828c.98535-.98535,2.29492-1.52734,3.6875-1.52734h0c1.39258-.00098,2.70215,.54199,3.6875,1.52734l14.62988,14.62988c2.0332,2.0332,2.0332,5.3418,0,7.375l-14.63086,14.62988c-.98438,.98535-2.29395,1.52832-3.68652,1.52832Z"/><path class="cls-1" d="M25,7.15485c.82272,0,1.64545,.31384,2.27316,.94159l14.63043,14.63043c1.25543,1.25543,1.25543,3.29089,0,4.54633l-14.63043,14.63043c-.62772,.62775-1.45044,.94159-2.27316,.94159s-1.64545-.31384-2.27318-.94159l-14.63042-14.63043c-1.25543-1.25543-1.25543-3.29089,0-4.54633l14.63042-14.63043c.62773-.62775,1.45045-.94159,2.27318-.94159m0-4c-1.92709,0-3.73888,.75049-5.10158,2.11316L5.26797,19.89844c-2.81302,2.81305-2.81302,7.39014,0,10.20319l14.63043,14.63043c1.36272,1.36267,3.1745,2.11316,5.10159,2.11316s3.73891-.75049,5.10159-2.11316l14.63043-14.63043c2.81302-2.81305,2.81302-7.39014,.00003-10.20319L30.10159,5.26801c-1.36269-1.36267-3.17447-2.11316-5.10159-2.11316h0Z"/></g><path class="cls-3" d="M42.84672,25.00208c0,.8169-.31304,1.64144-.94668,2.26744l-10.85634,10.86398-3.77146,3.77146c-1.25203,1.25203-3.29048,1.25203-4.54256,0l-14.63539-14.63544c-.62604-.62599-.93903-1.45053-.93903-2.26744,0-.82454,.313-1.64909,.93903-2.27508l14.63539-14.6278c1.25208-1.25967,3.29053-1.25967,4.54256,0l14.6278,14.6278c.63363,.62599,.94668,1.45053,.94668,2.27508Z"/><path class="cls-7" d="M39.8998,25.00208c0,1.06885-.31304,2.15295-.95432,2.96985l-7.90177,10.16157-3.77146,3.77146c-.13742,.13742-.27483,.25191-.42753,.3588-.06868,.05345-.14506,.09925-.22138,.13742-.25195,.1527-.52678,.26724-.80926,.33592-.13742,.03816-.28247,.06873-.42753,.08397-.94668,.11454-1.93156-.19086-2.65685-.91611l-14.63539-14.63544c-1.25208-1.25203-1.25208-3.29048,0-4.54251l7.09251-7.09251s.0076-.00764,.01524-.01524l3.08438-3.07674,4.44326-4.44331c1.25208-1.25967,3.29053-1.25967,4.54256,0l3.35921,3.36686c.03816,.03816,.06868,.06104,.09161,.08397l.34356,.34356,7.87885,10.131c.64128,.82454,.95432,1.8934,.95432,2.97749Z"/><path class="cls-2" d="M30.63146,11.46606c-.9238-.77874-5.63429-4.64945-5.63429-2.15295v9.9707l-4.06158,.41225s3.55008-6.21452,2.57284-9.21489c-.54966-1.67961-3.09198,.13742-5.222,2.06133l4.44326-4.44331c1.25208-1.25967,3.29053-1.25967,4.54256,0l3.35921,3.36686Z"/><path class="cls-9" d="M39.8998,25.00208c0,1.06885-.31304,2.15295-.95432,2.96985l-3.87072,4.97769-4.03106,5.18388-3.77146,3.77146c-.13742,.13742-.27483,.25191-.42753,.3588-.06868,.05345-.14506,.09925-.22138,.13742-.25195,.1527-.52678,.26724-.80926,.33592-.14506,.03816-.28247,.06873-.42753,.08397V25.00208h14.51326Z"/><path class="cls-10" d="M23.89015,33.26266l1.49359-3.55255v-4.70803H7.15526c0,.8169,.313,1.64144,.93903,2.26744l12.70602,12.70607c-9.85908-9.03766-6.72639-13.80734,3.08983-6.71293Z"/><path class="cls-10" d="M35.07477,32.94962l-4.03106,5.18388-3.77146,3.77146c-.13742,.13742-.27483,.25191-.42753,.3588-.06868,.05345-.14506,.09925-.22138,.13742-.25195,.1527-.52678,.26724-.80926,.33592-.14506,.03816-.28247,.06873-.42753,.08397v-15.68132h6.84052s-5.21436,8.24529-2.6568,8.32166c1.24443,.03816,3.50427-1.20627,5.50452-2.51179Z"/><path class="cls-3" d="M33.25775,26.1091l-7.14592,7.15356c-.6108,.61075-1.61092,.61075-2.22168,0l-7.14592-7.15356c-.37408-.37408-.52678-.88563-.43517-1.37421,.04581-.31304,.19851-.6108,.43517-.84747l7.14592-7.14592c.61075-.61075,1.61088-.61075,2.22168,0l7.14592,7.14592c.24431,.23667,.38937,.53443,.43517,.84747,.09161,.48857-.06109,1.00012-.43517,1.37421Z"/><path class="cls-8" d="M33.25775,26.1091l-7.14592,7.15356c-.6108,.61075-1.61092,.61075-2.22168,0l-5.77171-5.77935-.00764-.00764-1.36657-1.36657c-.37408-.37408-.52678-.88563-.43517-1.37421l7.18408-5.0159c.83219-.58023,2.18351-.58023,3.01565,0l5.00061,3.48899,2.18351,1.52691c.09161,.48857-.06109,1.00012-.43517,1.37421Z"/><path class="cls-4" d="M33.25775,26.1091l-7.14592,7.15356c-.6108,.61075-1.61092,.61075-2.22168,0l-5.77171-5.77935c.21379,.13742,5.20396,4.55964,7.2653,3.59004,1.18225-.55371,4.11596-3.09347,5.51619-5.21748,.74275-1.12669,.21786-2.25096,.60948-2.64788l2.18351,1.52691c.09161,.48857-.06109,1.00012-.43517,1.37421Z"/></svg>