<?xml version="1.0" encoding="UTF-8"?>
<svg id="Layer_1" data-name="Layer 1" xmlns="http://www.w3.org/2000/svg" xmlns:xlink="http://www.w3.org/1999/xlink" viewBox="0 0 50 50.00006">
  <defs>
    <style>
      .cls-1 {
        fill: #f7d00a;
      }

      .cls-2, .cls-3 {
        fill: #e53a1f;
      }

      .cls-4 {
        fill: #cc111e;
      }

      .cls-5 {
        fill: #a50024;
      }

      .cls-6 {
        fill: #db6900;
      }

      .cls-3 {
        opacity: .64;
      }

      .cls-7 {
        fill: #bf0a1c;
      }

      .cls-8 {
        fill: url(#linear-gradient);
      }

      .cls-9 {
        fill: #e25b00;
      }

      .cls-10 {
        fill: #f9ab08;
      }
    </style>
    <linearGradient id="linear-gradient" x1="24.9967" y1="35.45286" x2="24.9967" y2="11.51055" gradientUnits="userSpaceOnUse">
      <stop offset="0" stop-color="#f79b0a"/>
      <stop offset="1" stop-color="#db6900"/>
    </linearGradient>
  </defs>
  <path class="cls-7" d="M46.79365,23.26901c-.04469,1.12531-.1348,2.16059-.28499,3.09084-.01502,0-.01502,.01493-.01502,.01493-1.60554,9.96274-9.10759,9.28754-11.50802,8.79247-.31503-.075-.54031-.13508-.66009-.16511-.06007-.01493-.10513-.02995-.16521-.05998l-6.33168-2.82078c-1.30517-.57016-1.29051-2.8358,.01502-3.39094l16.96972-7.23199c.99014-.42007,2.01031,.51018,1.98028,1.77056Z"/>
  <path class="cls-4" d="M30.7643,26.86724l4.22491,.19788,2.5026,.10795c.05894,0,.10315,0,.17683-.01801,1.10412-.10795,12.13058-1.61918,8.87716-15.8506-.27998-1.22342-1.4869-1.72712-2.31139-.9535l-3.85723,3.59832c-.01438,.0179-.02947,.0179-.02947,.0179l-10.42264,9.6795c-1.10412,1.02554-.54451,3.16654,.83923,3.22057Z"/>
  <path class="cls-5" d="M45.11742,9.98228c.62992,0,1.2397,.49765,1.42839,1.32217,1.05991,4.65988,.60345,7.97028-.55961,10.29127,.48594,.30582,.8245,.93549,.79503,1.6732-.3519,10.40216-5.83844,12.13479-9.43652,12.13479-1.51741,0-2.69913-.30824-3.01791-.40433-.05893-.0179-.11788-.03591-.17682-.05391l-6.31562-2.8247c-1.31007-.57574-1.29533-2.8247,.01509-3.38243l4.23965-1.81717-1.3248-.05392c-1.38375-.05402-1.94334-2.19503-.83922-3.22057l14.30934-13.29572c.26883-.25224,.57825-.36867,.883-.36867m0-2.85837c-1.04542,0-2.05362,.40579-2.83888,1.14262l-14.29911,13.28617c-1.23342,1.14563-1.74849,2.93256-1.37641,4.61188-1.57198,.72791-2.59123,2.37816-2.60212,4.24028-.01116,1.91072,1.04216,3.61141,2.68342,4.33271l6.29864,2.81717,.16224,.07257,.16997,.0519,.18092,.05517c.41511,.12513,1.90196,.5277,3.84861,.5277,3.5447,0,11.83842-1.45152,12.29325-14.89651,.0303-.75786-.11359-1.49701-.40378-2.16065,.98629-2.94812,1.02063-6.48166,.0988-10.53441-.47821-2.0897-2.21138-3.54659-4.21557-3.54659h0Z"/>
  <path class="cls-2" d="M34.98921,27.06512l2.5026,.10795c.05894,0,.10315,0,.17683-.01801,1.10412-.10795,12.13058-1.61918,8.87716-15.8506-.27998-1.22342-1.4869-1.72712-2.31139-.9535l-3.85723,3.59832c.41261-.28793,4.19614-1.21794,4.33505-.72792s2.54018,6.88102-5.52723,11.12702c-1.88441,.98952-3.23868,1.8891-4.1958,2.71675Z"/>
  <path class="cls-3" d="M46.49364,26.37477c-1.60554,9.96274-9.10759,9.28754-11.50802,8.79247v-2.73076s8.04236,.70515,11.50802-6.06171Z"/>
  <path class="cls-7" d="M3.20619,23.26901c.04469,1.12531,.1348,2.16059,.28499,3.09084,.01502,0,.01502,.01493,.01502,.01493,1.60554,9.96274,9.10759,9.28754,11.50802,8.79247,.31503-.075,.54031-.13508,.66009-.16511,.06007-.01493,.10513-.02995,.16521-.05998l6.33168-2.82078c1.30517-.57016,1.29051-2.8358-.01502-3.39094L5.18646,21.49844c-.99014-.42007-2.01031,.51018-1.98028,1.77056Z"/>
  <path class="cls-4" d="M19.23554,26.86724l-4.22491,.19788-2.5026,.10795c-.05894,0-.10315,0-.17683-.01801-1.10412-.10795-12.13058-1.61918-8.87716-15.8506,.27998-1.22342,1.4869-1.72712,2.31139-.9535l3.85723,3.59832c.01438,.0179,.02947,.0179,.02947,.0179l10.42264,9.6795c1.10412,1.02554,.54451,3.16654-.83923,3.22057Z"/>
  <path class="cls-5" d="M4.88242,9.98228c.30475-.00002,.61417,.11643,.883,.36867l14.30934,13.29572c1.10412,1.02553,.54452,3.16655-.83923,3.22057l-1.32479,.05392,4.23965,1.81717c1.31042,.55773,1.32516,2.80669,.01509,3.38243l-6.31562,2.8247c-.05894,.018-.11788,.03601-.17682,.05391-.31878,.09609-1.50049,.40433-3.0179,.40433-3.59807,0-9.08461-1.73262-9.43651-12.13479-.02948-.73771,.30909-1.36738,.79502-1.6732-1.16307-2.32099-1.61952-5.63139-.55961-10.29127,.1887-.82452,.79847-1.32214,1.42839-1.32217m.00004-2.85837h-.00016c-2.00412,.0001-3.73723,1.45698-4.21461,3.54287-.92273,4.05675-.88833,7.59136,.09858,10.53996-.2905,.6664-.43436,1.41017-.40374,2.17631,.45419,13.42751,8.7479,14.87903,12.2926,14.87903,1.94666,0,3.4335-.40257,3.84283-.52596l.16689-.05086,.16993-.0519,.18209-.07862,6.31562-2.8247c1.62428-.71377,2.67759-2.41446,2.66643-4.32518-.01087-1.85968-1.02753-3.50807-2.60216-4.24007,.37223-1.67943-.14289-3.46642-1.37674-4.61245L7.71106,8.25697c-.77502-.72728-1.78321-1.13306-2.8286-1.13306h0Z"/>
  <path class="cls-2" d="M15.01062,27.06512l-2.5026,.10795c-.05894,0-.10315,0-.17683-.01801-1.10412-.10795-12.13058-1.61918-8.87716-15.8506,.27998-1.22342,1.4869-1.72712,2.31139-.9535l3.85723,3.59832c-.41261-.28793-4.19614-1.21794-4.33505-.72792s-2.54018,6.88102,5.52723,11.12702c1.88441,.98952,3.23868,1.8891,4.1958,2.71675Z"/>
  <path class="cls-3" d="M3.5062,26.37477c1.60554,9.96274,9.10759,9.28754,11.50802,8.79247v-2.73076s-8.04236,.70515-11.50802-6.06171Z"/>
  <path class="cls-9" d="M24.99623,12.71991c.97408,0,1.94815,.45552,2.44905,1.36656l2.78127,5.05863c.39781,.72355,1.16679,1.22506,2.05632,1.34108l6.2191,.81119c2.24008,.29219,3.13452,2.76326,1.51359,4.18155l-4.50019,3.9376c-.64367,.5632-.93739,1.37466-.78543,2.16991l1.06234,5.55998c.30276,1.5845-1.09995,2.87138-2.69126,2.87138-.41995,0-.85302-.08962-1.27137-.28704l-5.56253-2.62507c-.39781-.18773-.83434-.2816-1.27088-.2816s-.87307,.09387-1.27088,.2816l-5.56253,2.62507c-.41823,.19737-.85154,.28704-1.27138,.28704-1.59146,0-2.99404-1.28676-2.69126-2.87138l1.06234-5.55998c.15196-.79526-.14177-1.60671-.78544-2.16991l-4.50019-3.9376c-1.62092-1.41829-.72648-3.88935,1.5136-4.18155l6.2191-.81119c.88953-.11602,1.65851-.61753,2.05632-1.34108l2.78127-5.05863c.50089-.91104,1.47497-1.36656,2.44905-1.36656m0-2.85836c-2.08983,0-3.98801,1.09121-4.9538,2.84779l-2.71678,4.94135-6.20485,.81233c-2.22169,.28979-3.98772,1.74181-4.60894,3.78942-.59043,1.94616,.01607,4.00675,1.58281,5.37763l4.29558,3.75857-.99763,5.22132c-.2864,1.49891,.11179,3.03868,1.09247,4.22448,1.0573,1.27846,2.70454,2.04171,4.40637,2.04171,.86506,0,1.70323-.18854,2.49126-.56042l5.56256-2.62508c.00483-.00228,.02343-.00821,.05098-.00821s.04614,.00593,.05099,.00821l5.56252,2.62507c.78802,.37188,1.6262,.56043,2.49127,.56043,1.70177,0,3.349-.76328,4.40635-2.04179,.98069-1.18582,1.37889-2.72556,1.0925-4.22441l-.99764-5.22132,4.29557-3.75856c1.56675-1.37088,2.17326-3.43147,1.58282-5.37762-.62121-2.04762-2.38726-3.49964-4.60894-3.78943l-6.20308-.8091-2.71856-4.94458c-.96576-1.75658-2.86395-2.84779-4.9538-2.84779h0Z"/>
  <path class="cls-1" d="M40.20274,25.25663c-.03487,.07816-.10461,.15631-.19179,.21892l-4.4936,3.94003c-.64468,.56294-.94065,1.37591-.78373,2.17333l1.06227,5.55051c.38315,2.01701-1.96805,3.53359-3.9714,2.59551l-5.5563-2.62672c-.80117-.37523-1.74182-.37523-2.54299,0l-5.55672,2.62672c-2.00292,.93808-4.35454-.5785-3.97097-2.59551l1.06227-5.55051c.15692-.79742-.13948-1.61039-.78373-2.17333l-4.4936-3.94003c-.0876-.0626-.15692-.14076-.19179-.21892-1.34123-1.42277-.43545-3.68991,1.70695-3.95568l6.21841-.81307c.88792-.12511,1.65464-.62545,2.05523-1.34461l2.76964-5.05017c1.00997-1.8294,3.90123-1.8294,4.91162,0l2.76964,5.05017c.40058,.71916,1.16688,1.2195,2.05523,1.34461l6.21841,.81307c2.1424,.26577,3.04818,2.53291,1.70695,3.95568Z"/>
  <path class="cls-10" d="M35.51735,29.41558c-.64468,.56294-.94065,1.37591-.78373,2.17333l1.06227,5.55051c.38315,2.01701-1.96805,3.53359-3.9714,2.59551l-5.5563-2.62672c-.80117-.37523-1.74182-.37523-2.54299,0l-5.55672,2.62672c-2.00292,.93808-4.35454-.5785-3.97097-2.59551l1.06227-5.55051c.15692-.79742-.13948-1.61039-.78373-2.17333l-4.4936-3.94003c-.0876-.0626-.15692-.14076-.19179-.21892,.40058-.43774,.99296-.75046,1.70695-.84427l6.21841-.81307c.88792-.12511,1.65464-.62545,2.05523-1.34461l2.76964-5.05017c1.00997-1.8294,3.90123-1.8294,4.91162,0l2.76964,5.05017c.40058,.71916,1.16688,1.2195,2.05523,1.34461l6.21841,.81307c.71399,.09381,1.30636,.40653,1.70695,.84427-.03487,.07816-.10461,.15631-.19179,.21892l-4.4936,3.94003Z"/>
  <path class="cls-6" d="M33.514,27.06274c-.01701,.03487-.05188,.06963-.10461,.12194l-2.52513,2.19471c-.06974,.06963-.12205,.12194-.19179,.20901v.01744c-.20922,.27864-.31341,.64446-.24367,.99274l.34785,1.81156,.24409,1.30636c.22623,1.13212-1.09714,1.96826-2.21214,1.44574l-3.11792-1.48061c-.45289-.20901-.97552-.20901-1.42798,0l-3.11792,1.48061c-1.115,.52252-2.4388-.31362-2.21214-1.44574l.24367-1.30636,.34828-1.81156c.06974-.34828-.03487-.7141-.24367-.99274v-.01744c-.06974-.08707-.12205-.13938-.19179-.20901l-2.52555-2.19471c-.05231-.05231-.08718-.08707-.10419-.12194-.59237-.64446-.40058-1.58501,.33084-2.00313,.17393-.12194,.38315-.19157,.62682-.22644l.47032-.06963,3.01331-.38315c.48776-.06974,.92321-.34838,1.14987-.74908l1.55003-2.83907c.57494-1.02772,2.17727-1.02772,2.75221,0l1.55003,2.83907c.22666,.40069,.66211,.67933,1.14987,.74908l3.01331,.38315,.47032,.06963c.24367,.03487,.45246,.1045,.62682,.22644,.73143,.41813,.92321,1.35867,.33084,2.00313Z"/>
  <path class="cls-8" d="M31.85936,25.96539c-.01744,.03487-.03487,.06963-.08718,.12194l-2.03779,2.00313c-.05231,.0522-.08718,.12183-.13948,.19157v.01744c-.17393,.24377-.2611,.57472-.2088,.90567l.27854,1.65475,.20922,1.18442c.17393,1.04515-.88834,1.81156-1.79412,1.34123l-2.50854-1.35867c-.36571-.19157-.78331-.19157-1.14945,0l-2.50812,1.35867c-.90578,.47032-1.96848-.29608-1.79412-1.34123l.20922-1.18442,.27854-1.65475c.05231-.33095-.03487-.6619-.2088-.90567v-.01744c-.05273-.06974-.08718-.13938-.13948-.19157l-2.03779-2.00313c-.05273-.05231-.06974-.08707-.08718-.12194-.2964-.36582-.34828-.8186-.22666-1.20186l3.01331-.38315c.48776-.06974,.92321-.34838,1.14987-.74908l1.55003-2.83907c.57494-1.02772,2.17727-1.02772,2.75221,0l1.55003,2.83907c.22666,.40069,.66211,.67933,1.14987,.74908l3.01331,.38315c.12162,.38326,.06974,.83604-.22666,1.20186Z"/>
</svg>