<?xml version="1.0" encoding="UTF-8"?>
<svg id="Layer_1" data-name="Layer 1" xmlns="http://www.w3.org/2000/svg" xmlns:xlink="http://www.w3.org/1999/xlink" viewBox="0 0 300 345">
  <defs>
    <linearGradient id="linear-gradient" x1="150.00593" y1="833.41111" x2="150.00593" y2="1028.3611" gradientTransform="translate(0 1213.3711) scale(1 -1)" gradientUnits="userSpaceOnUse">
      <stop offset="0" stop-color="#a7a9ac"/>
      <stop offset=".41006" stop-color="#58595b"/>
    </linearGradient>
  </defs>
  <path d="M263.62592,345H36.38593C16.29381,345,.00593,328.71213,.00593,308.62h0v-49.47998H300.00593v49.48001c0,20.0921-16.2879,36.37997-36.38,36.37997Z" fill="url(#linear-gradient)"/>
  <path d="M300.008,189.93901v72.06c0,20.08997-16.29004,36.38-36.38,36.38H36.388C16.29798,298.37901,.008,282.08897,.008,261.99901v-72.06C.008,180.46898,3.638,147.76903,21.448,115.81901c19.96997-35.84003,57.77997-70.73004,128.28998-70.82001h.27002c13.66998-.06,27.31,1.42999,40.64996,4.45001,4.09003-2.57001,7.58002-5.55005,9.40002-9,6.62-12.51001,12.85999-8.5,16.31-4.60004,1.06,1.20001,1.94,3.88,1.94,7.19,0,4.07001-1.34003,9.09003-5.38,13.40002,.56-.5,1.09003-1.04004,1.59003-1.60999,9.04999-10.87,14.32996-5.66003,16.89996-1.14001,1.10999,1.95996,1.27002,6.72998-.95001,11.52997,60.39001,36.19,69.54004,109.70001,69.54004,124.72003Z" fill="#414042"/>
  <path d="M50.05799,12.91899l-29.90997,20.35999s-2.26001,15.68005-8.88,17.43005c-6.62,1.73999-4.46002-14.39001-4.46002-14.39001,0,0-.08002,.70001-2.89001,1.64001-2.75,.91998,.55005-6.53003,.69-6.86005-.19,.09003-2.84998,1.39001-4.12-1.09998-1.32996-2.57001,5.53003-10.46002,5.53003-10.46002,0,0-5.53003-.92999-6.01001-4.83997-.47998-3.90002,10-6.16003,10-6.16003,0,0-8.34998-1.39996-6.32001-6.95001,1.08002-2.94,7.13-.59998,12.56,2.23004-.19-1.60999-.02002-3.14001,1.16998-3.40002,1.67004-.34998,4.34003,1.34003,6.02002,2.58002C22.28797,1.869,21.53797,.309,25.61798-.00099c6.54999-.5,13.03003,2.76001,13.03003,2.76001C38.64801,2.75902,37.78797-.00099,43.948-.00099c5.71002,0,3.77997,6.16998,3.46997,7.08997,.26001-.50995,1.79004-2.50995,10.04004-2.37,9.44,.15002-7.40002,8.20001-7.40002,8.20001Z" fill="#dae6f5"/>
  <path d="M236.00593,124.25c-41.5-3.91-66,28.66-70,71.31-.45108,4.69231-.62137,9.40738-.50999,14.12h-31c.11137-4.71262-.05891-9.42769-.50999-14.12-4-42.64999-28.55-75.22-70-71.31S4.43593,164.74001,8.45593,207.39c2.71,28.71001,14.61,52.84001,34.83,64.36h0c23.48,15.04999,58.93,20.25,106.72,20.25s83.26001-5.22,106.73999-20.28c20.20999-11.51999,32.10001-35.64999,34.81-64.35001,4.02002-42.62999-14-79.20999-55.54999-83.12Z" fill="#dae6f5"/>
  <circle cx="242.58593" cy="199.56" r="36.45" fill="#9dc6ea"/>
  <circle cx="57.42592" cy="199.56" r="36.45" fill="#9dc6ea"/>
  <circle cx="242.58593" cy="209.67999" r="36.45" fill="#fff"/>
  <circle cx="57.42592" cy="209.67999" r="36.45" fill="#fff"/>
  <path d="M88.47593,203.7c-6.33382,5.45038-15.8868,4.73422-21.33717-1.59959-4.62158-5.37067-4.89703-13.22932-.66283-18.9104-1.22575-.17288-2.46211-.25975-3.7-.25999-14.50299,.0112-26.25091,11.77728-26.2397,26.28029,.01121,14.50299,11.77729,26.2509,26.28028,26.2397,14.50299-.01122,26.25091-11.7773,26.2397-26.28029-.00142-1.83852-.19592-3.67181-.58028-5.46971Zm-36.7,22.62c-3.45176,.01105-6.25892-2.77821-6.26996-6.22998-.01104-3.45175,2.77821-6.25891,6.22998-6.26996,3.45176-.01103,6.25892,2.77821,6.26996,6.22998,.00003,.00999,.00004,.01997,.00002,.02997,0,3.44235-2.78765,6.23448-6.23,6.24001v-.00002Z" fill="#414042"/>
  <path d="M262.85593,203.55c-6.63657,5.08646-16.13997,3.82983-21.22643-2.80675-3.92274-5.11821-4.17302-12.15945-.62358-17.54326-14.34953-2.1042-27.68793,7.82262-29.79213,22.17216-2.10419,14.34953,7.82263,27.68793,22.17216,29.79211,14.34955,2.1042,27.68793-7.82262,29.79211-22.17215,.18414-1.25568,.27701-2.52304,.27786-3.79213,.0061-1.89955-.19507-3.7941-.60001-5.64999Zm-36.85001,22.77c-3.45178,.00551-6.25446-2.78822-6.25998-6.24001-.00551-3.45178,2.78824-6.25446,6.24001-6.25998,3.45178-.00551,6.25447,2.78824,6.25998,6.24001,.00002,.00665,.00002,.01332,0,.01997,0,3.44626-2.79373,6.24001-6.23999,6.24001h-.00002Z" fill="#414042"/>
  <path d="M150.00593,211.28999c-19.20999,0-46.72,21.2-46.72,38.25999,0,16.20001,18.86,31.76001,42.85001,33.29001h.17999c.53,0,1.07001,.07001,1.61,.09h4.16c.53999,0,1.08-.04999,1.61-.09h.17999c24-1.53,42.85001-17.09,42.85001-33.29001,0-17.05998-27.50999-38.25999-46.72-38.25999Z" fill="#9dc6ea"/>
  <path d="M196.72593,236.67999c0,17.07001-20.92,33.42999-46.72,33.42999s-46.72-16.36-46.72-33.42999,27.50999-38.25999,46.72-38.25999,46.72,21.2,46.72,38.25999Z" fill="#231f20"/>
  <path d="M150.00593,257c-24,0-44.33-10.56-44.33-10.56,6.19,12.26999,23.69,23.66,44.33,23.66s38.14-11.39001,44.33-23.66c0,.00999-20.33,10.56-44.33,10.56Z" fill="#414042"/>
  <path d="M166.18592,219.37c-2.63,5.58-7.24001,5.39999-16.17999,5.39999s-13.50999,.33-16.19-5.39999c-3.78999-8.10001,7.25-16.17999,16.19-16.17999s20,8.09999,16.17999,16.17999Z" fill="#414042"/>
  <path d="M122.87593,72.13c-2.33166,1.67886-4.55291,3.50597-6.65,5.47-1.96763,1.82326-3.71913,3.86667-5.22,6.09-.65137,1.01127-1.20392,2.08287-1.65,3.2-.37611,.98045-.60198,2.01208-.67,3.06-.06406,.92792-.02717,1.86005,.11,2.78,.11903,.97977,.36094,1.94066,.72,2.86,.20649,.50559,.44016,.99965,.7,1.48,.26181,.47826,.54888,.94225,.86,1.39,.52354,.7271,1.17396,1.35381,1.92,1.85,1.64812,.98294,3.57339,1.39751,5.48,1.18,2.40527-.20672,4.76537-.77651,7-1.69,1.18-.46,2.36-1,3.50999-1.58,.58-.3,1.14999-.6,1.71001-.92s1.16-.68,1.55-.94l9.39-6.17-2.48,11.09-.2,.87-.17999,1c-.12,.66-.22,1.34-.3,2-.16023,1.32753-.24702,2.6629-.25999,4-.07355,2.49187,.2955,4.97704,1.09,7.34,.6339,1.95838,1.9137,3.64363,3.63,4.78,.88652,.55514,1.8551,.96687,2.87,1.22,1.12654,.27937,2.27982,.43694,3.44,.47,2.1004,.11805,4.18306-.44293,5.94-1.6,1.8231-1.32481,3.26765-3.10377,4.19-5.16,1.12842-2.37315,1.93875-4.88483,2.41-7.47,.25999-1.34,.46001-2.71,.60001-4.08,.07001-.69,.12-1.38,.16-2.06s.06-1.43,.06-2h0l-3.11-12.52,11.06999,9.44,1.39,1.19,1.50999,1.23c1,.81,2.05,1.55,3.09,2.28,1.95168,1.3798,4.05548,2.53069,6.27,3.43,1.68945,.7439,3.54491,1.03015,5.38,.83,.73224-.12502,1.43648-.37895,2.08-.75,.7438-.44518,1.41774-.99781,2-1.64,.5984-.625,1.0945-1.34045,1.47-2.12,.3933-.78496,.6535-1.62978,.77-2.5,.20905-1.99311-.09384-4.0066-.88-5.85-.90376-2.21886-2.1525-4.28097-3.7-6.11-1.83952-2.15428-3.84572-4.16048-6-6,1.55608-.15826,3.12621-.11118,4.67,.14,1.57623,.28074,3.11362,.74733,4.58,1.39,3.12074,1.39166,5.80844,3.59917,7.78,6.39,2.14937,3.10723,3.28778,6.8019,3.25996,10.57999-.00508,1.98231-.34311,3.94968-1,5.82-1.36644,3.77281-3.94398,6.98682-7.33,9.14-1.78915,1.13057-3.77835,1.90791-5.86,2.29-2.00232,.34019-4.04768,.34019-6.05,0-1.81139-.31316-3.58003-.8367-5.27-1.56-3.03992-1.33894-5.87209-3.10693-8.41-5.25-1.20758-1.01001-2.36243-2.08142-3.46001-3.21-.55-.55-1.08-1.13-1.59-1.72s-1-1.15-1.56-1.9l8-3.08h0c0,1,0,1.75-.06,2.6s-.11,1.65-.19,2.47c-.16,1.64-.39,3.28-.7,4.91-.61563,3.38875-1.67824,6.68082-3.16,9.79-1.61606,3.48298-4.11554,6.48236-7.25,8.7-1.68187,1.13928-3.54503,1.98463-5.50999,2.5-1.88976,.4883-3.83902,.70712-5.78999,.64999-1.87003-.0519-3.72833-.31354-5.53999-.78-1.94586-.49791-3.80168-1.29761-5.5-2.37-1.73604-1.10358-3.25735-2.5131-4.49001-4.16-1.18182-1.57709-2.11902-3.32339-2.78-5.18-1.16081-3.38968-1.71266-6.95802-1.63-10.54,.02377-1.67155,.13727-3.34062,.34-5,.10001-.83,.23-1.66,.37-2.48l.24001-1.25c.10001-.44,.17-.8,.31-1.35l6.91,4.92c-.81,.53-1.42,.89-2.13,1.29s-1.38,.76-2.08,1.11c-1.41,.71-2.85001,1.36-4.34,1.94-3.0978,1.2496-6.36939,2.01521-9.7,2.27-1.84209,.12784-3.693-.00005-5.5-.38-3.91866-.82983-7.38354-3.0993-9.71-6.36-.57-.82-1-1.46-1.45-2.24-.44499-.76804-.84889-1.55914-1.21-2.37-.78372-1.71588-1.29002-3.54533-1.5-5.42-.18357-1.94286,.03079-3.90276,.63-5.76,.58015-1.75208,1.43772-3.39969,2.54-4.88,.99879-1.37243,2.16441-2.6153,3.47-3.7,2.41072-1.99494,5.10749-3.61637,8-4.81,2.74224-1.1986,5.62514-2.04533,8.58001-2.52Z" fill="#231f20"/>
  <path d="M100.198,104.93901c-34.82001,20.97998-69.5,27.27002-77.47003,14.04999-.58997-.97998-1.01996-2.03998-1.27997-3.16998,19.96997-35.84003,57.77997-70.73004,128.28998-70.82001,4.90997,13.85999-16.40002,39.96002-49.53998,59.94Z" fill="#231f20" opacity=".25"/>
  <path d="M128.05799,31.02897l-11.37,9.63-11.89001,10.07001-12.95996,10.98004-10.98999,9.29999-.87006,.73999-15.23999,3.96002-10.59998,2.75995-15.94,4.14001-11,2.85999-8.21002,2.13s-.95996-2.06-2.20996-5.51996c-.77002-2.07001-1.63-4.65002-2.46002-7.58002-.32001-1.10999-.62-2.28003-.91998-3.47998-.60004-2.45001-1.15002-5.08002-1.58002-7.83002-.21997-1.35004-.40002-2.73999-.54999-4.14001-.48004-4.42999-.59003-9.04999-.10004-13.64001,.34003-3.27997,1-6.52997,2.06-9.67999,1.24005-3.75,3.06-7.34998,5.58002-10.64001,1.47998-1.92999,3.20001-3.75995,5.21002-5.44,1.39996-1.18994,2.92999-2.31,4.60999-3.33997,.90002-.56,1.84003-1.09998,2.83002-1.60999,.40997-.21002,.82001-.42004,1.22998-.61005,1.35999-.65997,2.76001-1.25,4.17999-1.75995,1.5-.56,3.02002-1.03003,4.57001-1.44,.47003-.13,.95001-.25,1.42999-.36005,2.13-.5,4.29999-.87,6.5-1.13,1.65002-.19995,3.33002-.32996,5.01001-.38995,3.16998-.14001,6.37-.08002,9.58002,.16998,.37,.02002,.75,.06,1.13,.09003,3.48999,.31,6.97998,.81,10.41998,1.46997,2.67999,.51001,5.34003,1.12,7.95001,1.78998,4.57996,1.18005,9.01996,2.57001,13.20001,4.05005,2.60999,.91998,5.10999,1.88,7.48999,2.83997,14.12994,5.71002,23.90997,11.60999,23.90997,11.60999Z" fill="#d34c59"/>
  <path d="M83.45801,12.52897v14.72003c0,2.07001-1.59003,3.78998-3.65002,3.96002l-22.5,1.84998-7.39001,18.70001c-.60999,1.54999-2.10999,2.54999-3.78998,2.51001l-22.45001-.55005-10.27997,17.30005c-.90002-3.66003-1.67999-7.72003-2.13-11.97003l6.76001-11.38c.73999-1.23999,2.08997-2,3.51996-1.94l22,.53003,7.28003-18.41003c.56-1.40997,1.85999-2.38,3.37-2.5l21.31-1.76001V10.739c2.67999,.51001,5.34003,1.12,7.95001,1.78998Z" fill="#f4b5bb"/>
  <path d="M104.14801,19.41899c-8.67825,34.27496-62.4762,55.06744-87.37,62.66003-.77002-2.07001-1.63-4.65002-2.46002-7.58002,21.83826-5.18896,72.85751-24.70984,82.34003-57.91998,2.60999,.91998,5.10999,1.88,7.48999,2.83997Z" fill="#f4b5bb"/>
  <path d="M65.08802,9.26903C49.35797,27.369,23.82801,39.93901,11.16797,45.40898c.34003-3.27997,1-6.52997,2.06-9.67999,11.45001-5.37,28.57001-14.60999,41.15002-26.71997,3.53998-.16003,7.12-.06,10.71002,.26001Z" fill="#f4b5bb"/>
  <path d="M128.05799,31.02897l-11.37,9.63-11.89001,10.07001-12.95996,10.98004-10.98999,9.29999-.87006,.73999-15.23999,3.96002-10.59998,2.75995-15.94,4.14001-11,2.85999-8.21002,2.13s-.95996-2.06-2.20996-5.51996c-.77002-2.07001-1.63-4.65002-2.46002-7.58002-.32001-1.10999-.62-2.28003-.91998-3.47998-.60004-2.45001-1.15002-5.08002-1.58002-7.83002,6.01001,3.17999,16.20001,5.01001,32.40997-1.51001,23.51001-9.46002,22.32001-38.59998,19.73004-52.5,.37,.02002,.75,.06,1.13,.09003,3.48999,.31,6.97998,.81,10.41998,1.46997,2.67999,.51001,5.34003,1.12,7.95001,1.78998,4.57996,1.18005,9.01996,2.57001,13.20001,4.05005,2.60999,.91998,5.10999,1.88,7.48999,2.83997,14.12994,5.71002,23.90997,11.60999,23.90997,11.60999Z" fill="#933240" opacity=".42"/>
  <path d="M137.63219,52.21334s-10.70231,21.99331-46.6982,40.66284c-36.00108,18.67222-60.14385,14.75157-60.14385,14.75157,0,0-27.20575-30.40503-14.93339-28.15236,12.26425,2.24973,38.93983-4.86433,59.95162-15.76225,21.01178-10.89791,35.65714-27.39488,40.88282-38.7159,5.22276-11.32665,20.94099,27.21609,20.94099,27.21609Z" fill="#e45159"/>
  <g>
    <path d="M242.58593,284.94305l-1.6115,43.63558s23.1206-1.03913,25.19886-5.19564c2.07826-4.15651-2.71722-39.48687-2.71722-39.48687l-20.87015,1.04693Z" fill="#c13644"/>
    <path d="M300.0039,235.16302v52.35004c-2.47998,6.71002-27.20996,13.25-61.77997,17.78998-6.69,.88-13.75,1.69-21.09003,2.41003-12.46997,1.20996-25.73999,2.17999-39.38,2.82996C108.55395,313.85302,30.03393,308.97308,.0039,287.51305v-67.22998s38.31006,52.48999,133.70001,59.67999c9.23004,.69,18.98999,.95996,29.31,.71997,18.09003-.42999,33.86005-1.81,47.59003-3.84998,6.75-1,13.01001-2.15002,18.81-3.42999,11.59998-2.55005,21.37-5.59003,29.58002-8.82001,33.35999-13.12,41.00995-29.42004,41.00995-29.42004Z" fill="#e45159"/>
    <path d="M217.1339,307.71307c-12.46997,1.20996-25.73999,2.17999-39.38,2.82996C108.55395,313.85302,30.03393,308.97308,.0039,287.51305v-15.01001c33.75,13.21002,92.69,30.26001,175.71002,28,5.47998-2.20001-1.14001-11.23999-12.70001-19.82001,18.09003-.42999,33.86005-1.81,47.59003-3.84998,2.47998,10.21997,4.83002,21.92999,6.52997,30.88Z" fill="#933240" opacity=".42"/>
    <path d="M300.008,286.67303v.84003c-2.48004,6.71002-27.21002,13.25-61.78003,17.78998l-8.81-31.89996c11.60004-2.55005,21.37-5.59003,29.58002-8.82001,7.38,14.97998,29.51001,20.29999,41.01001,22.08997Z" fill="#933240" opacity=".42"/>
    <path d="M184.44019,279.67248s7.83191-.51338,14.52329-1.32689c0,0,.90135,46.18277-2.23756,55.94825,0,0,40.19823,7.68722,49.96371-2.07826,0,0,4.23542-60.45271-1.66317-62.83632-10.70477-4.32574-50.99207-5.50031-60.58627,10.29321Z" fill="#e45159"/>
  </g>
</svg>