<?xml version="1.0" encoding="UTF-8"?>
<svg id="Layer_1" data-name="Layer 1" xmlns="http://www.w3.org/2000/svg" xmlns:xlink="http://www.w3.org/1999/xlink" viewBox="0 0 300 345">
  <defs>
    <linearGradient id="linear-gradient" x1="149.44821" y1="857.26111" x2="149.44821" y2="1052.21109" gradientTransform="translate(0 1213.3711) scale(1 -1)" gradientUnits="userSpaceOnUse">
      <stop offset="0" stop-color="#269628"/>
      <stop offset=".78768" stop-color="#227222"/>
    </linearGradient>
  </defs>
  <path d="M263.0682,345H35.82821c-20.09212,0-36.38-16.28787-36.38-36.38h0v-49.47998H299.44821v49.48001c0,20.0921-16.2879,36.37997-36.38,36.37997Z" fill="url(#linear-gradient)"/>
  <rect x="-.55179" y="45" width="300" height="253.39001" rx="36.38" ry="36.38" fill="#ffcd05"/>
  <g>
    <path d="M84.93047,292.22766c-3.05359-1.01349-6.15686-1.80902-9.37476-2.32776,1.46539,.1969,2.93073,.3938,4.39612,.5907-7.34412-1.05505-14.46179-2.32776-21.74872-4.38684-6.29816-1.7796-12.55432-3.57489-19.03851-4.54883-9.18164-1.37915-17.38226-7.71881-23.6059-14.9939H-.25831c2.24091,17.94244,17.53687,31.82898,36.08655,31.82898h61.99042c-4.30573-2.01373-8.57794-4.12744-12.88818-6.16235Z" fill="#269628"/>
    <path d="M244.37908,283.96264c-11.71887,5.70538-24.32672,10.27136-36.91602,14.42737h55.60516c18.54962,0,33.84564-13.88654,36.08655-31.82898h-27.54315c-8.91107,6.08118-17.51501,12.67059-27.23254,17.40161Z" fill="#269628"/>
  </g>
  <path d="M125.69821,251.12475s6.97346,9.78467,23.75,9.78467,23.75-9.78467,23.75-9.78467" fill="none" stroke="#cd8e2a" stroke-miterlimit="10" stroke-width="8.99"/>
  <circle cx="242.02821" cy="194.88" r="36.45" fill="#fabc2e"/>
  <circle cx="56.8682" cy="194.88" r="36.45" fill="#fabc2e"/>
  <circle cx="242.02821" cy="205" r="36.45" fill="#fff"/>
  <circle cx="56.8682" cy="205" r="36.45" fill="#fff"/>
  <path d="M88.62821,199.71001c-5.56371,4.71933-13.89977,4.03482-18.61909-1.52888-3.96146-4.67024-4.19363-11.45085-.56091-16.38112-12.57175-1.81821-24.23711,6.89928-26.05531,19.47102s6.89928,24.23711,19.47103,26.05531c12.57175,1.81819,24.23711-6.89928,26.05531-19.47102,.39197-2.71019,.2968-5.46858-.28102-8.14531h-.01Zm-32,19.75c-3.00987,.02208-5.46776-2.39999-5.48985-5.40987-.02208-3.00987,2.39999-5.46776,5.40986-5.48984,3.00987-.02209,5.46776,2.39999,5.48985,5.40987,.00007,.00993,.00012,.01988,.00014,.02983,.00553,3.00995-2.43004,5.45447-5.43998,5.45999-.00334,.00002-.00668,.00002-.01002,.00002h.04Z" fill="#4cc9f5"/>
  <path d="M255.07821,199.58c-5.80226,4.43185-14.09866,3.32091-18.5305-2.48137-3.4097-4.46404-3.62605-10.59535-.53951-15.28864-12.56427-1.86919-24.26491,6.80089-26.13409,19.36516s6.80089,24.26491,19.36516,26.13409,24.26491-6.80089,26.13409-19.36516c.41396-2.78262,.31392-5.61757-.29515-8.36409Zm-32.22,19.88c-3.00995-.00552-5.44551-2.45006-5.43999-5.45999,.00552-3.00995,2.45006-5.44551,5.46001-5.43999,3.00603,.00552,5.43999,2.44394,5.43999,5.44998,0,3.00995-2.44005,5.45-5.45,5.45001-.00334,0-.00667-.00002-.01001-.00002Z" fill="#4cc9f5"/>
  <path d="M263.0682,45H35.82821C15.73609,45-.55179,61.28788-.55179,81.38v45.37c11.51797,2.58011,23.28659,3.87469,35.09,3.86,26.475,0,51.02812,2.3711,71.24482,.00391,0,0-13.53154,16.45631,22.29182,27.8161s71.71738,4.27898,79.45953,0c-7.98416-10.55223-14.08817-22.6646-16.64585-32.36849,22.63,17,69.60643,11.45554,73.43968,4.54849,11.81345,.01691,23.59222-1.27768,35.12-3.86v-45.37c0-20.09212-16.28787-36.38-36.38-36.38Z" fill="#fabc2e"/>
  <path d="M263.0682,45H35.82821C15.73609,45-.55179,61.28788-.55179,81.38v45.37c11.51797,2.58011,23.28659,3.87469,35.09,3.86,51.51,0,95.74001-9.75,114.91-44.14-39.66492,16.73448-71.93602,74.58034,43.98,67-10.73585-35.2572-17.89308-62.85329-30.27001-49.82,22.74001,20.57,59.59,26.93999,101.19998,26.93999,11.80267,.02126,23.57129-1.26662,35.09003-3.84v-45.37c0-20.09212-16.28787-36.38-36.38-36.38Z" fill="#843c1c"/>
  <path d="M161.21421,65.55236c1.83237,2.79389,3.90938,5.41942,6.20654,7.84562,2.20986,2.40365,4.54515,4.68889,6.99609,6.84617,4.937,4.25213,10.21143,8.09598,15.77119,11.49358,1.38922,.84952,2.76846,1.72904,4.17766,2.55857l4.30759,2.35868,2.14879,1.20932,2.25875,1.12937c1.46918,.7296,2.93836,1.48917,4.40754,2.24874,2.99833,1.4392,5.99665,2.77845,8.99498,4.2976,3.05829,1.33925,6.14656,2.66851,9.19486,4.27761-3.38811-.31982-6.74623-.9095-10.12435-1.47918-3.29816-.82954-6.6163-1.66907-9.87449-2.72848-1.61244-.57967-3.2182-1.17934-4.81732-1.799l-2.39865-.92948-2.33869-1.09938-4.63741-2.27873c-1.49916-.84952-2.99833-1.75902-4.45752-2.63853-5.92984-3.61874-11.29726-8.0871-15.9311-13.2626-2.29196-2.61348-4.32688-5.44163-6.07661-8.44528-1.78033-2.97456-3.06633-6.21823-3.80786-9.60463Z" fill="#6d2f16"/>
  <path d="M163.8982,57.41c4.89,1.82,9.62,3.48,14.37,5.05s9.46001,3.05,14.24001,4.34,9.57001,2.57,14.46001,3.62c2.42999,.63,4.89999,1.06,7.37,1.66s5,1,7.52,1.78c-1.27,.3-2.55,.51-3.84,.71-1.28351,.22717-2.57896,.38075-3.88,.46-2.59946,.18494-5.20801,.20498-7.81,.06-5.21745-.25967-10.38954-1.10155-15.42-2.51-5.04387-1.38217-9.91492-3.33126-14.52-5.81-4.65913-2.39693-8.88147-5.56115-12.49001-9.36Z" fill="#6d2f16"/>
  <path d="M148.54129,65.6523c-2.98091,5.99848-7.01238,11.41439-11.90336,15.99107-4.81001,4.68224-10.18122,8.75093-15.99107,12.11324-.7196,.44975-1.46918,.82954-2.20877,1.20932l-2.23875,1.15936-2.24874,1.12937c-.74958,.3698-1.53914,.67962-2.30871,.99944-1.55913,.62965-3.09827,1.27928-4.6574,1.87895s-3.19821,.99944-4.79732,1.51915c-1.59736,.54405-3.22607,.99128-4.87727,1.33926-1.63908,.3498-3.26817,.66962-4.90726,.99944l-1.22932,.20988-1.23931,.12992c-.83953,.08995-1.65908,.1899-2.48861,.23986-1.65908,.12992-3.31815,.25986-4.99721,.29984,1.52914-.69961,3.05829-1.31926,4.58744-1.91893s3.08827-1.0694,4.55745-1.799c2.99833-1.33925,5.99665-2.38867,8.90503-3.82786l4.38755-1.99888c1.41921-.73958,2.8584-1.4392,4.28761-2.1588,.69961-.3598,1.4392-.66962,2.1388-1.05941l2.08883-1.15936c1.38922-.77956,2.82842-1.45918,4.17767-2.30871,5.52607-3.19032,10.86515-6.69408,15.99107-10.49414,5.24313-3.85194,10.24321-8.02424,14.97163-12.49302Z" fill="#6d2f16"/>
  <path d="M135.21821,59.22c-2.26239,2.55587-4.71254,4.93916-7.33,7.13-2.59,2.21-5.31,4.26-8.1,6.21-5.62685,3.88013-11.58689,7.25336-17.81,10.08-6.26344,2.835-12.81011,4.99711-19.53001,6.45-1.69,.31-3.38,.61-5.07,.88s-3.43,.34-5.13,.5c-1.70586,.1467-3.41941,.18344-5.13,.11-1.72-.07-3.42-.16-5.11-.32,6.61-1.79,13-3.49,19.18-5.72s12.3-4.63,18.3-7.37,11.93-5.61,17.85-8.64,11.82999-6.15999,17.88-9.30999Z" fill="#6d2f16"/>
  <path d="M299.44821,131.07001V0s-51.63,25.11-51.63,131.07001" fill="#ffcd05"/>
  <path d="M283.22821,50.17s15.54001,22.55-9.59,80.18001c0,0-6.64001-38.68001,9.59-80.18001Z" fill="#fabc2e"/>
  <path d="M293.7882,16.66c-1.26999,5-2.67001,9.87-4.09,14.74-1.41998,4.87-2.87,9.72-4.31,14.56s-2.85001,9.68-4.10999,14.56-2.39999,9.79-3.44,14.7c-2.09387,9.78999-3.47086,19.71967-4.12,29.71-.32007,4.94149-.32007,9.89851,0,14.84,.31033,4.89273,1.07019,9.74652,2.26999,14.5h0c.39212,1.32549-.3645,2.71786-1.69,3.11-1.32547,.39212-2.71786-.36452-3.10999-1.69-1.60129-5.02548-2.65738-10.20863-3.14999-15.46-.29001-2.61-.37-5.22-.48001-7.83s0-5.21,.14001-7.8c.22842-5.17732,.73917-10.33833,1.53-15.46,.81332-5.08,1.78665-10.12667,2.91998-15.14,2.30695-10.00223,5.17142-19.86763,8.57999-29.55,1.72-4.83,3.60999-9.59,5.78-14.23,2.10431-4.6858,4.53702-9.21708,7.28-13.56Z" fill="#e3a441"/>
  <path d="M284.79821,45.1c.42999,.72,.73001,1.28,1,1.91s.60001,1.24,.87,1.86,.51999,1.25,.76001,1.88,.48999,1.26,.67999,1.91l.60999,1.92c.20001,.64,.35001,1.29,.51999,1.94,.35001,1.3,.60001,2.61,.82999,3.92,.91257,5.24078,1.21457,10.56967,.89999,15.88-.16385,2.63192-.4743,5.25266-.92999,7.85-.23999,1.29-.38,2.6-.70999,3.88s-.60999,2.55-.94,3.81c-.17001,.64-.31,1.28-.51999,1.89l-.67001,1.85c-.44,1.23-.89999,2.45-1.39001,3.66-1.0827,2.37901-2.31519,4.68697-3.69,6.91,.29001-2.64,.84-5.13,1.32999-7.63,.34-2.54,1-5,1.31-7.48,.17999-1.25,.39001-2.48,.59-3.72s.26999-2.49,.42001-3.73c.31-2.48,.31-5,.42999-7.46,.01312-4.94342-.42874-9.87756-1.32001-14.74-.23001-1.2-.47-2.41-.79999-3.59-.16-.59-.28-1.19-.45001-1.77l-.54001-1.75c-.16-.59-.38-1.16-.57999-1.73s-.39001-1.15-.62-1.7-.45001-1.12-.69-1.66-.51001-1.11-.72-1.5l-.07999-.16c-.61069-1.23832-.10187-2.73723,1.13644-3.34791,1.14343-.56389,2.52802-.17702,3.21356,.89791l.05005,.00002Z" fill="#e3a441"/>
  <path d="M-.55179,131.07001V0S51.07821,25.11,51.07821,131.07001" fill="#ffcd05"/>
  <path d="M15.66821,50.17S.12821,72.72,25.25821,130.35001c0,0,6.64-38.68001-9.59-80.18001Z" fill="#fabc2e"/>
  <path d="M5.10821,16.66c2.74255,4.33969,5.17527,8.86762,7.28,13.55,2.17,4.64,4.06,9.4,5.78,14.23,3.40894,9.68564,6.27341,19.55439,8.58,29.56,1.13334,5.00667,2.09,10.06333,2.87,15.17,.79082,5.12167,1.30158,10.28268,1.53,15.46,.15,2.59,.14,5.19,.14,7.8s-.19,5.22-.48,7.83c-.49263,5.25137-1.5487,10.43452-3.15,15.46-.38936,1.32549-1.77952,2.08437-3.105,1.69499-1.32548-.38936-2.08436-1.77951-1.695-3.105h0c1.1998-4.75348,1.95967-9.60727,2.27-14.5,.32006-4.94149,.32006-9.89851,0-14.84-.64915-9.99033-2.02614-19.92001-4.12-29.71-1.04-4.90667-2.18667-9.80667-3.44-14.7-1.21-4.92-2.61-9.76-4.06-14.56s-2.91-9.72-4.31-14.6-2.82-9.76-4.09-14.74Z" fill="#e3a441"/>
  <path d="M18.36821,47.71c-.21,.39-.49,1-.72,1.5s-.46,1.1-.69,1.66-.42,1.13-.62,1.7-.42,1.14-.58,1.73l-.54,1.75c-.17,.58-.29,1.18-.45,1.77-.33,1.18-.57,2.39-.8,3.59-.89126,4.86244-1.33312,9.79657-1.32,14.74,.12,2.48,.12,5,.43,7.46,.15,1.24,.19,2.5,.42,3.73s.41,2.47,.59,3.72c.33,2.5,1,4.94,1.31,7.48,.49,2.5,1,5,1.33,7.63-1.37482-2.22302-2.60729-4.53098-3.69-6.91-.49-1.21-.95-2.43-1.39-3.66l-.67-1.85c-.21-.61-.35-1.25-.52-1.89-.33-1.26-.64-2.54-.94-3.81s-.47-2.59-.71-3.88c-.45568-2.59734-.76616-5.21808-.93-7.85-.31457-5.31033-.01256-10.63922,.9-15.88,.23-1.31,.48-2.62,.83-3.92,.17-.65,.32-1.3,.52-1.94l.61-1.92c.19-.65,.43-1.28,.68-1.91s.47-1.26,.76-1.88,.54-1.24,.87-1.86,.62-1.19,1.05-1.91c.75858-1.15366,2.30875-1.47392,3.46241-.71534,1.04028,.68403,1.41869,2.02927,.88759,3.15533l-.08,.17Z" fill="#e3a441"/>
  <ellipse cx="241.78582" cy="143.76272" rx="29.61001" ry="17.17" transform="translate(-20.67757 42.56454) rotate(-9.64999)" fill="#8e462f"/>
  <ellipse cx="57.10023" cy="143.70588" rx="17.17" ry="29.61" transform="translate(-94.14389 175.90885) rotate(-80.35)" fill="#8e462f"/>
  <path d="M299.44433,283.617v15.78998c0,20.09003-16.28003,36.38-36.38,36.38H35.82433c-20.09003,0-36.38-16.28998-36.38-36.38v-15.78998c0,20.08997,16.28998,36.38,36.38,36.38h227.23999c20.09998,0,36.38-16.29004,36.38-36.38Z" fill="#493e3e"/>
  <path d="M187.84429,308.94696H111.04431c-3,0-5.42999,2.42999-5.42999,5.42999v25.19c0,3,2.42999,5.43005,5.42999,5.43005h76.79999c3,0,5.44-2.43005,5.44-5.43005v-25.19c0-3-2.44-5.42999-5.44-5.42999Zm-7.67999,24.84003c0,1.89001-1.52997,3.41998-3.41998,3.41998h-54.59003c-1.89001,0-3.42999-1.52997-3.42999-3.41998v-13.62c0-1.90002,1.53998-3.42999,3.42999-3.42999h54.59003c1.89001,0,3.41998,1.52997,3.41998,3.42999v13.62Z" fill="#ff9406"/>
  <path d="M185.74585,305.37757H113.1433c-2.83604,0-5.13322,2.29718-5.13322,5.13322v23.81326c0,2.83604,2.29718,5.13328,5.13322,5.13328h72.60255c2.83604,0,5.14268-2.29724,5.14268-5.13328v-23.81326c0-2.83604-2.30665-5.13322-5.14268-5.13322Zm-7.26025,23.48242c0,1.78672-1.44635,3.23307-3.23307,3.23307h-51.60646c-1.78672,0-3.24253-1.44635-3.24253-3.23307v-12.87561c0-1.79618,1.45581-3.24253,3.24253-3.24253h51.60646c1.78672,0,3.23307,1.44635,3.23307,3.24253v12.87561Z" fill="#ffb31a"/>
  <path d="M300.55567,246.54156v45.30197c0,4.57043-4.17657,8.00135-8.66002,7.11393l-21.38385-4.23258c-2.90882-.57575-5.87513,.6774-7.4901,3.16429l-17.11699,26.35833c-1.66215,2.55953-4.74889,3.80454-7.72173,3.1145l-44.23538-10.26779c-1.8444-.42812-3.7831-.1179-5.40183,.86437l-34.42968,20.89249c-2.20476,1.33789-4.95417,1.40422-7.22089,.17421l-37.79011-20.50639c-1.55795-.8454-3.37157-1.09094-5.09822-.69022l-41.07764,9.53329c-2.9733,.69004-6.06041-.55554-7.72228-3.11579l-17.10775-26.35581c-1.61468-2.48754-4.58128-3.74127-7.49052-3.1656l-21.39336,4.23325c-4.48334,.88715-8.65964-2.54373-8.65964-7.114v-45.30246s39.94,55.66003,150,55.66003,150-55.66003,150-55.66003Z" fill="#12184f" opacity=".15"/>
  <path d="M299.44433,237.82696v45.29999c0,4.57001-4.18005,8-8.66003,7.12006l-21.38-4.24005c-2.90997-.57001-5.88,.67999-7.48999,3.17004l-17.12,26.35999c-1.65997,2.56-4.75,3.79999-7.71997,3.10999l-44.24005-10.27002c-1.83997-.42999-3.77997-.12-5.39996,.87006l-34.42999,20.88995c-2.20001,1.34003-4.95001,1.40002-7.22003,.17004l-37.78998-20.5c-1.56-.85004-3.37-1.09003-5.10004-.69l-41.07996,9.52997c-2.97003,.69-6.06-.56-7.72003-3.12l-17.10999-26.34998c-1.60999-2.49005-4.58002-3.74005-7.48999-3.17004l-21.39001,4.24005c-4.47998,.87994-8.65997-2.55005-8.65997-7.12006v-45.29999s39.94,55.66003,150,55.66003,150-55.66003,150-55.66003Z" fill="#e03834"/>
  <path d="M299.44433,237.82696v33.52002c0,4.57001-4.18005,8-8.66003,7.12l-21.38-4.23999c-2.90997-.57001-5.88,.67999-7.48999,3.16998l-17.12,26.35999c-1.65997,2.56-4.75,3.80005-7.71997,3.11005l-44.24005-10.27002c-1.83997-.42999-3.77997-.12-5.39996,.87l-34.42999,20.89001c-2.20001,1.33997-4.95001,1.39996-7.22003,.16998l-37.78998-20.5c-1.56-.84998-3.37-1.09003-5.10004-.69l-41.07996,9.53003c-2.97003,.69-6.06-.56-7.72003-3.12l-17.10999-26.35004c-1.60999-2.48999-4.58002-3.73999-7.48999-3.16998l-21.39001,4.23999c-4.47998,.88-8.65997-2.54999-8.65997-7.12v-33.52002s39.94,55.66003,150,55.66003,150-55.66003,150-55.66003Z" fill="#f93a30"/>
  <path d="M216.73531,55.34719H82.34925c-13.16087,6.09206-21.11033,13.99415-21.11033,22.63075,0,19.2652,39.53481,34.8828,88.30339,34.8828s88.30333-15.61759,88.30333-34.8828c0-8.6366-7.94952-16.5387-21.11033-22.63075Z" fill="#59220e" opacity=".49"/>
  <path d="M220.05588,61.40784c-2.72864-1.39755-5.65432-3.14777-8.36914-5.25217H79.07437c-1.04319,8.47366,.43979,14.45114,.43979,14.45114,.64249,32.08713,108.40302,33.66837,141.60512,10.53586,6.36563-4.43505,5.67518-16.28341-1.06339-19.73483Z" fill="#f93a30"/>
  <path d="M245.5693,29.69958s-.00977-.01224-.02932-.02455c-1.12262-.77486-30.55569-20.81034-44.65232,5.78057-5.49613,10.38055,5.80852,16.05054,5.80852,16.05054-11.57796,4.57527-36.26662,12.74198-67.01756,13.67673-8.00502,.246-16.42004,0-25.12791-.93475-19.1339-2.04171-28.2128-10.78644-31.91265-21.33912C91.11166,23.13184,105.91119-.003,179.20579-.003,205.10495-.003,241.02008,4.05573,245.5693,29.69958Z" fill="#269628"/>
  <path d="M200.88767,35.45561c-5.49613,10.38055,5.80852,16.05054,5.80852,16.05054-11.57796,4.57527-36.26662,12.74198-67.01756,13.67673,1.03479-5.20262,3.59248-11.48751,8.02456-19.02694,41.1672-70.15474,96.37246-17.88304,97.83679-16.48091-1.12262-.77486-30.55569-20.81034-44.65232,5.78057Z" fill="#257c25" opacity=".46"/>
  <path d="M226.51345,65.24436c-.20503,3.6406-.66382,7.13353-1.49365,10.22065l-52.24728,7.89608-93.25837-12.75429-7.08737-51.14019,17.42557,27.32891,29.90164-20.4413,19.92463,29.80144,32.85962-28.73141,24.76671,22.17546,26.65081-16.9606s3.46557,17.48953,2.55769,32.60525Z" fill="#f93a30"/>
  <path d="M226.51345,65.24436c-2.47958-8.56029-8.00502-15.69382-8.00502-15.69382l-20.65416,16.74723-24.26176-21.9744-39.54664,32.17481-20.5104-25.09044-25.50865,15.98899-15.60004-47.93011c5.93144,5.79501,13.3165,10.86968,22.11595,21.05677l25.21126-14.16915,20.97283,25.05963,31.81142-23.9896,26.21438,17.68208,25.20314-12.46722s3.46557,17.48953,2.55769,32.60525Z" fill="#e03834"/>
</svg>