<?xml version="1.0" encoding="UTF-8" standalone="no"?>
<svg
   viewBox="0 0 300 345"
   version="1.1"
   id="svg19"
   sodipodi:docname="peppermintBark.svg"
   xml:space="preserve"
   inkscape:version="1.4.2 (ebf0e940, 2025-05-08)"
   xmlns:inkscape="http://www.inkscape.org/namespaces/inkscape"
   xmlns:sodipodi="http://sodipodi.sourceforge.net/DTD/sodipodi-0.dtd"
   xmlns:xlink="http://www.w3.org/1999/xlink"
   xmlns="http://www.w3.org/2000/svg"
   xmlns:svg="http://www.w3.org/2000/svg"><sodipodi:namedview
     id="namedview19"
     pagecolor="#505050"
     bordercolor="#ffffff"
     borderopacity="1"
     inkscape:showpageshadow="0"
     inkscape:pageopacity="0"
     inkscape:pagecheckerboard="1"
     inkscape:deskcolor="#505050"
     inkscape:zoom="1.8147259"
     inkscape:cx="164.21212"
     inkscape:cy="303.62711"
     inkscape:current-layer="svg19" /><defs
     id="defs6"><inkscape:path-effect
   effect="mirror_symmetry"
   start_point="150,0"
   end_point="150,345"
   center_point="150,172.5"
   id="path-effect5"
   is_visible="true"
   lpeversion="1.2"
   lpesatellites=""
   mode="vertical"
   discard_orig_path="false"
   fuse_paths="false"
   oposite_fuse="false"
   split_items="true"
   split_open="false"
   link_styles="false" /><inkscape:path-effect
   effect="mirror_symmetry"
   start_point="150,0"
   end_point="150,345"
   center_point="150,172.5"
   id="path-effect46"
   is_visible="true"
   lpeversion="1.2"
   lpesatellites=""
   mode="vertical"
   discard_orig_path="false"
   fuse_paths="false"
   oposite_fuse="false"
   split_items="true"
   split_open="false"
   link_styles="false" /><inkscape:path-effect
   effect="mirror_symmetry"
   start_point="150,0"
   end_point="150,345"
   center_point="150,172.5"
   id="path-effect40"
   is_visible="true"
   lpeversion="1.2"
   lpesatellites=""
   mode="vertical"
   discard_orig_path="false"
   fuse_paths="false"
   oposite_fuse="false"
   split_items="true"
   split_open="false"
   link_styles="false" /><inkscape:path-effect
   effect="mirror_symmetry"
   start_point="150,0"
   end_point="150,345"
   center_point="150,172.5"
   id="path-effect25"
   is_visible="true"
   lpeversion="1.2"
   lpesatellites=""
   mode="vertical"
   discard_orig_path="false"
   fuse_paths="false"
   oposite_fuse="false"
   split_items="true"
   split_open="false"
   link_styles="false" /><linearGradient
   id="A"
   x1="150"
   y1="356.11"
   x2="150"
   y2="161.16"
   gradientUnits="userSpaceOnUse"><stop
     offset="0"
     stop-color="#414042"
     id="stop1"
     style="stop-color:#8e4f48;stop-opacity:1;" /><stop
     offset="0.51999998"
     stop-color="#353333"
     id="stop2"
     style="stop-color:#5f2822;stop-opacity:1;" /></linearGradient><linearGradient
   id="B"
   x1="150"
   y1="351.03"
   x2="150"
   y2="245.21"
   gradientUnits="userSpaceOnUse"><stop
     offset="0"
     stop-color="#bfe7fb"
     id="stop3"
     style="stop-color:#f0f1e9;stop-opacity:1;" /><stop
     offset="0.69"
     stop-color="#4cc9f5"
     id="stop4"
     style="stop-color:#d3d0cd;stop-opacity:1;" /></linearGradient><linearGradient
   id="C"
   x1="262.25"
   y1="228.71"
   x2="277.18"
   y2="283.22"
   gradientUnits="userSpaceOnUse"><stop
     offset="0"
     stop-color="#ecf7fe"
     stop-opacity=".1"
     id="stop5" /><stop
     offset="1"
     stop-color="#f27ba5"
     id="stop6" /></linearGradient><linearGradient
   id="D"
   x1="42.75"
   y1="221.44"
   x2="19.53"
   y2="288.68"
   xlink:href="#C" />
                
                
                
                
            
                
                
                
            
                    
                
            
            
            
        
                
                
                
            
                
                
                
            
                
                
                
                
            <linearGradient
   inkscape:collect="always"
   xlink:href="#C"
   id="linearGradient1"
   gradientUnits="userSpaceOnUse"
   x1="262.25"
   y1="228.71"
   x2="277.18"
   y2="283.22" /></defs><path
     d="M 263.62,345 H 36.38 A 36.38,36.38 0 0 1 0,308.62 v -49.48 h 300 v 49.48 A 36.38,36.38 0 0 1 263.62,345 Z"
     fill="url(#A)"
     id="path6"
     style="fill:url(#A)" /><path
     d="M 300,79.86 C 300,41.8 269.57,0 247.6,0 232.82,0 214.2,21.06 203.6,45 H 182.86 L 180,28.13 C 164.6,28.13 151.32,39 151.32,39 l 8.15,-23.85 c -26.38,0 -37.52,18.14 -42,29.85 H 97.27 C 86.86,20 67.6,0 52.4,0 30.43,0 0,46.5 0,79.86 V 262 a 36.38,36.38 0 0 0 36.38,36.38 H 263.62 A 36.38,36.38 0 0 0 300,262 Z"
     fill="#414042"
     id="path7"
     style="fill:#8e4f48;fill-opacity:1" /><path
     id="path47"
     d="m 53.27,12.83 c 5.37,0 13.17,5.74 20.37,15 a 98.08,98.08 0 0 1 15.32,29 182.15,182.15 0 0 0 -52.71,26 c -7,-0.83 -12.82,-2.16 -16.94,-3.9 -4.12,-1.74 -5,-3.25 -5,-3.48 -0.01,-31.1 25,-62.62 38.96,-62.62 z"
     style="fill:#683834;fill-opacity:1"
     fill="#ecf7fe" /><path
     d="m 32.63,298.4 c 0,0 21.97,46.6 49.47,46.6 h 135.8 c 27.5,0 49.46,-46.6 49.46,-46.6 z"
     fill="url(#B)"
     id="path8"
     style="fill:url(#B)" /><g
     id="g46"
     transform="matrix(-1,0,0,1,300,0)"><path
       id="path40"
       d="m 220.24,55.808777 a 179.72,208.0233 0 0 1 43.51,26.448547 77,89.126391 0 0 0 13.67,-3.183086 c -1.16,-12.905964 -5.8,-27.131463 -12.87,-39.180887 -8.4,-14.294948 -16.3,-18.92489 -18.8,-18.92489 -1.72,0 -7.6,3.472457 -14.84,14.237073 a 89.54,103.64126 0 0 0 -10.66,20.626392 z"
       style="fill:#511b15;fill-opacity:0.493711;stroke-width:1.07587"
       fill="#dd7399" /><path
       id="path41"
       d="M 220.24,59.9 A 179.72,179.72 0 0 1 263.75,82.75 77,77 0 0 0 277.42,80 c -1.16,-11.15 -5.8,-23.44 -12.87,-33.85 -8.4,-12.35 -16.3,-16.35 -18.8,-16.35 -1.72,0 -7.6,3 -14.84,12.3 a 89.54,89.54 0 0 0 -10.66,17.82 z"
       style="fill:#f0f1e9;fill-opacity:1"
       fill="#dd7399" /><path
       id="path42"
       d="m 245.75,29.800781 c -0.49931,0 -1.34852,0.251532 -2.48047,0.837891 6.92151,14.685008 10.82927,30.130718 12.08399,46.457031 A 179.72,179.72 0 0 1 263.75,82.75 a 77,77 0 0 0 5.70117,-0.833984 c 0.17845,-9.874342 0.0122,-19.749973 -1.03906,-29.462891 -1.18925,-2.157799 -2.47822,-4.266225 -3.86133,-6.302734 -8.4,-12.35 -16.30078,-16.34961 -18.80078,-16.34961 z m -6.91797,3.896485 c -2.04704,1.710211 -4.41621,4.064283 -6.97851,7.216796 2.62894,8.466869 4.32404,17.172277 5.28515,26.080079 a 179.72,179.72 0 0 1 7.58399,3.873047 c -0.53222,-12.697296 -2.1738,-25.156696 -5.89063,-37.169922 z m -9.53515,10.568359 a 89.54,89.54 0 0 0 -9.04102,15.640625 179.72,179.72 0 0 1 12.38281,4.998047 c -0.66223,-6.96078 -1.72579,-13.859603 -3.34179,-20.638672 z m -9.04102,15.640625 a 179.72,179.72 0 0 0 -0.0156,-0.0059 l 0.01,0.01953 a 89.54,89.54 0 0 1 0.006,-0.01367 z"
       style="baseline-shift:baseline;display:inline;overflow:visible;opacity:1;vector-effect:none;fill:#ff382e;stroke-linecap:round;stroke-linejoin:round;paint-order:stroke fill markers;enable-background:accumulate;stop-color:#000000;stop-opacity:1" /><path
       id="path45"
       d="M 222.41406,55.447266 A 89.54,89.54 0 0 0 220.25586,59.90625 179.72,179.72 0 0 1 263.75,82.75 77,77 0 0 0 277.41992,80 c -0.25397,-2.441215 -0.67536,-4.936265 -1.25195,-7.455078 -4.1225,0.401157 -8.35268,1.50981 -12.86719,4.458984 -11.6103,-11.222482 -26.14991,-16.587157 -40.88672,-21.55664 z m -2.1582,4.458984 a 179.72,179.72 0 0 0 -0.0156,-0.0059 l 0.01,0.01953 a 89.54,89.54 0 0 1 0.006,-0.01367 z"
       style="fill:#e4e4d8;fill-opacity:1;stroke:none;stroke-width:6.653;stroke-linecap:round;stroke-linejoin:round;stroke-dasharray:none;stroke-opacity:1;paint-order:stroke fill markers" /><path
       id="path46"
       d="m 222.41406,55.447266 a 89.54,89.54 0 0 0 -2.1582,4.458984 179.72,179.72 0 0 1 12.38281,4.998047 c -0.19434,-2.04271 -0.42412,-4.08075 -0.6914,-6.111328 -3.15037,-1.170954 -6.33638,-2.267683 -9.53321,-3.345703 z m -2.1582,4.458984 a 179.72,179.72 0 0 0 -0.0156,-0.0059 l 0.01,0.01953 a 89.54,89.54 0 0 1 0.006,-0.01367 z m 16.03906,0.566406 c 0.32726,2.161272 0.60787,4.335297 0.84375,6.521485 a 179.72,179.72 0 0 1 7.58399,3.873047 c -0.096,-2.289317 -0.2286,-4.571122 -0.40235,-6.84375 -2.62443,-1.285122 -5.30571,-2.456154 -8.02539,-3.550782 z m 18.33399,9.494141 c 0.29935,2.357313 0.54056,4.734076 0.72461,7.128906 A 179.72,179.72 0 0 1 263.75,82.75 a 77,77 0 0 0 5.70117,-0.833984 c 0.048,-2.658681 0.0711,-5.31699 0.0586,-7.972657 -2.01924,0.691183 -4.08236,1.67129 -6.20899,3.060547 -2.73928,-2.647776 -5.64238,-4.969768 -8.67187,-7.037109 z"
       style="fill:#f02936;fill-opacity:1;stroke:none;stroke-width:6.653;stroke-linecap:round;stroke-linejoin:round;stroke-dasharray:none;stroke-opacity:1;paint-order:stroke fill markers" /><path
       style="fill:#ffffff;fill-opacity:1;stroke:none;stroke-width:6.23768;stroke-linecap:round;stroke-linejoin:round;stroke-dasharray:none;stroke-opacity:1;paint-order:stroke fill markers"
       d="m 243.58059,32.845078 c 4.47039,0.83914 3.09788,5.221846 -0.47406,8.295971 -4.17111,4.311564 -6.3584,16.639439 -11.61436,13.747608 -5.07931,-2.794639 1.92973,-11.815019 5.21461,-16.591941 1.65702,-2.409663 3.99959,-5.991161 6.87381,-5.451638 z"
       id="path48"
       sodipodi:nodetypes="saaas" /><ellipse
       style="fill:#ffffff;fill-opacity:1;stroke:none;stroke-width:6.653;stroke-linecap:round;stroke-linejoin:round;stroke-dasharray:none;stroke-opacity:1;paint-order:stroke fill markers"
       id="path49"
       cx="-229.67114"
       cy="58.899059"
       transform="scale(-1,1)"
       rx="1.9687707"
       ry="2.1328349" /></g><path
     d="M 232.22,232.8 C 211.54197,231.15398 196.42075,212.58246 199,192 205.22,142.52 205.08,69.46 150,69.46 94.92,69.46 94.8,142.55 101,192 103.56686,212.58236 88.437178,231.14398 67.76,232.78 31.54,235.66 4.46,240.62 0,247.68 V 262 c 0,20.09212 16.287881,36.38 36.38,36.38 H 263.62 C 283.71212,298.38 300,282.09212 300,262 v -14.32 c -4.45,-7.06 -31.54,-12.02 -67.78,-14.87 z"
     fill="#e4f5fd"
     id="path9"
     style="fill:#f0f1e9;fill-opacity:1"
     sodipodi:nodetypes="ccscccssssccc" /><path
     id="path10"
     d="M 48.62048,264.36942 A 19.589806,17.627213 0 0 1 29.030674,281.99663 19.589806,17.627213 0 0 1 9.4408684,264.36942 19.589806,17.627213 0 0 1 29.030674,246.7422 19.589806,17.627213 0 0 1 48.62048,264.36942 Z"
     style="fill:#dbd9d5;fill-opacity:1;stroke:none;stroke-width:5.45633;stroke-linecap:round;stroke-linejoin:round;stroke-dasharray:none;stroke-opacity:1;paint-order:stroke fill markers"
     transform="rotate(53.701122,150,499.95605)" /><ellipse
     cx="271.63"
     cy="263"
     rx="17.59"
     ry="13.87"
     fill="url(#C)"
     id="ellipse9"
     style="fill:url(#linearGradient1)" /><g
     fill="#231f20"
     id="g11"
     style="fill:#683834;fill-opacity:1"><circle
       cx="247.53"
       cy="198.94"
       r="44.150002"
       id="circle10"
       style="fill:#683834;fill-opacity:1" /><circle
       cx="52.470001"
       cy="198.94"
       r="44.150002"
       id="circle11"
       style="fill:#683834;fill-opacity:1" /></g><g
     fill="#ffffff"
     id="g13"><circle
       cx="247.53"
       cy="211.2"
       r="44.150002"
       id="circle12" /><circle
       cx="52.470001"
       cy="211.2"
       r="44.150002"
       id="circle13" /></g><path
     d="m 90.94,204.8 a 16,16 0 0 1 -23.24,-21.68 28.12,28.12 0 0 0 -3.91,-0.28 27.8,27.8 0 1 0 27.15,22 z m -38.8,23.93 a 6.6,6.6 0 1 1 6.6,-6.6 6.6,6.6 0 0 1 -6.6,6.6 z m 211.2,-24.1 a 16,16 0 0 1 -23.11,-21.52 27.73,27.73 0 1 0 23.11,21.52 z m -39,24.08 a 6.6,6.6 0 1 1 6.61,-6.6 6.6,6.6 0 0 1 -6.64,6.6 z"
     fill="#414042"
     id="path13" /><path
     style="baseline-shift:baseline;display:inline;overflow:visible;vector-effect:none;fill:#414042;fill-opacity:1;stroke-linecap:round;stroke-miterlimit:10;enable-background:accumulate;stop-color:#000000"
     d="m 143.21094,231.83008 c 0,0 -0.26463,10.9899 -5.41797,19.33203 -2.57667,4.17106 -6.03348,7.54203 -11.58399,9.33789 -5.5505,1.79586 -13.64303,2.03073 -25.55664,-1.83008 a 6.79,6.79 0 0 0 -8.550778,4.36719 6.79,6.79 0 0 0 4.365235,8.55273 c 13.806393,4.4742 25.004883,4.71516 33.921873,1.83008 8.917,-2.88508 15.10371,-8.88341 18.95703,-15.12109 0.24724,-0.40023 0.41929,-0.8081 0.65039,-1.21094 0.23312,0.40678 0.4067,0.81854 0.65625,1.22266 3.85322,6.23974 10.04069,12.23928 18.95899,15.12304 8.91829,2.88377 20.1193,2.63657 33.92578,-1.8457 a 6.79,6.79 0 0 0 4.36133,-8.55469 6.79,6.79 0 0 0 -8.55469,-4.36133 c -11.91352,3.86773 -20.00353,3.63421 -25.55273,1.83985 -5.54921,-1.79436 -9.0072,-5.16318 -11.58399,-9.33594 -5.15358,-8.34551 -5.41797,-19.3457 -5.41797,-19.3457 z"
     id="path14" /><ellipse
     cx="-122.26789"
     cy="87.869217"
     rx="19.370001"
     ry="28.85"
     transform="rotate(-76.470032)"
     id="ellipse15"
     style="fill:#f0f1e9;fill-opacity:1" /><path
     d="m 246.73,12.83 c -5.37,0 -13.17,5.74 -20.37,15 a 98.08,98.08 0 0 0 -15.32,29 182.15,182.15 0 0 1 52.71,26 c 7,-0.83 12.82,-2.16 16.94,-3.9 4.12,-1.74 5,-3.25 5,-3.48 0.01,-31.1 -25,-62.62 -38.96,-62.62 z"
     fill="#ecf7fe"
     id="path16"
     style="fill:#683834;fill-opacity:1" /><g
     id="g25"><ellipse
       transform="rotate(-13.529968)"
       id="ellipse16"
       style="fill:#f0f1e9;fill-opacity:1"
       cx="203.76915"
       cy="192.56384"
       rx="28.85"
       ry="19.370001" /></g><g
     id="g31"
     transform="matrix(-1,0,0,1,300,0)"><path
       transform="rotate(-13.529968)"
       id="path26"
       d="m 232.61915,192.56384 a 28.85,19.370001 0 0 1 -28.85,19.37 28.85,19.370001 0 0 1 -28.85,-19.37 28.85,19.370001 0 0 1 28.85,-19.37 28.85,19.370001 0 0 1 28.85,19.37 z"
       style="fill:#f0f1e9;fill-opacity:1" /></g><g
     id="g40"><path
       d="m 220.24,55.808777 a 179.72,208.0233 0 0 1 43.51,26.448547 77,89.126391 0 0 0 13.67,-3.183086 c -1.16,-12.905964 -5.8,-27.131463 -12.87,-39.180887 -8.4,-14.294948 -16.3,-18.92489 -18.8,-18.92489 -1.72,0 -7.6,3.472457 -14.84,14.237073 a 89.54,103.64126 0 0 0 -10.66,20.626392 z"
       fill="#dd7399"
       id="path37"
       style="fill:#511b15;fill-opacity:0.493711;stroke-width:1.07587" /><path
       d="M 220.24,59.9 A 179.72,179.72 0 0 1 263.75,82.75 77,77 0 0 0 277.42,80 c -1.16,-11.15 -5.8,-23.44 -12.87,-33.85 -8.4,-12.35 -16.3,-16.35 -18.8,-16.35 -1.72,0 -7.6,3 -14.84,12.3 a 89.54,89.54 0 0 0 -10.66,17.82 z"
       fill="#dd7399"
       id="path17"
       style="fill:#f0f1e9;fill-opacity:1" /><path
       id="path34"
       style="baseline-shift:baseline;display:inline;overflow:visible;opacity:1;vector-effect:none;fill:#ff382e;stroke-linecap:round;stroke-linejoin:round;paint-order:stroke fill markers;enable-background:accumulate;stop-color:#000000;stop-opacity:1"
       d="m 245.75,29.800781 c -0.49931,0 -1.34852,0.251532 -2.48047,0.837891 6.92151,14.685008 10.82927,30.130718 12.08399,46.457031 A 179.72,179.72 0 0 1 263.75,82.75 a 77,77 0 0 0 5.70117,-0.833984 c 0.17845,-9.874342 0.0122,-19.749973 -1.03906,-29.462891 -1.18925,-2.157799 -2.47822,-4.266225 -3.86133,-6.302734 -8.4,-12.35 -16.30078,-16.34961 -18.80078,-16.34961 z m -6.91797,3.896485 c -2.04704,1.710211 -4.41621,4.064283 -6.97851,7.216796 2.62894,8.466869 4.32404,17.172277 5.28515,26.080079 a 179.72,179.72 0 0 1 7.58399,3.873047 c -0.53222,-12.697296 -2.1738,-25.156696 -5.89063,-37.169922 z m -9.53515,10.568359 a 89.54,89.54 0 0 0 -9.04102,15.640625 179.72,179.72 0 0 1 12.38281,4.998047 c -0.66223,-6.96078 -1.72579,-13.859603 -3.34179,-20.638672 z m -9.04102,15.640625 a 179.72,179.72 0 0 0 -0.0156,-0.0059 l 0.01,0.01953 a 89.54,89.54 0 0 1 0.006,-0.01367 z" /><path
       style="fill:#ffffff;fill-opacity:1;stroke:none;stroke-width:6.653;stroke-linecap:round;stroke-linejoin:round;stroke-dasharray:none;stroke-opacity:1;paint-order:stroke fill markers"
       d="m 253.75624,36.089888 c -2.5587,-1.954844 -7.91408,-4.071843 -9.57065,-1.310661 -3.07728,5.129281 6.94339,9.743073 10.51594,14.540593 3.44034,4.619983 6.46293,15.167264 10.51326,13.7147 8.08843,-2.900742 -3.70301,-21.019395 -11.45855,-26.944632 z"
       id="path35"
       sodipodi:nodetypes="aaasa"
       inkscape:transform-center-x="1.4827959"
       inkscape:transform-center-y="2.3944962" /><ellipse
       style="fill:#ffffff;fill-opacity:1;stroke:none;stroke-width:6.653;stroke-linecap:round;stroke-linejoin:round;stroke-dasharray:none;stroke-opacity:1;paint-order:stroke fill markers"
       id="path36"
       cx="266.74722"
       cy="69.340126"
       rx="1.9457688"
       ry="2.1226568" /><path
       id="path38"
       style="fill:#e4e4d8;fill-opacity:1;stroke:none;stroke-width:6.653;stroke-linecap:round;stroke-linejoin:round;stroke-dasharray:none;stroke-opacity:1;paint-order:stroke fill markers"
       d="M 222.41406,55.447266 A 89.54,89.54 0 0 0 220.25586,59.90625 179.72,179.72 0 0 1 263.75,82.75 77,77 0 0 0 277.41992,80 c -0.25397,-2.441215 -0.67536,-4.936265 -1.25195,-7.455078 -4.1225,0.401157 -8.35268,1.50981 -12.86719,4.458984 -11.6103,-11.222482 -26.14991,-16.587157 -40.88672,-21.55664 z m -2.1582,4.458984 a 179.72,179.72 0 0 0 -0.0156,-0.0059 l 0.01,0.01953 a 89.54,89.54 0 0 1 0.006,-0.01367 z" /><path
       id="path39"
       style="fill:#f02936;fill-opacity:1;stroke:none;stroke-width:6.653;stroke-linecap:round;stroke-linejoin:round;stroke-dasharray:none;stroke-opacity:1;paint-order:stroke fill markers"
       d="m 222.41406,55.447266 a 89.54,89.54 0 0 0 -2.1582,4.458984 179.72,179.72 0 0 1 12.38281,4.998047 c -0.19434,-2.04271 -0.42412,-4.08075 -0.6914,-6.111328 -3.15037,-1.170954 -6.33638,-2.267683 -9.53321,-3.345703 z m -2.1582,4.458984 a 179.72,179.72 0 0 0 -0.0156,-0.0059 l 0.01,0.01953 a 89.54,89.54 0 0 1 0.006,-0.01367 z m 16.03906,0.566406 c 0.32726,2.161272 0.60787,4.335297 0.84375,6.521485 a 179.72,179.72 0 0 1 7.58399,3.873047 c -0.096,-2.289317 -0.2286,-4.571122 -0.40235,-6.84375 -2.62443,-1.285122 -5.30571,-2.456154 -8.02539,-3.550782 z m 18.33399,9.494141 c 0.29935,2.357313 0.54056,4.734076 0.72461,7.128906 A 179.72,179.72 0 0 1 263.75,82.75 a 77,77 0 0 0 5.70117,-0.833984 c 0.048,-2.658681 0.0711,-5.31699 0.0586,-7.972657 -2.01924,0.691183 -4.08236,1.67129 -6.20899,3.060547 -2.73928,-2.647776 -5.64238,-4.969768 -8.67187,-7.037109 z" /></g><g
     id="g5"><ellipse
       style="fill:#dbd9d5;fill-opacity:1;stroke:none;stroke-width:5.45633;stroke-linecap:round;stroke-linejoin:round;stroke-dasharray:none;stroke-opacity:1;paint-order:stroke fill markers"
       id="circle4"
       cx="29.030674"
       cy="264.36942"
       rx="19.589806"
       ry="17.627213" /><circle
       style="fill:#dbd9d5;fill-opacity:1;stroke:none;stroke-width:5.96802;stroke-linecap:round;stroke-linejoin:round;stroke-dasharray:none;stroke-opacity:1;paint-order:stroke fill markers"
       id="circle5"
       cx="29.030674"
       cy="260.332"
       r="20.32526" /><circle
       style="fill:#f0f1e9;fill-opacity:1;stroke:none;stroke-width:5.75207;stroke-linecap:round;stroke-linejoin:round;stroke-dasharray:none;stroke-opacity:1;paint-order:stroke fill markers"
       id="path50"
       cx="29.030674"
       cy="260.332"
       r="19.589806" /><path
       id="path51"
       style="baseline-shift:baseline;display:inline;overflow:visible;opacity:1;vector-effect:none;fill:#ff0b00;fill-opacity:1;stroke-linecap:round;stroke-linejoin:round;paint-order:stroke fill markers;enable-background:accumulate;stop-color:#000000;stop-opacity:1"
       d="m 29.03125,240.74219 a 19.589806,19.589806 0 0 0 -11.382812,3.64453 l -0.002,0.002 c -1.433149,2.44228 0.479049,5.764 1.673828,8.33203 1.286634,2.76546 3.935116,5.27521 5.703126,7.15625 -3.281173,-0.34546 -7.875473,-3.45062 -10.013672,-5.81836 -1.136111,-1.25806 -1.820835,-2.84525 -2.306641,-4.55078 a 19.589806,19.589806 0 0 0 -1.308594,2.29688 c -0.383724,0.79376 -0.71338,1.61099 -0.986328,2.44726 a 19.589806,19.589806 0 0 0 0,0.002 19.589806,19.589806 0 0 0 -0.6484374,2.56054 c -0.1577779,0.86455 -0.2585663,1.74103 -0.2988281,2.625 2.4952675,1.75918 4.6915655,3.8216 7.5214845,4.63867 2.707862,0.78184 6.610276,-0.14601 8.455078,0.0801 -1.986936,1.50644 -6.494618,3.72038 -10.101562,4.43946 -1.335368,0.26622 -2.705177,0.19334 -4.083985,-0.0801 a 19.589806,19.589806 0 0 0 0.691406,1.30664 c 0.167661,0.30189 0.311124,0.6181 0.494141,0.91016 a 19.589806,19.589806 0 0 0 1.546875,2.14062 19.589806,19.589806 0 0 0 1.576172,1.67969 c 0.556362,0.52715 1.143842,1.02359 1.761719,1.48437 a 19.589806,19.589806 0 0 0 0.002,0 c 2.725847,-1.24827 5.489663,-2.16436 7.65625,-4.08008 2.387376,-2.11094 4.22847,-5.57311 5.49414,-7.82421 0.976861,2.67497 0.497036,8.18899 -0.08984,10.88085 -0.390672,1.79193 -1.403792,3.37937 -2.632813,4.86524 0.425872,0.0276 0.852532,0.0413 1.279297,0.041 0.776738,4e-5 1.55115,-0.0473 2.318359,-0.13868 a 19.589806,19.589806 0 0 0 2.289063,-0.41015 c 0.75297,-0.18213 1.49334,-0.40921 2.220703,-0.67969 a 19.589806,19.589806 0 0 0 2.126953,-0.93945 c 0.05417,-3.51196 0.625574,-7.00888 -0.603516,-10.17774 -0.85114,-2.19443 -3.977036,-4.32069 -4.443359,-5.48633 4.767523,0.58067 9.980561,6.37471 10.753906,11.23243 0.618294,-0.69795 1.166962,-1.44692 1.675782,-2.21875 a 19.589806,19.589806 0 0 0 0.457031,-0.76563 c 0.325665,-0.54681 0.629892,-1.10482 0.90039,-1.67969 a 19.589806,19.589806 0 0 0 0.400391,-0.90625 c 0.241399,-0.58882 0.447619,-1.19018 0.630859,-1.80078 a 19.589806,19.589806 0 0 0 0.25586,-0.86133 c 0.224306,-0.89522 0.405664,-1.80462 0.501953,-2.73046 -2.632508,-1.92803 -5.676165,-3.76027 -8.9375,-4.31055 -2.709825,-0.45722 -6.094425,0.80526 -8.189453,0.94726 3.0207,-6.68628 10.392886,-7.41543 16.166016,-4.96484 a 19.589806,19.589806 0 0 0 -0.08008,-0.26172 c -0.08139,-0.22878 -0.176059,-0.45083 -0.265625,-0.67578 a 19.589806,19.589806 0 0 0 -0.560546,-1.2832 c -0.11652,-0.24091 -0.237243,-0.47937 -0.363282,-0.71485 a 19.589806,19.589806 0 0 0 -0.730468,-1.24414 c -0.117565,-0.18537 -0.227919,-0.37544 -0.351563,-0.55664 a 19.589806,19.589806 0 0 0 -1.279297,-1.68945 c -0.553855,-0.6483 -1.166916,-1.24587 -1.802734,-1.81836 a 19.589806,19.589806 0 0 0 -0.492188,-0.42969 c -0.653911,-0.55032 -1.33165,-1.07499 -2.058594,-1.53906 -3.046061,1.29581 -6.185012,3.05064 -8.376953,5.59375 -1.79315,2.08043 -2.600675,5.68734 -3.515625,7.45312 -4.654385,-5.08889 -2.559169,-12.11887 1.402344,-16.12304 -0.01628,-2e-5 -0.03255,-2e-5 -0.04883,0 z" /><path
       id="circle2"
       style="fill:#e4e4d8;fill-opacity:1;stroke:none;stroke-width:5.75207;stroke-linecap:round;stroke-linejoin:round;stroke-dasharray:none;stroke-opacity:1;paint-order:stroke fill markers"
       d="M 9.5722656,258.06445 A 19.589806,19.589806 0 0 0 9.4414062,260.33203 19.589806,19.589806 0 0 0 29.03125,279.92188 19.589806,19.589806 0 0 0 48.621094,260.33203 19.589806,19.589806 0 0 0 48.488281,258.06445 19.589806,15.52578 0 0 1 29.03125,271.79297 19.589806,15.52578 0 0 1 9.5722656,258.06445 Z" /><path
       id="path3"
       style="fill:#f02936;fill-opacity:1;stroke:none;stroke-width:5.75207;stroke-linecap:round;stroke-linejoin:round;stroke-dasharray:none;stroke-opacity:1;paint-order:stroke fill markers"
       d="m 9.5722656,258.06641 c -0.053246,0.45538 -0.090374,0.91298 -0.1113281,1.37304 0.1647533,0.11616 0.3278188,0.23321 0.4902344,0.35157 a 19.589806,15.52578 0 0 1 -0.3789063,-1.72461 z m 37.8613284,3.52343 a 19.589806,15.52578 0 0 1 -5.914063,6.63868 c 1.107462,1.62737 1.891306,3.39115 2.164063,5.04882 a 19.589806,19.589806 0 0 0 0.236328,-0.25586 c 0.419431,-0.49721 0.806382,-1.01704 1.171875,-1.55078 a 19.589806,19.589806 0 0 0 0.380859,-0.54101 19.589806,19.589806 0 0 0 0.353516,-0.5918 c 0.325665,-0.54681 0.629893,-1.10482 0.90039,-1.67969 a 19.589806,19.589806 0 0 0 0.400391,-0.90625 c 0.241399,-0.58882 0.447619,-1.19018 0.630859,-1.80078 a 19.589806,19.589806 0 0 0 0.228516,-0.77148 19.589806,19.589806 0 0 0 0.0918,-0.4375 c 0.16338,-0.6905 0.297499,-1.38906 0.384766,-2.09766 a 19.589806,19.589806 0 0 0 0.02148,-0.30664 c -0.344041,-0.25157 -0.693184,-0.50253 -1.050781,-0.74805 z m -30.800782,6.69727 c -0.440693,0.12136 -0.875325,0.22651 -1.296874,0.31055 -1.327774,0.2647 -2.689683,0.19342 -4.060547,-0.0762 a 19.589806,19.589806 0 0 0 0.126953,0.28125 19.589806,19.589806 0 0 0 0.541015,1.02149 c 0.07046,0.12686 0.140391,0.25375 0.207032,0.38281 a 19.589806,19.589806 0 0 0 0.511718,0.83789 19.589806,19.589806 0 0 0 0.923829,1.27735 19.589806,19.589806 0 0 0 0.642578,0.81445 19.589806,19.589806 0 0 0 0.742187,0.78906 19.589806,19.589806 0 0 0 1.158203,1.14649 c 0.384264,0.33698 0.781927,0.65997 1.19336,0.96679 a 19.589806,19.589806 0 0 0 0.002,0 c 2.725824,-1.24825 5.489681,-2.16437 7.65625,-4.08008 0.155507,-0.1375 0.308121,-0.28142 0.458984,-0.42968 a 19.589806,15.52578 0 0 1 -8.806641,-3.24219 z m 21.378907,1.77734 a 19.589806,15.52578 0 0 1 -7.138672,1.66016 c -0.121722,1.26392 -0.299188,2.42369 -0.488281,3.29101 -0.390606,1.79163 -1.404072,3.37959 -2.632813,4.86524 0.425872,0.0276 0.852532,0.0413 1.279297,0.041 0.02587,0 0.05226,1e-4 0.07813,0 0.748752,-0.003 1.494621,-0.0508 2.234375,-0.13868 a 19.589806,19.589806 0 0 0 0.0059,0 19.589806,19.589806 0 0 0 0.179688,-0.0332 19.589806,19.589806 0 0 0 2.033203,-0.36328 19.589806,19.589806 0 0 0 2.076172,-0.61328 19.589806,19.589806 0 0 0 2.347656,-1.02539 c 0.04072,-2.61228 0.367598,-5.21698 0.02539,-7.6836 z" /><path
       style="fill:#fffdf8;fill-opacity:1;stroke-width:13.753;stroke-linecap:round;stroke-linejoin:round;paint-order:stroke fill markers"
       d="m 29.012233,242.67879 c -1.40536,0.61021 -2.94887,2.40332 -2.488284,3.86457 0.828171,2.62744 5.23696,1.79833 7.650115,3.12725 2.064685,1.13701 4.17872,2.35355 5.760421,4.1011 2.154367,2.38027 4.778485,8.36235 4.778485,8.36235 0,0 1.088704,-6.1726 0.170661,-9.04499 -1.098722,-3.4377 -3.379947,-6.79417 -6.444678,-8.70006 -2.711908,-1.68648 -6.497401,-2.98213 -9.42672,-1.71022 z"
       id="path4"
       sodipodi:nodetypes="aaaacaaa" /><ellipse
       style="fill:#fffdf8;fill-opacity:1;stroke-width:12.6509;stroke-linecap:round;stroke-linejoin:round;paint-order:stroke fill markers"
       id="path5"
       cx="44.066288"
       cy="264.39774"
       rx="1.05548"
       ry="0.96752334" /></g><g
     id="g32"
     transform="matrix(0.98230014,0.18731374,0.18731374,-0.98230014,194.22846,511.8816)"><path
       id="path11"
       d="M 49.355934,260.332 A 20.32526,20.32526 0 0 1 29.030674,280.65726 20.32526,20.32526 0 0 1 8.7054138,260.332 20.32526,20.32526 0 0 1 29.030674,240.00674 20.32526,20.32526 0 0 1 49.355934,260.332 Z"
       style="fill:#dbd9d5;fill-opacity:1;stroke:none;stroke-width:5.96802;stroke-linecap:round;stroke-linejoin:round;stroke-dasharray:none;stroke-opacity:1;paint-order:stroke fill markers" /><path
       id="path12"
       d="M 48.62048,260.332 A 19.589806,19.589806 0 0 1 29.030674,279.92181 19.589806,19.589806 0 0 1 9.4408684,260.332 19.589806,19.589806 0 0 1 29.030674,240.7422 19.589806,19.589806 0 0 1 48.62048,260.332 Z"
       style="fill:#f0f1e9;fill-opacity:1;stroke:none;stroke-width:5.75207;stroke-linecap:round;stroke-linejoin:round;stroke-dasharray:none;stroke-opacity:1;paint-order:stroke fill markers" /><path
       id="path18"
       d="m 29.03125,240.74219 a 19.589806,19.589806 0 0 0 -11.382812,3.64453 l -0.002,0.002 c -1.433149,2.44228 0.479049,5.764 1.673828,8.33203 1.286634,2.76546 3.935116,5.27521 5.703126,7.15625 -3.281173,-0.34546 -7.875473,-3.45062 -10.013672,-5.81836 -1.136111,-1.25806 -1.820835,-2.84525 -2.306641,-4.55078 a 19.589806,19.589806 0 0 0 -1.308594,2.29688 c -0.383724,0.79376 -0.71338,1.61099 -0.986328,2.44726 a 19.589806,19.589806 0 0 0 0,0.002 19.589806,19.589806 0 0 0 -0.6484374,2.56054 c -0.1577779,0.86455 -0.2585663,1.74103 -0.2988281,2.625 2.4952675,1.75918 4.6915655,3.8216 7.5214845,4.63867 2.707862,0.78184 6.610276,-0.14601 8.455078,0.0801 -1.986936,1.50644 -6.494618,3.72038 -10.101562,4.43946 -1.335368,0.26622 -2.705177,0.19334 -4.083985,-0.0801 a 19.589806,19.589806 0 0 0 0.691406,1.30664 c 0.167661,0.30189 0.311124,0.6181 0.494141,0.91016 a 19.589806,19.589806 0 0 0 1.546875,2.14062 19.589806,19.589806 0 0 0 1.576172,1.67969 c 0.556362,0.52715 1.143842,1.02359 1.761719,1.48437 a 19.589806,19.589806 0 0 0 0.002,0 c 2.725847,-1.24827 5.489663,-2.16436 7.65625,-4.08008 2.387376,-2.11094 4.22847,-5.57311 5.49414,-7.82421 0.976861,2.67497 0.497036,8.18899 -0.08984,10.88085 -0.390672,1.79193 -1.403792,3.37937 -2.632813,4.86524 0.425872,0.0276 0.852532,0.0413 1.279297,0.041 0.776738,4e-5 1.55115,-0.0473 2.318359,-0.13868 a 19.589806,19.589806 0 0 0 2.289063,-0.41015 c 0.75297,-0.18213 1.49334,-0.40921 2.220703,-0.67969 a 19.589806,19.589806 0 0 0 2.126953,-0.93945 c 0.05417,-3.51196 0.625574,-7.00888 -0.603516,-10.17774 -0.85114,-2.19443 -3.977036,-4.32069 -4.443359,-5.48633 4.767523,0.58067 9.980561,6.37471 10.753906,11.23243 0.618294,-0.69795 1.166962,-1.44692 1.675782,-2.21875 a 19.589806,19.589806 0 0 0 0.457031,-0.76563 c 0.325665,-0.54681 0.629892,-1.10482 0.90039,-1.67969 a 19.589806,19.589806 0 0 0 0.400391,-0.90625 c 0.241399,-0.58882 0.447619,-1.19018 0.630859,-1.80078 a 19.589806,19.589806 0 0 0 0.25586,-0.86133 c 0.224306,-0.89522 0.405664,-1.80462 0.501953,-2.73046 -2.632508,-1.92803 -5.676165,-3.76027 -8.9375,-4.31055 -2.709825,-0.45722 -6.094425,0.80526 -8.189453,0.94726 3.0207,-6.68628 10.392886,-7.41543 16.166016,-4.96484 a 19.589806,19.589806 0 0 0 -0.08008,-0.26172 c -0.08139,-0.22878 -0.176059,-0.45083 -0.265625,-0.67578 a 19.589806,19.589806 0 0 0 -0.560546,-1.2832 c -0.11652,-0.24091 -0.237243,-0.47937 -0.363282,-0.71485 a 19.589806,19.589806 0 0 0 -0.730468,-1.24414 c -0.117565,-0.18537 -0.227919,-0.37544 -0.351563,-0.55664 a 19.589806,19.589806 0 0 0 -1.279297,-1.68945 c -0.553855,-0.6483 -1.166916,-1.24587 -1.802734,-1.81836 a 19.589806,19.589806 0 0 0 -0.492188,-0.42969 c -0.653911,-0.55032 -1.33165,-1.07499 -2.058594,-1.53906 -3.046061,1.29581 -6.185012,3.05064 -8.376953,5.59375 -1.79315,2.08043 -2.600675,5.68734 -3.515625,7.45312 -4.654385,-5.08889 -2.559169,-12.11887 1.402344,-16.12304 -0.01628,-2e-5 -0.03255,-2e-5 -0.04883,0 z"
       style="baseline-shift:baseline;display:inline;overflow:visible;opacity:1;vector-effect:none;fill:#ff0b00;fill-opacity:1;stroke-linecap:round;stroke-linejoin:round;paint-order:stroke fill markers;enable-background:accumulate;stop-color:#000000;stop-opacity:1" /><path
       id="path22"
       d="m 27.557837,277.67214 c -1.349878,-0.72472 -2.739271,-2.63973 -2.159017,-4.05772 1.043341,-2.54966 5.368125,-1.35756 7.883232,-2.48165 2.151914,-0.96176 4.359608,-1.99868 6.080867,-3.60896 2.344454,-2.19329 5.455919,-7.93698 5.455919,-7.93698 0,0 0.572742,6.24165 -0.580488,9.02795 -1.380196,3.33468 -3.932076,6.49027 -7.144389,8.13527 -2.842501,1.45563 -6.722452,2.43269 -9.536124,0.92209 z"
       style="fill:#fffdf8;fill-opacity:1;stroke-width:13.753;stroke-linecap:round;stroke-linejoin:round;paint-order:stroke fill markers" /><path
       id="path32"
       d="m 45.414068,257.36488 a 1.05548,0.96752334 4.7599241 0 0 -0.971554,-1.05177 1.05548,0.96752334 4.7599241 0 0 -1.132125,0.8766 1.05548,0.96752334 4.7599241 0 0 0.971553,1.05178 1.05548,0.96752334 4.7599241 0 0 1.132126,-0.87661 z"
       style="fill:#fffdf8;fill-opacity:1;stroke-width:12.6509;stroke-linecap:round;stroke-linejoin:round;paint-order:stroke fill markers" /><path
       id="path1"
       style="fill:#e4e4d8;fill-opacity:1;stroke:none;stroke-width:5.75207;stroke-linecap:round;stroke-linejoin:round;stroke-dasharray:none;stroke-opacity:1;paint-order:stroke fill markers"
       d="m 9.4498195,260.94868 a 19.589806,19.589806 0 0 1 -0.00958,-0.61616 19.589806,19.589806 0 0 1 19.5901671,-19.59011 19.589806,19.589806 0 0 1 19.590111,19.59016 19.589806,19.589806 0 0 1 -0.128235,2.2388 19.589806,16.925914 2.3799621 0 0 -19.683052,-16.50739 19.589806,16.925914 2.3799621 0 0 -19.3594135,14.8847 z" /><path
       id="path15"
       style="fill:#f02936;fill-opacity:1;stroke:none;stroke-width:5.75207;stroke-linecap:round;stroke-linejoin:round;stroke-dasharray:none;stroke-opacity:1;paint-order:stroke fill markers"
       d="m 48.492366,262.56942 a 19.589806,16.925914 2.3799621 0 0 -0.01173,-0.23507 c 0.0118,0.009 0.02237,0.0163 0.03415,0.0249 -0.0073,0.0703 -0.01414,0.14005 -0.02242,0.21019 z M 9.6857206,259.59989 c -0.061901,-0.0444 -0.1237971,-0.0888 -0.1860504,-0.13284 a 19.589806,19.589806 0 0 1 0.06032,-0.88693 c 0.040743,-0.45001 0.080247,-0.89975 0.1516648,-1.34447 a 19.589806,19.589806 0 0 1 0.2637988,-1.26748 19.589806,19.589806 0 0 1 0.3298187,-1.30384 19.589806,19.589806 0 0 1 0.438779,-1.24457 c 0.15594,-0.41226 0.309142,-0.8253 0.492771,-1.22669 a 19.589806,19.589806 0 0 1 0.603927,-1.1732 19.589806,19.589806 0 0 1 0.659951,-1.15718 19.589806,19.589806 0 0 1 0.218122,-0.30957 c 0.26265,0.91401 0.580562,1.79401 0.998104,2.60619 a 19.589806,16.925914 2.3799621 0 0 -4.0312064,7.44058 z M 47.551291,254.02883 C 46.627458,253.63696 45.661983,253.32765 44.68072,253.11 a 19.589806,16.925914 2.3799621 0 0 -10.502377,-6.36935 c 1.678304,-1.19008 3.551889,-2.13854 5.391583,-2.9212 a 19.589806,19.589806 0 0 1 0.236058,0.15251 c 0.638663,0.425 1.240109,0.89498 1.822944,1.38549 a 19.589806,19.589806 0 0 1 0.0113,0.0102 19.589806,19.589806 0 0 1 0.481072,0.41878 c 0.588783,0.53014 1.157109,1.08307 1.677919,1.67659 a 19.589806,19.589806 0 0 1 0.882979,1.14312 19.589806,19.589806 0 0 1 0.520698,0.68823 c 0.08974,0.13151 0.171294,0.2698 0.254867,0.40547 a 19.589806,19.589806 0 0 1 0.486235,0.81191 19.589806,19.589806 0 0 1 0.341317,0.58303 c 0.108865,0.20339 0.212839,0.40961 0.314489,0.61711 a 19.589806,19.589806 0 0 1 0.400382,0.90217 19.589806,19.589806 0 0 1 0.208772,0.47979 c 0.08428,0.21167 0.171198,0.42133 0.249199,0.63589 a 19.589806,19.589806 0 0 1 0.09313,0.29905 z m -29.884099,-5.01092 c -0.578545,-1.62758 -0.820283,-3.26421 -0.02073,-4.6279 a 19.589806,19.589806 0 0 1 2.059114,-1.2867 19.589806,19.589806 0 0 1 0.002,-0.002 19.589806,19.589806 0 0 1 2.200458,-1.01888 19.589806,19.589806 0 0 1 0.002,-0.002 19.589806,19.589806 0 0 1 2.310011,-0.73869 19.589806,19.589806 0 0 1 1.83431,-0.346 19.589806,19.589806 0 0 1 0.551675,-0.10414 19.589806,19.589806 0 0 1 2.424313,-0.14945 c 0.01628,-2e-5 0.03259,5e-5 0.04887,7e-5 -1.48646,1.50253 -2.709093,3.43108 -3.411989,5.52324 a 19.589806,16.925914 2.3799621 0 0 -8.000095,2.75219 z" /></g><path
     id="path33"
     style="clip-rule:evenodd;fill:#000000;fill-opacity:0.198113;fill-rule:evenodd;stroke-width:0.853861;stroke-linejoin:round;stroke-miterlimit:2"
     d="m 298.65625,288.17578 c -5.97401,-0.31271 -1.19453,10.08388 -4.80469,14.01563 -4.8995,14.41604 -20.46162,22.7434 -35.2207,21.125 h -66.52539 -0.17774 c -0.70274,-1.26133 -1.45669,-2.45842 -2.20703,-3.63282 l -14.48632,0.0606 c -0.002,-0.84751 0.015,-1.67445 0.0547,-2.48047 0.285,-5.79819 1.66397,-10.51223 4.16797,-14 -1.657,-1.50813 -5.78719,-1.92665 -10.36719,-2.71679 -0.303,-0.0521 -0.60806,-0.10305 -0.91406,-0.15235 h -0.002 c -4.90011,-0.7915 -10.15415,-1.21799 -15.48438,-1.24609 -5.33022,-0.0281 -10.73665,0.34131 -15.93945,1.13867 -4.933,0.75585 -7.42244,1.48234 -8.89844,3.70703 -2.31073,3.48132 -3.97304,7.10687 -5.06445,10.9043 l -0.002,0.002 h -0.002 -0.002 l -0.002,0.002 c -0.005,0.0173 -0.007,0.0354 -0.0117,0.0527 -0.0542,0.1896 -0.0874,0.38569 -0.13867,0.57617 -0.27451,1.01865 -0.51693,2.04727 -0.71094,3.0918 -0.0811,0.43692 -0.1338,0.88457 -0.20117,1.32617 -0.11221,0.73542 -0.21243,1.47586 -0.28711,2.22461 -0.0463,0.464 -0.0825,0.93142 -0.11133,1.40234 -14.43001,-0.66645 -28.994199,-0.0412 -43.470704,-0.25976 -15.450898,-0.20802 -30.946001,0.44044 -46.367187,-0.3711 C 15.129136,320.81697 2.6916798,304.70815 4.1953125,288.38672 H 0 v 20.7207 c 7.2731263,15.41732 24.652205,24.16109 41.369141,22.59766 h 75.673829 4.41601 c 0.0846,1.35073 0.20843,2.72048 0.41993,4.13086 0.25142,1.67479 0.82098,3.13401 1.88671,4.34765 0.44585,0.50755 0.97766,0.97254 1.60938,1.39258 -0.15365,0.34519 -0.26637,0.69553 -0.34961,1.06055 -0.085,0.37078 -0.16928,0.74302 -0.23828,1.11523 -0.057,0.30863 -0.10091,0.61821 -0.12891,0.92969 -0.009,0.10071 -0.0164,0.20724 -0.0215,0.31836 h 68.83984 c 0.41861,-0.52915 0.448,-1.10683 0.26367,-1.69922 -0.1968,-0.62904 -0.68099,-1.27482 -1.08398,-1.85937 2.33016,-1.80532 2.85869,-4.16624 2.74023,-6.64063 -0.0395,-0.82386 -0.11822,-1.61317 -0.22851,-2.37305 -0.0362,-0.24975 -0.0941,-0.48222 -0.14063,-0.72265 h 9.1543 c 21.28429,-0.14773 42.59084,0.30321 63.86133,-0.23828 13.57588,-1.41836 26.7443,-10.32528 31.95703,-22.98438 v -20.0957 c -0.49946,-0.12112 -0.94552,-0.19009 -1.34375,-0.21094 z" /><g
     transform="matrix(1,0,0,0.72907851,-0.362931,98.873478)"
     id="g5-2"
     style="clip-rule:evenodd;fill-rule:evenodd;stroke-linejoin:round;stroke-miterlimit:2">
                    <path
   d="m 191.112,323.854 -20.365,5.345 c -0.035,-0.137 -0.11,-0.265 -0.223,-0.367 -0.308,-0.277 -0.782,-0.252 -1.059,0.055 -0.204,0.227 -0.337,0.607 -0.33,1.074 0.01,0.606 0.241,1.424 0.303,1.725 0.044,0.215 0.095,0.429 0.153,0.641 0.342,1.247 0.899,2.739 1.763,3.784 0.992,1.201 2.353,1.871 4.211,1.222 1.254,-0.438 1.838,-1.357 2.033,-2.497 0.36,0.437 0.776,0.828 1.231,1.116 0.892,0.566 1.919,0.762 2.974,0.296 1.26,-0.556 1.738,-1.549 1.799,-2.702 0.008,-0.152 0.008,-0.308 0,-0.466 1.259,1.051 2.921,1.63 4.49,0.949 1.276,-0.554 1.695,-1.53 1.673,-2.64 -0.005,-0.266 -0.041,-0.542 -0.098,-0.821 0.773,0.355 1.64,0.463 2.516,0.162 0.416,-0.143 0.795,-0.372 1.11,-0.679 0.921,-0.899 1.056,-1.945 0.811,-3.025 -0.289,-1.267 -1.198,-2.586 -1.559,-3.611 -0.137,-0.391 -0.566,-0.596 -0.956,-0.459 -0.371,0.13 -0.575,0.524 -0.477,0.898 z"
   style="fill:#e0222f"
   id="path5-2" />
                </g><path
     d="m 189.721,313.68432 c 2.65,4.14773 5.361,8.56011 5.675,15.11599 0.158,3.30054 -0.833,6.39912 -5.719,8.2466 -7.712,2.91705 -15.785,4.03327 -24.118,3.8561 l -3.638,-27.10349 z"
     style="clip-rule:evenodd;fill:#e0222f;fill-rule:evenodd;stroke-width:0.853861;stroke-linejoin:round;stroke-miterlimit:2"
     id="path6-7" /><path
     d="m 193.393,320.24457 c 1.07,2.46574 1.844,5.23551 2.003,8.55574 0.158,3.30054 -0.833,6.39912 -5.719,8.2466 -7.712,2.91705 -15.785,4.03327 -24.118,3.8561 l -1.488,-11.08783 c 10.503,-1.37795 22.005,-4.25636 29.322,-9.57061 z"
     style="clip-rule:evenodd;fill:#ececec;fill-rule:evenodd;stroke-width:0.853861;stroke-linejoin:round;stroke-miterlimit:2"
     id="path7-3" /><path
     d="m 178.452,313.73098 c -0.673,4.88629 -0.48,10.02119 1.289,15.61103 1.312,4.14263 -0.686,8.67312 -4.068,11.13668 0.608,1.57189 0.574,3.0716 -0.825,4.41675 -1.678,0.32882 -2.929,-0.15164 -3.857,-0.97113 -0.864,-0.76189 -1.421,-1.84894 -1.763,-2.7581 -0.033,-0.0889 -0.064,-0.17863 -0.093,-0.2683 -1.186,0.0292 -2.378,0.0306 -3.576,0.005 l -3.638,-27.10349 z"
     style="clip-rule:evenodd;fill:#210002;fill-opacity:0.15;fill-rule:evenodd;stroke-width:0.853861;stroke-linejoin:round;stroke-miterlimit:2"
     id="path8-7" /><path
     d="m 0,258.72896 v 32.321 c 0,20.079 16.301,36.38 36.38,36.38 h 227.24 c 20.079,0 36.38,-16.301 36.38,-36.38 v -32.321 c 0,20.079 -25.21,34.797 -46.866,36.672 -16.475,1.427 -29.685,1.525 -44.506,1.239 -12.41,-0.24 -23.109,0.816 -29.043,5.482 l -50.778,-0.75 c -10.815,-7.911 -29.044,-5.209 -52.777,-4.509 -14.503,0.427 -30.661,-0.206 -43.487,-1.805 C 12.619,292.57296 0,278.80796 0,258.72896 Z"
     style="clip-rule:evenodd;fill:#e0222f;fill-rule:evenodd;stroke-linejoin:round;stroke-miterlimit:2"
     id="path9-0" /><path
     d="m 41.312,295.96096 c -7.22,7.697 -11.256,17.372 -8.434,31.302 1.154,0.111 2.321,0.167 3.502,0.167 h 26.249 c -3.554,-15.283 0.021,-24.456 7.304,-30.451 -9.583,0.088 -19.57,-0.26 -28.621,-1.018 z m 126.082,31.469 8.469,-25.363 -47.056,-0.695 c -4.55,-3.328 -10.412,-4.778 -17.445,-5.289 -10.137,5.587 -16.426,15.067 -15.995,31.347 z m 51.073,0 h -31.1 c -3.453,-14.054 1.097,-23.355 9.294,-30.492 3.709,-0.311 7.739,-0.38 11.967,-0.298 5.35,0.103 10.491,0.156 15.652,0.115 -7.718,8.696 -11.914,19.568 -5.813,30.675 z m 62.076,-40.852 c 1.66,8.843 6.761,18.415 14.443,22.902 -6.328,10.739 -18.012,17.95 -31.366,17.95 h -5.521 c -7.993,-11.114 -9.956,-21.813 -4.909,-32.034 9.217,-0.808 19.072,-3.938 27.353,-8.818 z m -271.726,28.206 c -1.363,-11.653 1.125,-19.963 6.469,-25.764 C 5.622,282.72096 0,272.13196 0,258.72896 v 32.321 c 0,9.066 3.323,17.361 8.817,23.734 z"
     style="clip-rule:evenodd;fill:#ececec;fill-rule:evenodd;stroke-linejoin:round;stroke-miterlimit:2"
     id="path10-2" /><path
     d="m 178.292,322.14196 h 85.328 c 20.079,0 36.38,-16.301 36.38,-36.38 v 5.288 c 0,20.079 -16.301,36.38 -36.38,36.38 H 36.38 c -20.079,0 -36.38,-16.301 -36.38,-36.38 v -5.288 c 0,20.079 16.301,36.38 36.38,36.38 h 82.038 c 0.977,-8.592 3.739,-15.92 7.458,-22.572 1.03,0.528 2.008,1.126 2.931,1.802 l 50.778,0.75 c 1.882,-1.48 4.243,-2.596 6.984,-3.423 -6.084,5.741 -8.542,13.743 -8.277,23.443 z"
     style="clip-rule:evenodd;fill:#210002;fill-opacity:0.15;fill-rule:evenodd;stroke-linejoin:round;stroke-miterlimit:2"
     id="path11-3" /><path
     d="m 149.38,342.88459 c 0.202,0.30863 0.438,0.60368 0.712,0.87945 0.713,0.7187 1.812,1.38525 3.161,1.20665 1.042,-0.13789 1.743,-0.61011 2.192,-1.24094 0.188,-0.26434 0.329,-0.55868 0.433,-0.8623 0.295,0.38935 0.642,0.75299 1.047,1.05948 0.858,0.65011 1.96,1.05447 3.351,0.97874 1.132,-0.0614 1.891,-0.53581 2.356,-1.19736 0.175,-0.24861 0.305,-0.52581 0.396,-0.81229 0.121,0.13431 0.252,0.26005 0.393,0.37293 0.649,0.52081 1.489,0.80157 2.554,0.58939 0.842,-0.16717 1.425,-0.58796 1.802,-1.1302 0.153,-0.22004 0.27,-0.46152 0.359,-0.70942 l 0.03,0.025 c 0.695,0.5801 1.546,0.81657 2.362,0.803 1.199,-0.02 2.366,-0.59868 2.892,-1.56243 0.883,-1.61957 0.123,-3.46634 -0.744,-4.99733 -0.155,-0.27433 -0.592,-0.4065 -0.976,-0.29577 -0.327,0.095 -0.511,0.33578 -0.461,0.57511 l -21.573,2.27398 c -0.038,-0.18146 -0.201,-0.33149 -0.422,-0.40579 -0.142,-0.07 -0.318,-0.10573 -0.503,-0.0914 -0.327,0.0243 -0.583,0.19575 -0.653,0.41293 l -20.992,-3.42991 c 0.08,-0.24933 -0.099,-0.5108 -0.44,-0.61368 -0.381,-0.11431 -0.822,0.0136 -0.982,0.28577 -0.314,0.53224 -0.519,1.06876 -0.649,1.63886 -0.085,0.37079 -0.169,0.74228 -0.238,1.11449 -0.057,0.30863 -0.101,0.61797 -0.129,0.92946 -0.08,0.86444 -0.029,2.15896 0.586,3.10484 0.486,0.74728 1.296,1.29595 2.563,1.39883 1.325,0.10859 2.218,-0.33006 2.82,-1.01733 0.08,-0.0914 0.154,-0.18789 0.222,-0.28862 0.109,0.19075 0.235,0.37221 0.38,0.53938 0.601,0.69155 1.501,1.14949 2.771,1.1052 1.138,-0.04 1.867,-0.52581 2.308,-1.21593 0.027,-0.0429 0.053,-0.0872 0.078,-0.13217 0.593,1.19164 1.69,2.10824 3.744,2.29184 0.898,0.08 1.76,-0.34435 2.294,-0.81014 0.302,-0.26434 0.531,-0.54653 0.704,-0.84158 0.502,0.79871 1.322,1.42668 2.642,1.65387 0.701,0.12002 1.471,0.15788 2.123,-0.11431 0.733,-0.30506 1.202,-0.91945 1.487,-1.47027 z"
     style="clip-rule:evenodd;fill:#e0222f;fill-rule:evenodd;stroke-width:0.845231;stroke-linejoin:round;stroke-miterlimit:2"
     id="path12-9" /><path
     d="m 132.093,337.84154 c -7.057,-1.0902 -9.598,-3.89499 -10.215,-8.00502 -1.811,-12.07719 -0.246,-22.47049 5.974,-31.84148 1.476,-2.22468 3.965,-2.95196 8.898,-3.70781 10.731,-1.64458 22.326,-1.46741 32.339,0.25933 4.58,0.79015 8.711,1.20879 10.368,2.71692 -4.445,6.19112 -5.342,16.24937 -2.878,29.37317 0.981,5.22666 -0.784,11.33063 -9.854,12.12005 -12.113,1.05448 -23.251,0.84373 -34.632,-0.91516 z"
     style="clip-rule:evenodd;fill:#e0222f;fill-rule:evenodd;stroke-width:0.845231;stroke-linejoin:round;stroke-miterlimit:2"
     id="path13-9" /><path
     d="m 123.766,334.18302 c 17.246,-4.69156 34.861,-7.10057 52.989,-6.32614 0.49,4.91517 -1.659,10.17112 -10.03,10.89982 -12.113,1.05448 -23.251,0.84373 -34.632,-0.91516 -4.181,-0.64583 -6.777,-1.89392 -8.327,-3.65852 z m 44.409,-39.78934 c 0.306,0.0493 0.611,0.10073 0.914,0.15288 4.58,0.79015 8.711,1.20879 10.368,2.71692 -2.504,3.48778 -3.882,8.2022 -4.167,14.00039 -19.195,-1.24308 -37.332,1.99036 -54.072,11.80285 -0.205,-4.99947 0.28,-9.70318 1.562,-14.1647 10.22,-7.67568 24.37,-13.07808 45.395,-14.50834 z"
     style="clip-rule:evenodd;fill:#ececec;fill-rule:evenodd;stroke-width:0.845231;stroke-linejoin:round;stroke-miterlimit:2"
     id="path14-7" /><path
     d="m 121.7,213 c 0,12 16.44,23.3 28.3,23.3 11.86,0 28.3,-12.76 28.3,-23.3 0,-10.54 -56.62,-12 -56.62,0 z"
     fill="#414042"
     id="path55"
     style="fill:#414042;fill-opacity:1" /></svg>
