<?xml version="1.0" encoding="UTF-8"?>
<svg id="Layer_1" data-name="Layer 1" xmlns="http://www.w3.org/2000/svg" xmlns:xlink="http://www.w3.org/1999/xlink" viewBox="0 0 300 345">
  <defs>
    <clipPath id="clippath">
      <path d="M174.810159240884786,98.78561259023445c1.74397116110049-5.644066041106271,7.733169038947381-8.805736392440849,13.37725096214308-7.06176032390249l58.859026286023436,18.1869672795101c5.644081923202975,1.743976068544725,8.805715602924465,7.733180013601668,7.061744441822157,13.377246054708849l-10.596362159600176,34.293323856712959c-1.743976068530174,5.644081923197518-7.733153156846129,8.80574129987599-13.377235080044557,7.061765231344907l-70.768949766958031-16.552346183208101,15.44452531661409-49.305195915166223Z" style="fill: none;"/>
    </clipPath>
    <linearGradient id="linear-gradient" x1="144.582994315574979" y1="130.812846775372236" x2="97.81041566966536" y2="284.949753676732826" gradientUnits="userSpaceOnUse">
      <stop offset="0" stop-color="#760800" stop-opacity="0"/>
      <stop offset=".593076232612866" stop-color="#760800" stop-opacity=".5"/>
    </linearGradient>
  </defs>
  <g>
    <path d="M234.687781224630271,191.853317571700245c-9.442138671870453,1.268676757809772-18.88427734375,2.537414550780341-28.326171875,3.80615234375-14.67041015625,.553405761719659-28.354614257809772-2.505554199219659-41.052978515620453-9.176940917969659-13.209838867189319-4.297180175780341-24.640502929689319-11.64111328125-34.291748046879547-22.031860351560681-10.390747070309772-9.651306152340112-17.734741210930224-21.081909179689319-22.031982421870453-34.291809082029431-3.510009765629547-6.680847167970569-6.009643554689319-13.637329101560681-7.519775390629547-20.863952636720569l-45.239013671870453-18.274169921879547c-10.246459960939319,4.641418457039435-20.371459960939319,9.590881347659888-30.300170898439319,14.857604980469659-1.483032226560681,.786743164069776-2.949584960940228,1.604248046880457-4.423950195310681,2.407409667970569v114.127563476559772c0,16.272888183600116,13.191772460940228,29.464660644539435,29.464599609370453,29.464660644539435H235.011145482450047c16.272827148430224,0,29.464599609370453-13.191772460939319,29.464599609370453-29.464660644539435v-43.997985839840112c-9.083618164060681,5.927490234379547-19.008422851560681,10.414672851559772-29.787963867190228,13.43798828125Z" style="fill: #be0700;"/>
    <path d="M206.800574193380271,190.669505561900223c-75.420043945309772,2.119995117180224-117.739990234370453-88.820007324219659-153.460083007809772-88.820007324219659-17.329956054690228,0-24.269897460940228,7.340026855469659-28.400024414060681,15.390014648429315,10.929715471950658-10.920781188149704,20.282482001410244,.836434252470099,14.608437574440359,22.50967694352039-.933228578420312,1.663350050150257-4.167584671259647-.630461487319735-5.65836433225013,.860318173669839C20.680457005880271,153.819529975959995,.089643461909873,133.777745031210543,.089643461909873,133.777745031210543c0,0-.025738097810063-4.335332837360511-.009570726399943-9.783596080400457,.018796201450641-6.33415605115988,2.102692791790105-13.719485968409572,6.290569817249889-19.58465315453941,10.10986328125-14.139953613280341,47.8798828125-53.759948730470569,96.539794921870453-5.109985351560681,48.650146484379547,48.660034179690228,56.080078125,76.070007324220569,103.89013671875,76.070007324220569,28.409912109379547,0,43.419921875-11.599975585940228,50.929931640629547-21.02001953125v-.009948730470569c.85009765625-1.059997558600116,1.60009765625-2.090026855469659,2.260009765620453-3.080017089850116,.77001953125-2.400024414059772-4.760254480600452,2.015481036980418-15.070191004029766,2.85544685729019-1.037932004750473-5.061981965260202-.247531731080016-9.094884225460191,.496190854600172-10.488481013069759,.743722585679279-1.393596787600472,17.747996930429508-16.780345513409884,29.813990383809141-10.717002465309633,.679931640620453,.27001953125,1.390014648440228,.720031738279431,2.119995117190228,1.380004882809772l.0400390625,.0400390625c1.680053710930224,1.399963378909888,3.059936523430224,3.390014648440228,4.029907226559772,6.099975585940228,.670043945310681,1.880004882809772,1.0400390625,3.679992675779431,1.16015625,5.390014648439319,.009887695310681,.02001953125,.009887695310681,.039978027340112,.009887695310681,.059997558590112,.097482702140042,1.016191079230339,.145626906699363,10.536931121599991,.110817868619961,11.621680787829973-10.803431863229889,15.293032625960223-17.219507534090553,31.507544525679805-75.900734860810189,33.168297239520143Z" style="fill: #b54200;"/>
    <path d="M206.800574193380271,199.664718938890474c-75.420043945309772,2.119995117189319-117.739990234370453-88.820007324220569-153.460083007809772-88.820007324220569-17.329956054690228,0-24.269897460940228,7.340026855470569-28.400024414060681,15.390014648440228,12.320068359370453-12.309997558600116,22.160034179690228,10.160034179680224,8.950073242190228,23.369995117180224-13.210083007819776,13.210021972659888-29.300170898440228-4.239990234370453-29.300170898440228-4.239990234370453-6.519775390629547-4.880004882809772-6.009765625-21.049987792969659,1.7802734375-31.960021972659888,10.10986328125-14.139953613279431,47.8798828125-53.759948730469659,96.539794921870453-5.109985351559772,48.650146484379547,48.660034179690228,56.080078125,76.070007324219659,103.89013671875,76.070007324219659,28.409912109379547,0,43.419921875-11.599975585939319,50.929931640629547-21.02001953125v-.009948730469659c.85009765625-1.059997558590112,1.60009765625-2.090026855469659,2.260009765620453-3.080017089840112,.77001953125-2.400024414069776-.550048828120453-5.179992675780341-10.859985351559772-4.340026855469659-14.559936523440228,1.179992675779431,12.170043945309772-21.010009765630457,26.099975585939319-14.010009765630457,.679931640620453,.27001953125,1.390014648440228,.720031738280341,2.119995117190228,1.380004882819776l.0400390625,.0400390625c1.680053710930224,1.399963378900793,3.059936523430224,3.390014648430224,4.029907226559772,6.099975585930224,.670043945310681,1.880004882819776,1.0400390625,3.679992675780341,1.16015625,5.390014648440228,.009887695310681,.02001953125,.009887695310681,.039978027340112,.009887695310681,.059997558590112,1.579956054689319,16.469970703129547-13.25,43.02001953125-75.789916992190228,44.789978027350116Z" style="fill: #c88200;"/>
    <rect x="21.501990221867516" y="108.043242469335397" width="19.145528811195277" height="48.488132799953959" rx="9.57275483476962" ry="9.57275483476962" style="fill: #ee9215;"/>
    <rect x="256.887240454007497" y="162.66363934912718" width="19.145528811195618" height="48.48813279995403" rx="9.572754817297657" ry="9.572754817297657" style="fill: #ee9215;"/>
  </g>
  <path d="M116.857487171198045,47.654993977801496l72.526517746109675,.649226871954852c6.138793288509987,.054951894680926,11.063253944160351,4.362535464102621,10.999105862970282,9.621261438144757l-.452002258340144,37.054202911520406c-.064148081180065,5.258725974042136-5.092613244490167,9.477215139139844-11.231406533010158,9.422263244469832l-72.526517746109675-.649226871954852c-6.138788095139716-.054951848188466-11.063259137519708-4.362535510584166-10.999111056349648-9.621261484637216l.452002258359244-37.054202911510401c.064148081160056-5.258725974040317,5.092623631230708-9.477215046165838,11.231411726370425-9.422263197987377Z" style="fill: #d84119;"/>
  <g>
    <path d="M129.620937077187591,.941183853948132c-21.377312026629625,6.178907924026134-36.196066580369916,24.330037987320793,24.631509787500363,28.016325210660398l.085205928429787-7.980127665781765c.120803575359787,.05378728883079-3.33940368930962-26.215105468896581-24.71671571593015-20.036197544878632Zm8.754920277629935,9.585631726045904c12.055213343550349,.109791091724219,15.422009124500619,16.650974739146477,15.422009124500619,16.650974739146477-35.166513726020639-5.0108073096726-27.477220163869788-16.760764804936116-15.422009124500619-16.650974739146477Z" style="fill: #b4161c;"/>
    <path d="M152.245026034957846,18.862684079034807l-.109075266479522,9.283935553554329c71.180512139829261-3.008265518292319,43.974344001929239-25.677985606535003,28.035120122429362-25.677985606535003s-27.92604485594984,16.394050052980674-27.92604485594984,16.394050052980674Zm.537921316749816,7.206019976384596s5.008821781720144-13.910745805187616,19.011248642330429-13.722635393697601c14.002426860600281,.188110411491834,22.187832324810188,8.537945143953948-19.011248642330429,13.722635393697601Z" style="fill: #b4161c;"/>
    <ellipse cx="154.032835385487942" cy="22.699631324719803" rx="7.697912360478401" ry="15.657344018960922" transform="translate(130.114534335455318 176.54794140335224) rotate(-89.546420635049586)" style="fill: #a40e0e;"/>
    <path d="M117.997588060307862,37.613928043024316l70.353638712070278,.629776173056598c6.738805254080035,.060322949349938,12.144605219949881,4.7889584334971,12.074187120239912,10.561687456619438l-.429296125590554,35.192801480484377c-.070418099719973,5.772729023123247-5.590388668949345,49.764877709402754-12.329193923019375,49.704554760063729l-70.353638712070278-39.991092276100062c-6.73881044746031-.060322995831484-12.144610413330156-4.788958479977737-12.074192313620188-10.561687503100984l.429296125590554-35.192801480484377c.070418099719973-5.772729023122338,5.590388668959349-10.40356160635929,12.32919911639965-10.34323861053872Z" style="fill: #ee5d30;"/>
    <polygon points="137.612985120457779 30.51632283004983 168.79022673282816 30.79540837940749 168.017717859257573 126.615140715628513 136.840476246898106 118.166116410682662 137.612985120457779 30.51632283004983" style="fill: #b4161c;"/>
    <path d="M200.605379632637778,38.291845173704132l-.440303850149576,40.682871959774275c-9.204685394020089-22.763329504653484-50.068152568500409-29.259129111557741-94.423231622330604-27.977073561630277l.127432786220197-13.613383415698081,94.73611190299016,.907589121265119,.000009580930055-.000015790815269-.000018797660232,.000011687104234Z" style="fill: #92270b; isolation: isolate; opacity: .349999994039536;"/>
    <path d="M106.872506436137883,25.365956379780982l92.951709981250133,.832064599107071c3.543754780579548,.031722201800221,6.386515833430167,2.51836741543957,6.349484866060266,5.554088927101475l-.13051532865029,10.699374575519869c-.037030967369901,3.035721511672818-2.939830855780201,5.470934881158428-6.483585636359749,5.439212679368211l-92.951709981250133-.832064599117075c-3.543752183890319-.031722178555356-6.386511938389958-2.518367380564996-6.349480971020057-5.55408889222781l.13051532865029-10.699374575518959c.037030967379906-3.035721511661905,2.939829557429221-5.470934892777223,6.48358174131954-5.439212714232781Z" style="fill: #ee5d30;"/>
    <polygon points="140.259071539898287 24.927955243856559 166.398947475468049 25.161948415100596 166.125795086228209 47.554411880769294 139.985919150657537 47.320418709524347 140.259071539898287 24.927955243856559" style="fill: #b4161c;"/>
  </g>
  <rect x="40.670859414382335" y="91.003639685229928" width="129.922460256696695" height="89.673859269037507" rx="18.682770685260277" ry="18.682770685260277" transform="translate(-38.896579712546497 42.447516164946961) rotate(-19.260555669021596)" style="fill: #0491ad;"/>
  <g>
    <path d="M93.70996212116188,23.452269246680771c-8.926348881095691,6.607109443288209-10.744768461845524,26.94636708262442-10.744768461845524,26.94636708262442,4.369873046875,11.800048828125,17.68994140625,8.559814453125,30.77978515625,0,13.10009765625-8.550048828125-11.108667813308784-33.553476525912629-20.035016694404476-26.94636708262442Zm3.817914394390755,32.437862179936019l-7.112975824986279-2.371622050436599s-.534401160915877-11.651473261994397,6.627095636285048-10.417643741938264,.485880188701231,12.789265792374863,.485880188701231,12.789265792374863Z" style="fill: #ffc050;"/>
    <path d="M71.365096003066355,51.548538673055191s-22.340087890625-18.989990234375-37.550048828125-8.530029296875c-15.219970703125,10.4599609375,5.27001953125,30.080078125,9.630126953125,32.510009765625,4.369873046875,2.4300537109375,30.449951171875-10.429931640625,31.58984375-14.429931640625,1.14013671875-3.989990234375-3.669921875-9.550048828125-3.669921875-9.550048828125Zm-2.93017578125,11.420166015625c-6.93994140625,4.9697265625-19.159912109375-2.420166015625-13.33984375-8.230224609375,5.81005859375-5.81982421875,13.33984375,3.89013671875,13.33984375,3.89013671875,0,0,6.93017578125-.630126953125,0,4.340087890625Z" style="fill: #ffc050;"/>
    <path d="M82.534456071057321,64.493236296930263c-9.51279120752406,5.631477994095803-19.500084471938862,1.794939820670152-13.715251003053709-8.938067440548366s23.39305464174231-6.758672197560372,24.610914319401672-2.897266643049988c1.217859677661181,3.861405554510384-1.382872108823904,6.203856089502551-10.895663316347964,11.835334083598354Z" style="fill: #fead37;"/>
  </g>
  <rect x="35.331789117507938" y="75.625042762834141" width="129.922460256697832" height="89.673859269042623" rx="16.743712988699073" ry="16.743712988699073" transform="translate(-34.122562474337002 39.825579285231896) rotate(-19.260555669031682)" style="fill: #35c3ef;"/>
  <polygon points="103.232456499937143 184.264106999873547 69.938567201863407 88.459670472602738 104.133730648337405 76.434136049878362 137.427619946411141 172.23857257715008 103.232456499937143 184.264106999873547" style="fill: #f99a26;"/>
  <circle cx="113.748314498986929" cy="101.988306637915457" r="7.704509900652054" style="fill: #f9feff;"/>
  <circle cx="144.954022147966498" cy="95.50037348062051" r="4.851382485797338" style="fill: #f9feff;"/>
  <polygon points="97.933006874091916 168.930902661275468 64.639126117668638 73.126490712995292 98.834268786245048 61.100963597319605 132.128149542668325 156.905375545598872 97.933006874091916 168.930902661275468" style="fill: #fead37;"/>
  <path d="M146.839044332618869,56.698188829529499l21.375828770578664,61.498704220448417c-24.186647290219298-30.065275324692266-80.229558043496581-20.645917940224535-136.844564702128991,1.865896496118694l-7.081061977374702-20.529997094407008,122.549768425165894-42.834646507440084,.000014741877749,.000021442651814,.000014741881387,.000021442628167Z" style="fill: #196768; isolation: isolate; opacity: .349999994039536;"/>
  <circle cx="62.029703083871937" cy="159.194413857180734" r="8.407683770708555" style="fill: #f9feff;"/>
  <circle cx="70.482220077775537" cy="124.204977596171375" r="6.037220694193419" style="fill: #f9feff;"/>
  <circle cx="146.959733081195736" cy="135.580091012056982" r="6.037220694190391" style="fill: #f9feff;"/>
  <g>
    <rect x="177.428178032052983" y="96.614583877830611" width="57.285593958996287" height="82.997267710860356" rx="11.934956566265756" ry="11.934956566265756" transform="translate(13.277287233255748 294.225682346729741) rotate(-72.829270262933278)" style="fill: #26822c;"/>
    <g>
      <path d="M200.170398721302263,60.728547080855606c-29.281421339794178-13.64017392632195-29.037532269029725,12.814401309874484,21.060893602327269,31.681160770629504l2.420782738435264-7.73946786281158c-.099338002934928-.106239060468397,5.696940411402466-10.304986681599075-23.481692396688231-23.941710079150653l.000016055925698,.000017171332729Zm-.032508863873772,7.099293131241211c10.082883747980304,3.11689214622038,21.158962512798098,22.628885537079441,21.158962512798098,22.628885537079441-28.044508430630231-13.701556112809158-31.241846260774764-25.745777683311644-21.158962512798098-22.628885537079441Z" style="fill: #d11921;"/>
      <path d="M222.405536782500349,81.952914517735735l-2.774021263444411,9.065350017282981c60.628423138780818,14.795372059107649,78.252469326414939-10.544869070690766,41.102489681699808-16.628452601185927-37.150012871994477-6.083584645917654-38.32845236232879,7.563119755235675-38.32845236232879,7.563119755235675l.000000557713975-.00001661362694-.000016613640582-.000000557705789Zm-1.577787368145437,7.15032373142185s23.541449299780652-11.558239333061465,35.251696911124782-7.87219606805229c11.710247611355953,3.686043265013723,.795245784598592,13.095533257541319-35.251696911124782,7.87219606805229l-.00001661362603-.000000557712156,.00001661362603,.000000557712156Z" style="fill: #d11921;"/>
    </g>
    <ellipse cx="222.804508504454589" cy="86.200620682935551" rx="7.919191700205712" ry="13.678608379339661" transform="translate(74.669517439056449 273.626393825503442) rotate(-72.829256185331957)" style="fill: #c11010;"/>
    <rect x="180.518192026583449" y="86.684867168315904" width="57.285593958993417" height="82.997267710862175" rx="10.696244718966176" ry="10.696244718966176" transform="translate(24.942209630622074 290.179706479686047) rotate(-72.829270262942742)" style="fill: #34a541;"/>
    <g style="clip-path: url(#clippath);">
      <g>
        <rect x="152.741048730210309" y="127.95429328625751" width="123.717891714858297" height="10.249929305354371" transform="translate(-10.403478007473979 18.463884228718825) rotate(-4.810158669025053)" style="fill: #82d374;"/>
        <rect x="165.240818041423324" y="89.03101440679508" width="123.717891714860912" height="10.249929305358322" transform="translate(-7.095560950212331 19.374958911286328) rotate(-4.810158669028846)" style="fill: #82d374;"/>
        <rect x="158.990933385814628" y="108.492653846526991" width="123.717891714856023" height="10.249929305355181" transform="translate(-8.749519478846906 18.919421570009632) rotate(-4.810158669028846)" style="fill: #82d374;"/>
        <rect x="146.491164074607411" y="147.415932725986124" width="123.717891714860002" height="10.249929305358251" transform="translate(-12.05743653610736 18.008346887443395) rotate(-4.810158669025129)" style="fill: #82d374;"/>
        <rect x="140.241279419003604" y="166.877572165717794" width="123.717891714852158" height="10.249929305359217" transform="translate(-13.711395064746313 17.552809546174956) rotate(-4.810158669027177)" style="fill: #82d374;"/>
      </g>
    </g>
    <rect x="174.785334635615129" y="120.88222452250281" width="64.793416524864682" height="27.357216616496345" transform="translate(17.454398296733615 292.783579316682165) rotate(-72.829270262945386)" style="fill: #930d17;"/>
    <rect x="177.864781416292942" y="110.986480822571451" width="64.793399901878814" height="27.357199993511415" transform="translate(29.079416407454289 288.751436922883556) rotate(-72.829270262952861)" style="fill: #d11921;"/>
    <path d="M257.274582306735283,113.068560268551664l-12.344059151548208,39.71822166093898c-1.025518868194013-24.628518753343087-33.403670942755525-41.048160895680667-71.042745440520775-50.955624387123862l4.148955323321388-13.238273471778484,79.237850384167359,24.475642970695844-.000000557706699,.000016613638763-.000000557713065,.000016613628759Z" style="fill: #196821; isolation: isolate; opacity: .349999994039536;"/>
    <rect x="206.905492672306622" y="53.222413604877474" width="22.214878541532272" height="92.56201885753002" rx="4.905344129789126" ry="4.905344129789126" transform="translate(58.582668953827607 278.423966664068075) rotate(-72.829270262925391)" style="fill: #34a541;"/>
    <rect x="206.686443239855635" y="87.798439802283454" width="22.934820167795806" height="22.934803544808659" transform="translate(58.908979813029646 278.391164419020242) rotate(-72.829270262935253)" style="fill: #d11921;"/>
  </g>
  <path d="M156.382985758371433,61.382879269515797c1.392044093512595,3.999406701955195-.716272472350283,8.384866428844362-4.728864452938069,9.781444610293875l-43.816192541083183,15.313018558290423-34.282096960153467,11.981825144588583-44.185979573345321,15.437662927537531c-3.999057291814097,1.392016034595144-8.384544174350594-.716381094891403-9.78149801827567-4.72875673366616l-6.395567908510202-18.320261005467728c-1.40984402371032-4.008030737021727,.702926066465807-8.380278029639157,4.711037367103017-9.790149208984985l44.542393044092023-15.557799461210379,34.282124115802617-11.981744580965824,43.464393721883425-15.179723901632315c3.994737739135417-1.405363343761564,8.380224621652815,.703033785729531,9.77685621108958,4.715518047052683l6.413394994335249,18.328965604164296Z" style="fill: #35c3ef;"/>
  <polygon points="96.728340831063178 53.518119519931133 107.837928764350181 86.477342438100095 73.555831804196714 98.459167582688679 62.446216715260562 65.499864100896957 96.728340831063178 53.518119519931133" style="fill: #f99a26;"/>
  <circle cx="133.624420922171794" cy="54.735377169319008" r="7.704509900651521" style="fill: #f9feff;"/>
  <circle cx="50.25310264777886" cy="91.339475044898791" r="7.704509900651744" style="fill: #f9feff;"/>
  <g>
    <path d="M257.933323492946329,172.668269894101286v72.782966504472824c0,5.199333365234452-4.218952669182727,9.418286034417179-9.418482228269568,9.418286034417179h-84.491472462881575c-5.199333365235361,0-9.410242086341896-4.218952669182727-9.410242086341896-9.418286034417179v-72.782966504472824c0-5.199333365233542,4.210908721106534-9.418286034417179,9.410242086341896-9.418286034417179h84.491472462881575c5.199529559086841,0,9.418482228269568,4.218952669183636,9.418482228269568,9.418286034417179Z" style="fill: #e29e3d;"/>
    <rect x="222.976841158099887" y="150.988461991840268" width="15.976301768899248" height="103.881060441151021" style="fill: #aa2b37;"/>
    <g>
      <path d="M257.933323492946329,158.549358075729288v72.782966504473734c0,5.199333365233542-4.218952669182727,9.418286034417179-9.418482228269568,9.418286034417179h-84.491472462881575c-5.199333365235361,0-9.410242086341896-4.218952669183636-9.410242086341896-9.418286034417179v-72.782966504473734c0-5.199333365233542,4.210908721106534-9.418286034416269,9.410242086341896-9.418286034416269h84.491472462881575c5.199529559086841,0,9.418482228269568,4.218952669182727,9.418482228269568,9.418286034416269Z" style="fill: #f7b85b;"/>
      <path d="M257.933323492946329,158.549358075729288v65.719251978657667c0-58.454634944789177-103.320196777493038-50.892637074405684-103.320196777493038-50.892637074405684v-14.826614904251983c0-5.199333365233542,4.210908721106534-9.418286034416269,9.410242086341896-9.418286034416269h84.491472462881575c5.199529559086841,0,9.418482228269568,4.218952669182727,9.418482228269568,9.418286034416269Z" style="fill: #e29e3d;"/>
      <rect x="150.466790805390701" y="136.869550173469179" width="111.60774354545174" height="31.598720249082362" rx="4.95497183250427" ry="4.95497183250427" style="fill: #f7b85b;"/>
      <rect x="222.976841158099887" y="136.869550173469179" width="15.976301768899248" height="103.881060441151021" style="fill: #d33941;"/>
      <rect x="198.26904011165243" y="151.284927931767015" width="15.976301768900157" height="103.288128561298436" transform="translate(409.186183208518742 -3.328198783686275) rotate(90)" style="fill: #d33941;"/>
      <g>
        <path d="M229.437984988901007,200.06163948385165s.013876497659112-29.018411446053506-12.946885792098328-19.426101461784128c-9.806946062213683,7.258142636644152-25.936239118676895,19.641898797307476,2.984697124083141,23.749315259623472,31.776537809912043,4.512949161678989,9.962188668015187-4.323213797839344,9.962188668015187-4.323213797839344Z" style="fill: #aa2b37;"/>
        <path d="M227.497902582611459,204.15363914028876s-29.030151923497215-3.016235603692621-20.701526562659637,10.790759833404081c4.029233210892926,6.679616005157186,15.608398370049144,26.886626679066467,23.932315078357533-.422699661725346,9.357662133059421-30.700855948536628-3.230788515697895-10.368060171678735-3.230788515697895-10.368060171678735Z" style="fill: #aa2b37;"/>
        <path d="M230.555513882069135,206.135922521792963s-1.53233596982318,29.627636479268403,11.593817740134,20.262813270480365c11.659408446065754-8.318325183432535,27.408477810532531-19.332108699430137-1.36040819419668-23.89744162054194-31.698648849272104-5.030263310234659-10.23340954593732,3.634628350061575-10.23340954593732,3.634628350061575Z" style="fill: #aa2b37;"/>
        <path d="M233.133846373384586,203.578213072722974s29.213642674989387,3.559534292744502,20.955254714430339-10.289593774818059c-7.071807522352174-11.859329984849865-19.409654320817936-27.748138422904958-23.935650373905446-.153178352699797-5.194624712696168,31.672113630303102,2.980395659475107,10.442772127517856,2.980395659475107,10.442772127517856Z" style="fill: #aa2b37;"/>
        <circle cx="230.964992042546555" cy="202.928992212416233" r="9.245418289582744" style="fill: #c0343b;"/>
      </g>
    </g>
  </g>
  <rect x="127.892652293020546" y="183.026796199100318" width="46.038330078119543" height="44.418212890629547" style="fill: #26822c;"/>
  <path d="M127.280554662130271,186.936464060435355s46.301641918830683,.028278609767767,46.301641918830683,33.541897901593074v-42.796512107395756h-54.779425121951135l8.477783203120453,9.254614205802682Z" style="fill: #196821; isolation: isolate; opacity: .349999994039536;"/>
  <path d="M178.556227186520118,156.531375271980323H55.662573857540337l34.131096777109633,26.437031698949795h88.762556551870148c2.30041600038021,0,4.165350668170504-1.864856117769705,4.165350668170504-4.165350668169594v-18.106408912630286c0-2.30041600038021-1.864934667790294-4.165272118149915-4.165350668170504-4.165272118149915Z" style="fill: #34a541;"/>
  <path d="M174.911685086865873,125.018143165242691c-48.71728515625-16.5416259765625-98.156005859375-31.0992431640625-146.9365234375-47.4754638671875l-10.07275390625,3.5159912109375c-4,1.4100341796875-6.1201171875,5.780029296875-4.71044921875,9.7900390625l6.400390625,18.320068359375c1.3896484375,3.969970703125,5.69970703125,6.079833984375,9.669921875,4.7598876953125l.02001953125,.0599365234375,.02001953125,.06005859375c.10986328125,.43994140625,.25,.8800048828125,.39990234375,1.320068359375l5.68017578125,16.260009765625c.08984375,.3199462890625,.18994140625,.639892578125,.2998046875,.949951171875l17.25,49.3800048828125c3.41015625,9.739990234375,14.06005859375,14.8800048828125,23.7998046875,11.469970703125l26.47021484375-9.25,.02978515625,.0899658203125,3.7001953125-1.2999267578125h16.7099609375l3.64013671875,3.969970703125s.2099609375,0,.60986328125,.010009765625v40.5h26.6201171875v16.7200927734375c0,5.06982421875,4.10009765625,9.179931640625,9.15966796875,9.179931640625h82.31005859375c5.0703125,0,11.950620359285494-14.417831092545384,11.950620359285494-19.487655311295384l.000705546794961-65.392783837645766c2.2900390625-.3701171875,4.141210857896112-2.55506948875427,4.141210857896112-4.95497183250427v-13.576827930839499c-28.29833984375-8.6103515625-59.157478170226568-15.40917222052758-87.162849263976568-24.91832749396508Z" style="fill: url(#linear-gradient); opacity: .64;"/>
  <g>
    <g>
      <g>
        <path d="M237.605505834009818,288.54261888209021H8.952673802759818C4.007849584009818,288.54261888209021,.000037084009818,292.49525560084021,.000037084009818,297.37172044459021s4.0078125,8.8291015625,8.95263671875,8.8291015625H237.605505834009818v-17.658203125Z" style="fill: #bd3a21;"/>
        <path d="M228.951443646660664,288.54261888209021h38.392203550899467c7.087791424780335,0,7.759645291740526-1.90047450639031,.302698063410389-9.357421734380296-.343297488269855-4.452409445079866-.054708749680685-8.184392491769358-.054708749680685-8.184392491769358,.149975041060316-6.489611251970928,9.793176826670788-12.880903923260121,19.391099425770335-9.989963381360212,12.255972672020107,3.691558033739966,13.017226978930012,14.17558284955976,13.017226978930012,34.995970159860008v4.494884650839595c0,3.147540333980032-2.551585587830232,5.699125921810264-5.699125921810264,5.699125921810264h-60.624199064329332l-4.725194283189921-17.658203125Z" style="fill: #bd3a21;"/>
      </g>
      <g>
        <path d="M237.605505834009818,295.72897859512068H8.952673802759818C4.007849584009818,295.72897859512068,.000037084009818,299.68161531387068,.000037084009818,304.55808015762068s4.0078125,8.8291015625,8.95263671875,8.8291015625H237.605505834009818v-17.658203125Z" style="fill: #ebaa13;"/>
        <path d="M228.951443646660664,295.72897859512068h38.392203550899467c7.087791424780335,0,9.967206691269894-4.865611280500161,2.510259462939757-12.322558508500151-7.456947228319223-7.456947227990895,4.872856604540175-18.900777132750591,17.128829276560282-15.209219099010625s13.017226978930012,14.175582849570674,13.017226978930012,34.995970159860008v4.494884650850508c0,3.147540333980032-2.551585587830232,5.69912592180026-5.699125921810264,5.69912592180026h-60.624199064329332l-4.725194283189921-17.658203125Z" style="fill: #ebaa13;"/>
      </g>
      <path d="M222.377120243990248,305.131189242129949l-17.049013204709809,3.293241021350696-12.158909257780579-45.026953890500408c-1.075239077999868-3.981832527900224,1.869655151290317-7.946961999220548,6.577605384890376-8.856364586180462l.000017049020244-.000003293239388c4.707950305049962-.909402600770591,9.396151648609703,1.581294039099703,10.471390740270181,5.56312662793971l12.158909288309587,45.026954120629853Z" style="fill: #ebaa13;"/>
      <path d="M66.788268763290034,308.960249455129997l-17.309679103429517-2.106870427809554,7.778732740020132-45.71538059634986c.687890438369323-4.042711615050393,5.120435562019338-6.848338438310748,9.900366669920004-6.266542926090551l.000017309669602,.000002106869943c4.779931180450149,.581795521060485,8.097185644600359,4.330699346900474,7.409295193099751,8.373411022990695l-7.778732809279973,45.715380820389328Z" style="fill: #ebaa13;"/>
      <polygon points="136.912712879459832 295.72897859512068 175.039060422450348 313.38718172012068 223.558884074540401 313.38718172012068 191.740550743030326 295.72897859512068 136.912712879459832 295.72897859512068 136.912712879459832 295.72897859512068" style="fill: #ebd59e;"/>
      <polygon points="83.442166655970141 295.72897859512068 116.980309796250367 313.38718172012068 141.900002782150295 313.38718172012068 110.08166945064022 295.72897859512068 83.442166655970141 295.72897859512068" style="fill: #ebd59e;"/>
    </g>
    <g>
      <g>
        <path d="M237.605505834009818,320.15543716197044H8.952673802759818C4.007849584009818,320.15543716197044,.000037084009818,324.10807388072044,.000037084009818,328.98453872447044s4.0078125,8.8291015625,8.95263671875,8.8291015625H237.605505834009818v-17.658203125Z" style="fill: #d14f18;"/>
        <path d="M228.951443646660664,320.15543716197044h38.392203550899467c7.087791424780335,0,7.759645291740526-1.900474506400315,.302698063410389-9.3574217343903-.343297488269855-4.452409445079866-.054708749680685-8.184392491760264-.054708749680685-8.184392491760264,.149975041060316-6.489611251970018,9.793176826670788-12.880903923259211,19.391099425770335-9.989963381359303,12.255972672020107,3.691558033739057,13.017226978930012,14.17558284955976,13.017226978930012,34.995970159849094v4.494884650850508c0,3.147540333980032-2.551585587830232,5.699125921810264-5.699125921810264,5.699125921810264h-60.624199064329332l-4.725194283189921-17.658203125Z" style="fill: #d14f18;"/>
      </g>
      <g>
        <path d="M237.605505834009818,327.341796875H8.952673802759818C4.007849584009818,327.341796875,.000037084009818,331.29443359375,.000037084009818,336.1708984375s4.0078125,8.8291015625,8.95263671875,8.8291015625H237.605505834009818v-17.658203125Z" style="fill: #ffcd05;"/>
        <path d="M228.951443646660664,327.341796875h38.392203550899467c7.087791424780335,0,9.967206691269894-4.865611280510166,2.510259462939757-12.322558508499242-7.456947228319223-7.456947227990895,4.872856604540175-18.900777132750591,17.128829276560282-15.209219099010625s13.017226978930012,14.17558284955976,13.017226978930012,34.995970159860008v4.494884650840504c0,3.147540333979123-2.551585587830232,5.699125921809355-5.699125921810264,5.699125921809355h-60.624199064329332l-4.725194283189921-17.658203125Z" style="fill: #ffcd05;"/>
      </g>
      <path d="M222.377120243990248,336.744007522010179l-17.049013204709809,3.293241021349786-12.158909257780579-45.026953890499499c-1.075239077999868-3.981832527900224,1.869655151290317-7.946961999220548,6.577605384890376-8.856364586190466l.000017049020244-.000003293239388c4.707950305049962-.909402600760586,9.396151648609703,1.581294039099703,10.471390740270181,5.563126627949714l12.158909288309587,45.026954120629853Z" style="fill: #ffcd05;"/>
      <path d="M66.788268763290034,340.573067735000222l-17.309679103429517-2.106870427799549,7.778732740020132-45.715380596350769c.687890438369323-4.042711615059488,5.120435562019338-6.848338438319843,9.900366669920004-6.266542926089642l.000017309669602,.000002106869943c4.779931180450149,.581795521049571,8.097185644600359,4.330699346899564,7.409295193099751,8.373411022989785l-7.778732809279973,45.715380820380233Z" style="fill: #ffcd05;"/>
      <polygon points="136.912712879459832 327.341796875 175.039060422450348 345 223.558884074540401 345 191.740550743030326 327.341796875 136.912712879459832 327.341796875 136.912712879459832 327.341796875" style="fill: #ffec9c;"/>
      <polygon points="83.442166655970141 327.341796875 116.980309796250367 345 141.900002782150295 345 110.08166945064022 327.341796875 83.442166655970141 327.341796875" style="fill: #ffec9c;"/>
    </g>
    <path d="M234.687781224630271,246.769489717350552c-9.442138671870453,1.268676757819776-18.88427734375,2.537414550779431-28.326171875,3.80615234375-14.67041015625,.553405761719659-28.354614257809772-2.505554199220569-41.052978515620453-9.176940917970569-13.209838867189319-4.297180175779431-24.640502929689319-11.64111328125-34.291748046879547-22.031860351559772-10.390747070309772-9.651306152340112-17.734741210930224-21.081909179690228-22.031982421870453-34.291809082030341-3.510009765629547-6.680847167969659-6.009643554689319-13.637329101559772-7.519775390629547-20.863952636719659l-45.239013671870453-18.274169921870453c-10.246459960939319,4.641418457030341-20.371459960939319,9.590881347650793-30.300170898439319,14.857604980470569-1.483032226560681,.786743164059772-2.949584960940228,1.604248046869543-4.423950195310681,2.407409667959655v114.127563476569776c0,16.272888183590112,13.191772460940228,29.464660644530341,29.464599609370453,29.464660644530341H235.011145482450047c16.272827148430224,0,29.464599609370453-13.191772460940228,29.464599609370453-29.464660644530341v-43.997985839849207c-9.083618164060681,5.927490234379547-19.008422851560681,10.414672851569776-29.787963867190228,13.43798828125Z" style="fill: #f51213;"/>
    <path d="M234.683394201660121,246.765565730350318c-9.43994140625,1.269958496100116-18.880004882809772,2.539978027350116-28.319946289059772,3.809997558600116-14.670043945309772,.549987792969659-28.360107421880457-2.510009765630457-41.050048828130457-9.179992675780341-13.2099609375-4.2900390625-24.64990234375-11.640014648440228-34.300048828119543-22.030029296880457-10.389892578130457-9.649963378898974-17.72998046875-21.080017089839203-22.029907226559772-34.289978027339203-3.510009765630457-6.679992675780341-6.010009765630457-13.640014648440228-7.52001953125-20.859985351559772l-45.239990234380457-18.280029296880457c-10.239990234369543,4.640014648440228-20.369995117190228,9.590026855469659-30.299926757809772,14.859985351559772-1.480102539059772,.7900390625-2.950073242190228,1.600036621100116-4.420166015630457,2.410034179690228v114.119995117190228c0,16.279968261719659,13.190063476570685,29.469970703119543,29.460083007820685,29.469970703119543H235.01335025635035c16.27001953125,0,29.460083007809772-13.190002441399884,29.460083007809772-29.469970703119543v-43.989990234380457c-9.079956054690228,5.919982910159888-19.010009765619543,10.409973144530341-29.7900390625,13.429992675780341Zm6.589965820309772,23.260009765629547c0,14.429992675780341-10.669921875,26.129943847660797-23.839965820309772,26.129943847660797H68.543379553219893c-13.169921875,0-23.839965820309772-11.699951171880457-23.839965820309772-26.129943847660797v-65.309997558589203c4.630004882809772-6.030029296880457,8.079956054690228-13.81005859375,9.02001953125-21.370056152351026,12.329956054690228,.210021972660797,25.450073242190228,10.600036621101026,40.450073242190228,24.030029296880457,7.289916992190228,6.510009765619543,15.019897460940228,13.75,23.319946289059772,20.869995117180224,7.160034179690228,6.150024414069776,14.739990234380457,12.22998046875,22.819946289059772,17.700012207040345,11.949951171880457,8.080017089839203,25,14.849975585929315,39.410034179690228,18.589965820309772,8.529907226559772,2.230041503899884,17.539916992190228,3.380004882809772,27.079956054690228,3.130004882809772,13.660034179690228-.369995117190228,25.0400390625-1.849975585940228,34.469970703119543-4.119995117190228v6.480041503909888Z" style="fill: #cc111a; opacity: .5;"/>
    <g>
      <path d="M57.981302805560517,256.78162439784046c-3.319942321300005,.877429983479487-5.825932908640425,3.359675898789646-7.103500505500051,6.493160547909611-1.235513604469816,3.03033899959064-.970144099300342,6.313036726720384,.370911895340214,9.260290101489772,2.636166514339493,5.793531878530302,9.225069732449811,8.83233951055081,15.377457011999468,8.091126142529902,6.476898772400091-.780309128039335,11.855107380290065-4.831154111339856,14.335785563570425-10.871052221849823,2.415114040210028-5.880264044959404,1.733540770089348-12.857443332170078-1.572510378890001-18.260069309650135-6.6553764727405-10.875969003899627-20.940608878140665-14.270717277890071-32.384003744809888-9.545269897099388-5.764796863950323,2.380521214109649-10.694893467190013,6.460899285219966-13.804551853630073,11.908834012740044-3.078132285860192,5.392702892749185-4.410175509940018,11.857452997819564-3.716485767400627,18.027136808989781,1.402174122580618,12.470951282710303,10.656585234490194,22.811755546709719,22.720171566790668,26.116660080539987,6.971755477209626,1.909961569540428,14.399529914479899,1.119708543709748,21.263720973709496-.855517499269808,6.552545452620507-1.885547519610554,12.930794619360313-4.810626239700468,17.937097662869746-9.530239471230743,8.593704302440528-8.101579185489754,11.862607041510273-20.196931793288968,12.152132189620716-31.676647606569531,.31769709981927-12.596737950049828-2.653288049790717-25.45279404321991-7.793587351990027-36.912088908899932-5.337578911480705-11.899091282360132-13.781984601190743-22.256381138769939-24.798109437700077-29.317088540529767-5.417956169800163-3.472600737390167-11.414308104290285-6.135421683849927-17.611928690790592-7.864679909540428-6.040499988079318-1.68541848373934-12.699861226479698-2.761124494310025-18.984924151319319-2.285740806679314-3.160819805600113,.239075120349298-6.423421147670524,1.078510864239433-8.572574368909955,3.579813328629825-1.055271517960136,1.228182905890208-1.206599281900708,3.036041405219294,0,4.242640687120002,1.08016983178004,1.080169831779131,3.182126024049467,1.234285165919573,4.242640687120002,0,1.414908586969432-1.646748263690824,3.534914607179417-1.849802006619939,5.804919126660025-1.88463939697067,2.671581125999182-.041000321249157,5.369529584919292,.121546589160062,8.017493957889201,.478436586250609,5.514124015410744,.743188134949378,11.022538072200405,2.298917778400209,16.094490588390727,4.588238492159689,10.204083829759838,4.605804254239956,18.882889858279668,11.928718544059848,25.046283091129226,21.283102825270362,6.312881449490305,9.581267455980196,10.045820900680155,20.623453672639698,11.786774554830117,31.921218398900237,1.459320165789904,9.470129118019031,1.178120562930417,20.259928508659868-2.530791621789831,29.171426513619735-1.909415489929415,4.587801350299742-4.663142130660162,8.480149022940168-8.447655283839595,11.632824166619685-4.460836225290223,3.716083659450305-10.16914368163998,5.872371882230254-15.737196021000273,7.273865600270256-5.690583318330027,1.432335094309565-11.670194847550192,1.853318088029482-17.327829070800362,.058211244309859-4.602057348070048-1.460183588170366-8.756412330979401-4.280572611939533-11.949117660729826-8.013025479699536-6.497028426830184-7.595393210160182-7.273444864169505-19.085790089580769-2.028491774330178-27.659083879960235,5.137912269410663-8.39832703942011,15.920115175370483-12.327476981090513,25.054372400039938-9.53897576018062,4.572521344820416,1.395896900980006,8.660669385660185,4.529509134699765,10.936969341790245,8.79159449161034,2.232004930399853,4.179148492609784,2.265342294430411,9.517125407070125-.122323656640219,13.636079380659794-2.318917547509955,4.00035634904998-6.731496757989589,6.022527789610649-11.132481700819881,5.572578679169965-3.668884448679819-.375100418529655-8.212062954959947-4.108710437009904-7.382379581739769-8.165997332119332,.411825600790507-2.013894296440412,1.660005375530091-3.487243084120564,3.454259684140197-3.961447867220159,3.729708087849758-.9857272775198,2.147849472319649-6.774884581640435-1.595037673259867-5.785674201320035h0Z" style="fill: #ffcd05; opacity: .47;"/>
      <path d="M138.957955463970393,220.553519470310675c-13.236198636650442,2.763137006359102-22.400738404129697,14.948208279809478-25.912467585770173,27.392379264339979-2.115759991649611,7.49741159883979-2.472056631169835,15.841625715589544,1.478075000960416,22.811227407429215,3.11566198564924,5.497265678360236,8.357591951629729,9.429103542970552,14.185842162699373,11.673593580840134,6.015469617400413,2.316589223250048,13.036673829640677,2.597008376560552,19.140227256980324,.440371537570172,6.83033954117036-2.413440310249825,11.993290338499719-8.164964073859664,13.19580078916988-15.395825444809816,1.153127142079938-6.933912718050124-1.24344793850014-13.889271384150561-6.480788140779623-18.619534861470129-5.24569553613037-4.737809851810198-12.589960638350021-6.863756357560305-19.495736538110577-4.996841302309804-7.052548011260114,1.90659358936955-12.739745349749683,8.368183897559902-11.534849687519454,15.957941338149794,.536752307949428,3.38105609528975,2.811739660939566,6.024120572529682,5.965451756159382,7.229654080229921,2.649869414620298,1.012935320010001,6.072026729249956,.796510784919519,8.438627636810452-.838014762990497,1.434940717229438-.991061591569633,2.316006647969516-2.247912470719712,2.967981363000035-3.84751314965979,.611787720759821-1.501003077159112-.66442915413063-3.297188584660034-2.095318264030539-3.690355937289496-1.71774685129003-.471987645550143-3.0762908482493,.588727731179461-3.690355937279492,2.095318264029629,.236333063559869-.579836181099381-.14634757021031,.170023242790194-.19420945534057,.239069957569882,.362915671860719-.523550938609333-.142014381049194,.096149528319984-.218970127269131,.169790837440814,.523251127830008-.500715020600182-.907491392120392,.436458309659429-.233024749940341,.162969005169543-.250029681529668,.101384470969606-.51228791452013,.149123304459863-.765396048859657,.236636449940306-.760832599940841,.26306090152957,.333111244219253,.000524965929799-.141476715020872,.044629132199589-.228851408909577,.021267502460432-.457895009210006,.031660071869737-.687811384979796,.030236974020227-.185075360539486-.001219714190484-.369833796039529-.009507896739706-.554275306480122-.024864547640391,.336226872380394,.056196099149929,.326315139450344,.052988767250099-.029735198779235-.009621995679481-.18105530089997-.044578301500223-.362708972510518-.079791761280831-.542190437980025-.130548916699809-.065483349010719-.018518617040172-.893813769320332-.345980907800367-.325213414470454-.084209478160119-.18787808136949-.086495046190066-1.172940859160008-.756198128759934-.782028170810008-.421618871090686-.208369726009551-.178342096149208-.407313941270331-.37342253918996-.583689798029809-.58369382364981,.420697124899561,.501545542810163-.218237333379875-.398540043590401-.237767855620405-.434695655059841-.189658985269489-.351103595609857-.394933491509619-.943970142439866-.47972483626927-1.566994571739997-.106999078470835-.786200997170454,.070255413629638-1.917385364379697,.409119128459679-2.928057165740029,.295992610889698-.882807371070157,.915734488409726-1.96364797078968,1.58660018558021-2.693499334410262,1.790756944689747-1.948208715240071,4.160432266629869-3.021039782979642,6.789134885380008-3.451350497190106,4.762756491400069-.779648916099177,9.707162567159685,1.164113129480029,13.100710692289795,4.653370801990604,3.504235523540046,3.603066830319221,4.926429745410132,8.572765741550029,3.735063551140229,13.318244352019974-1.337615019390796,5.328020464269684-5.160795884420622,8.970380589519664-10.61712645642001,10.37247996492988-4.599338884160716,1.181880403270043-9.373349679150124,.779559213840002-14.043991047720738-1.019146580990309-4.093720318969645-1.576528334989234-8.056834531629647-4.659120994229852-10.352558464309368-8.4903860006998-2.961999358550202-4.943192136509424-2.950119828999959-11.245623152500229-1.53593578041-17.034453301959729,2.744693868029572-11.235147667020101,10.407872074460101-22.332476397800747,22.137044666829752-24.781012547310638,1.586712154499764-.331235817239758,2.505217044709752-2.198810467099975,2.095318264029629-3.690355937289496-.452310911709901-1.645875331349998-2.099023341219436-2.427518626550409-3.690355937289496-2.095318264029629h0Z" style="fill: #ffcd05; opacity: .47;"/>
      <path d="M264.4757450918205,254.688033010570507c-3.19482421875-1.476013183590112-6.777221679690228-2.212829589840112-10.306884765620453-2.041442871090112-5.675537109379547,.275512695309772-11.072631835940228,2.311889648429315-16.0263671875,4.995300292969659-4.6044921875,2.494201660149884-9.157592773440228,5.503845214840112-12.803100585940228,9.292358398430224-3.840698242189319,3.991455078130457-6.494140625,8.886169433600116-7.147338867189319,14.423461914069776-.619384765620453,5.252319335930224,1.10205078125,10.668579101560681,4.969970703129547,14.342956542959655,3.86962890625,3.675903320320685,9.09814453125,5.226623535160797,14.34228515625,4.357543945320685,5.10595703125-.84619140625,9.8154296875-4.31396484375,11.910400390620453-9.073120117190228,2.46142578125-5.591552734380457,1.038330078129547-12.741760253909888-4.640869140620453-15.810852050779431-5.298583984379547-2.863525390630457-12.179565429690228-.33251953125-14.056030273440228,5.459289550779431-.499389648439319,1.541015625,.582885742190228,3.274780273440228,2.095336914060681,3.690307617190228,1.62451171875,.446411132809772,3.189208984379547-.548461914070685,3.690307617189319-2.095275878909888,.156372070310681-.482543945309772,.307739257810681-.7646484375,.8740234375-1.290649414059772,.312622070310681-.290344238280341,1.065063476560681-.695983886720569,1.5576171875-.836364746101026,1.244506835940228-.354675292959655,2.299682617190228-.233032226559772,3.561401367190228,.721374511720569,1.090087890620453,.824462890630457,1.83984375,2.175231933600116,2.117919921870453,3.657165527350116,.2392578125,1.275085449219659-.150634765620453,3.18115234375-.90380859375,4.564514160149884-1.66796875,3.06396484375-5.005126953120453,5.05908203125-8.336059570310681,5.269165039069776-3.491821289059772,.220275878899884-6.72314453125-1.204772949219659-8.992797851559772-3.937133789069776-5.025634765629547-6.050537109369543-1.262817382819776-14.750427246090112,3.632568359370453-19.638977050780341,2.928588867189319-2.924438476559772,6.413940429689319-5.226684570309772,9.996337890629547-7.26953125,3.778686523430224-2.15478515625,7.82763671875-3.956115722649884,12.156494140620453-4.628601074219659,4.11279296875-.638854980470569,7.961181640629547-.0361328125,11.43505859375,2.099792480469659,.291381835939319,.179138183600116,.58349609375,.384765625,.87353515625,.594299316410797v-6.845581054690228Z" style="fill: #ffcd05; opacity: .47;"/>
    </g>
    <path d="M61.296735255710701,231.083818337599951l-4.212821668560537-1.638541643989811c-.836897395450251-.325504220710172-1.780376943020201-.218355711859658-2.5229694565096,.286527053850477l-3.738104394610673,2.541507557569275c-1.870035274640031,1.271422165280455-4.386222771790017-.153375933059579-4.257899203159468-2.411047147489626l.25651221787939-4.512968713860573c.050957392450073-.896523057349441-.342498109149346-1.76071471889918-1.052143859999887-2.310944813039896l-3.572255108530044-2.769779516459494c-1.787067015189677-1.385618177549986-1.209548197020013-4.218941518870452,.977278886610293-4.79455732571023l4.371354937729848-1.15062641133045c.868390795960295-.228577500439314,1.568701470479937-.869825828919602,1.872708789980607-1.714769494439679l1.530329321049976-4.253325440079607c.765567119079606-2.127781294439956,3.638680874999409-2.454073322160184,4.861890771569961-.552152240809846l2.445133710529262,3.801842483289875c.485737634980069,.755254393019641,1.312008936110033,1.223132792340039,2.209541543240448,1.251158982609923l4.518050642909657,.141079829269984c2.260213515460237,.070577016969764,3.458376651989965,2.702240794899808,2.027534859820662,4.45330847392961l-2.860179197590696,3.50029428589005c-.568188427919267,.695350385470192-.757835354419512,1.625763467330216-.507137016699744,2.488028271020085l1.26197953917017,4.340517569699841c.631321655299871,2.171400289740632-1.501286558180254,4.124149979190406-3.608805314829624,3.304448240080092Z" style="fill: #ffcd05; opacity: .47;"/>
    <path d="M112.144730129320124,299.772723418979695l-3.193530310470123-1.562503479859515c-.634410238410055-.310398871710277-1.380935368749306-.288749617129724-1.996291395209482,.057892519469533l-3.097614135540425,1.744946886250546c-1.549621703729827,.872932343560024-3.42754487908951-.409968460639902-3.177826613089564-2.170928167370221l.499173978259932-3.520067940809895c.099163324519395-.699278517639868-.152115292130475-1.402576119849982-.671947024729889-1.880696167479982l-2.616758516650407-2.406787866430022c-1.309067434929602-1.204026890030036-.669266440660067-3.386476113650133,1.082672951360109-3.693146405330481l3.50203679535025-.613018150269454c.695696543400118-.121779019789756,1.286922948009305-.578090096740198,1.581005295279283-1.220226673480283l1.480368431900388-3.23242359141932c.740573535370459-1.617061884960094,3.01391547123967-1.682988879680124,3.846955295740372-.111561836550209l1.665203791109889,3.141201888219257c.330800785150132,.624014944300143,.947477414899367,1.045296791500732,1.64906203360988,1.126554609290906l3.531676523430178,.409040220899442c1.766767050969975,.20462768319976,2.531968641099411,2.346331783320238,1.294876174610181,3.624197398489741l-2.472884254240853,2.554387682720517c-.491250414679598,.507441464849762-.701349702029802,1.224119042220082-.561828908969801,1.916475712199826l.70232769687027,3.485224350700264c.351348552319905,1.743528748229437-1.449072792590414,3.133101670659926-3.046677808620188,2.35143901075935Z" style="fill: #ffcd05; opacity: .47;"/>
    <path d="M189.076072537730397,296.303235419520206l-3.617133032969832-3.316330739539808c-.718560967560734-.65880513744014-1.715287971410362-.921845256069901-2.665359088779951-.703398591789664l-4.782521981450373,1.099629232599909c-2.392518737569844,.550103805819163-4.377272757419632-1.882017205130978-3.358606053479889-4.115641670659897l2.036262381930101-4.464900498800489c.404513368469452-.886974074000136,.346673804389866-1.916201652839845-.154669440270482-2.752269248329867l-2.523690115419413-4.208644574399841c-1.262508758420154-2.105429111050398,.437253055659312-4.744609079630209,2.876341481689451-4.466027391819807l4.875612395020653,.55687047489937c.968563978169186,.110625012570381,1.929544165519474-.26243249468007,2.56976811766981-.997597349870375l3.222795713049891-3.70071462614942c1.61224541376032-1.851330557339679,4.647510007499477-1.050312469420533,5.136282852409749,1.355484947829609l.977031794160212,4.809065379620733c.194092090319828,.955344091769803,.845850072690155,1.754009451369711,1.742873480189701,2.1357201790197l4.515487404880332,1.921477152779516c2.258931222339925,.961243902200295,2.435066092029956,4.095480274720103,.298055896940241,5.303763160820381l-4.271773538140224,2.415295383820194c-.84860846940046,.479810107100093-1.406780071210051,1.346469952220104-1.492613068809987,2.317545010969297l-.432071021070442,4.888252815170745c-.216149140109337,2.445411960379715-3.142556397770022,3.581458479449793-4.952074177549548,1.922420953829715Z" style="fill: #ffcd05; opacity: .47;"/>
    <path d="M206.800574193380271,245.585677707550531c-75.420043945309772,2.119995117189319-117.739990234370453-88.820007324220569-153.460083007809772-88.820007324220569-17.329956054690228,0-24.269897460940228,7.340026855470569-28.400024414060681,15.390014648440228,10.929715471950658-10.920781188159708,20.282482001410244,.836434252460094,14.608437574440359,22.509676943510385-.933228578420312,1.663350050149347-4.167584671259647-.630461487320645-5.65836433225013,.860318173669839C20.680457005880271,208.735702121610302,.089643461909873,188.693917176859941,.089643461909873,188.693917176859941c0,0-.025738097810063-4.335332837359601-.009570726399943-9.783596080399548,.018796201450641-6.33415605115988,2.102692791790105-13.719485968410481,6.290569817249889-19.58465315454032,10.10986328125-14.139953613279431,47.8798828125-53.759948730469659,96.539794921870453-5.109985351559772,48.650146484379547,48.660034179690228,56.080078125,76.070007324219659,103.89013671875,76.070007324219659,28.409912109379547,0,43.419921875-11.599975585939319,50.929931640629547-21.02001953125v-.009948730469659c.85009765625-1.059997558590112,1.60009765625-2.090026855469659,2.260009765620453-3.080017089840112,.77001953125-2.400024414069776-4.760254480600452,2.015481036970414-15.070191004029766,2.855446857280185-1.037932004750473-5.061981965260202-.247531731080016-9.094884225460191,.496190854600172-10.488481013070668,.743722585679279-1.393596787599563,17.747996930429508-16.78034551339988,29.813990383809141-10.717002465309633,.679931640620453,.27001953125,1.390014648440228,.720031738280341,2.119995117190228,1.380004882819776l.0400390625,.0400390625c1.680053710930224,1.399963378900793,3.059936523430224,3.390014648430224,4.029907226559772,6.099975585930224,.670043945310681,1.880004882819776,1.0400390625,3.679992675780341,1.16015625,5.390014648440228,.009887695310681,.02001953125,.009887695310681,.039978027340112,.009887695310681,.059997558590112,.097482702140042,1.016191079229429,.145626906699363,10.536931121599991,.110817868619961,11.621680787829973-10.803431863229889,15.293032625960223-17.219507534090553,31.507544525679805-75.900734860810189,33.168297239520143Z" style="fill: #ee9215;"/>
    <path d="M206.800574193380271,254.585573054569977c-9.5400390625,.269958496100116-18.550048828120453-.950012207030341-27.080078125-3.2900390625-14.409912109370453-3.940002441399884-27.4599609375-11.070007324219659-39.409912109370453-19.589965820309772-8.080078125-5.760009765619543-15.660034179689319-12.160034179690228-22.820068359379547-18.640014648440228-8.300048828120453-7.5-16.030029296870453-15.119995117179315-23.320068359370453-21.97998046875-15.14990234375-14.2900390625-28.389892578129547-25.320007324219659-40.829956054689319-25.320007324219659-17.329956054690228,0-24.269897460940228,7.339965820319776-28.400024414060681,15.389953613290345,12.320068359370453-12.309997558601026,21.015022156710074,9.106597900389716,8.950080750460074,23.370056152339203-7.517911609719704,8.887896514320346-17.000419861859882,5.139675113780868-21.684102576669829,3.141545577250326C.80977941709989,201.98241756032985,.213438884430616,193.803942112330333,.088423703230546,188.693949342809901c-.1590630908604-6.501700324639387,1.920365751029749-14.259597666129594,6.282218849529272-20.368386053859467,8.58984375-12.02001953125,37.159912109370453-42.429992675780341,75.409912109370453-21.440002441410797,6.760009765629547,3.7099609375,13.819946289069776,9.019958496101026,21.1298828125,16.330017089851026,.52001953125,.519958496089203,1.030029296879547,1.029968261709655,1.52001953125,1.539978027339203,8.830078125,8.899963378910797,16.280029296879547,17.070007324220569,22.85009765625,24.469970703120453,18.909912109379547,21.27001953125,30.7099609375,36.230041503909888,47.550048828129547,43.960021972659888,8.739990234370453,4.030029296880457,18.829833984370453,6.099975585940228,31.969970703120453,6.099975585940228,28.409912109379547,0,43.419921875-11.599975585940228,50.929931640629547-21.019958496100116v-.010009765620453c.85009765625-1.059997558589203,1.60009765625-2.090026855469659,2.260009765620453-3.080017089839203,.77001953125-2.399963378910797-.550048828120453-5.179992675790345-10.859985351559772-4.339965820320685-14.559936523440228,1.179992675780341,12.170043945309772-21.010009765619543,26.099975585939319-14.010009765619543,.679931640620453,.269958496089203,1.390014648440228,.719970703119543,2.119995117190228,1.380004882809772l.0400390625,.039978027340112c1.680053710930224,1.400024414069776,3.059936523430224,3.390014648439319,4.029907226559772,6.099975585939319,.670043945310681,1.880004882810681,1.0400390625,3.680053710940228,1.16015625,5.390014648440228,.009887695310681,.02001953125,.009887695310681,.0400390625,.009887695310681,.059997558590112,1.579956054689319,16.470031738280341-13.25,43.02001953125-75.789916992190228,44.7900390625Z" style="fill: #ffcd05;"/>
    <path d="M179.720496068380271,251.295533992069977c-14.409912109370453-3.940002441399884-27.4599609375-11.070007324219659-39.409912109370453-19.589965820309772l-13.030029296879547-42.480041503909888c18.909912109379547,21.27001953125,30.7099609375,36.230041503909888,47.550048828129547,43.960021972659888l4.889892578120453,18.109985351559772Z" style="fill: #ffec9c;"/>
    <path d="M117.490523107910121,213.065553523319977c-8.300048828119543-7.5-16.030029296869543-15.119995117179315-23.320068359369543-21.97998046875,1.80908203125-8.833618164059772-.783203125-22.03955078125-12.389892578130457-44.200012207030341,6.760009765630457,3.7099609375,13.819938780789926,9.019958496101026,21.12987530422015,16.330017089851026,.52001953125,.519958496089203,1.030036805160307,1.029968261709655,1.52002703952985,1.539978027339203,3.510498046880457,20.481170654300513,7.950927734380457,36.131469726559772,13.06005859375,48.309997558590112Z" style="fill: #ffec9c;"/>
    <path d="M19.336943356160191,159.243450556939933s-12.477117300920327,23.957459869189734,.563909503510331,31.462553252090402c6.762062057029652,2.451097369449599,1.771747385399976-8.23501546118041,9.251222171899826-8.23501546118041,7.479474786489845,0,10.136588874579502,24.142361541210448-9.758357946429896,21.161767699580196-12.148618097970029-1.820064995039502-17.646537408900258-12.011948628220125-14.618712103650068-23.657198861999859s11.952654866439843-18.122823120369503,14.561938374669808-20.732106628490328Z" style="fill: #ffec9c;"/>
  </g>
  <path d="M258.947847295570682,207.93581462830025c-7.638901055400311-.673171164799896-7.159885335960098-2.403231255399987-3.690309123040606-5.286589092660506,3.469576212920401-2.883357837259609,11.826017688490538-6.210686434899799,18.849992139350434-1.896812586909618s7.467272981099995,20.042536580679553-5.666261000590566,29.326914622920413c0,0,6.866353553170484-18.295794966750691,2.478399267670284-21.359975323500294-4.387954285510204-3.064180356749603-4.332920227990144-.110366455060102-11.971821283389545-.783537619849994Z" style="fill: #ffec9c;"/>
</svg>